<svg xmlns="http://www.w3.org/2000/svg" width="232.691" height="42.5" viewBox="0 0 232.691 42.5">
    <g id="Group_950" data-name="Group 950" transform="translate(-126.979 -246.638)">
        <path id="Path_19" data-name="Path 19" d="M198.367,246.638l21.093,9.488q-10.02,7.981-13.382,16.78,2.42-10.469,8.607-16.068l-15.4-7.357-.717,1.505L196.551,250Z" transform="translate(-45.457)" fill="#1d3059"/>
        <path id="Path_20" data-name="Path 20" d="M151.721,261.47l19.7,8.5q-2.916,4.806-3.856,13.5a9.61,9.61,0,0,0-1.255-.563q-.718-3.427,1.435-11.807l-14.526-6.54a75.713,75.713,0,0,0-.292,8.295q-.807-.878-1.434-1.65a52.884,52.884,0,0,1,.224-9.739" transform="translate(-15.937 -9.691)" fill="#3bb4ac"/>
        <path id="Path_21" data-name="Path 21" d="M140.5,274.565c12.706,10.417,31.134,12.581,24.77-2.142,7.685,14.782-6.071,14.221-10.76,13.371s-11.913-4.495-17.284-8.788-10.482-11.554-10.242-16.951,4.547-7.338,12.5-6c-12.246-1.384-11.693,10.093,1.012,20.509" transform="translate(0 -4.58)" fill="#1d3059"/>
        <path id="Path_22" data-name="Path 22" d="M174.59,258.319l-2.354-1.087,1.837-4.264,19.569,9.07q-5.38,5.56-7.935,16.4a2.7,2.7,0,0,0-.426-.1q.695-9.488,4.057-15.255l-13.719-6.811Z" transform="translate(-29.57 -4.136)" fill="#e85227"/>
        <path id="Path_23" data-name="Path 23" d="M271.863,309.768v2.275a12.351,12.351,0,0,1-1.9.156c-3.71,0-5.051-.9-5.051-5.331v-9.445h-2.494v-2.245h2.494v-3.99h2.681v3.99h4.177v2.245h-4.177v9.289c0,2.619.374,3.242,2.431,3.242a8.16,8.16,0,0,0,1.839-.187" transform="translate(-88.494 -29.109)" fill="#1d3059"/>
        <path id="Path_24" data-name="Path 24" d="M307.238,308.877c0-2.587-.436-4.863-4.083-4.863-3.866,0-4.738,2.088-4.832,5.517Zm2.494,1.933-11.409.716c.031,3.679,1.309,5.362,5.393,5.362a13.407,13.407,0,0,0,5.268-1.091v2.463a14.655,14.655,0,0,1-5.673,1c-4.956,0-7.793-2.027-7.793-8.728s2.837-8.729,7.637-8.729c5.735,0,6.733,3.772,6.733,7.045a18.592,18.592,0,0,1-.156,1.964" transform="translate(-110.121 -36.042)" fill="#1d3059"/>
        <path id="Path_25" data-name="Path 25" d="M357.076,306.605h-3.46l-6.141-7.855h-.9v7.855H343.89V282.914h2.681v13.747h.967l5.829-6.889H356.7l-7.076,7.824Z" transform="translate(-141.726 -23.702)" fill="#1d3059"/>
        <path id="Path_26" data-name="Path 26" d="M388.649,303.208V282.915h2.681v19.608c0,1.683.467,2.026,1.558,2.026a4.768,4.768,0,0,0,1.278-.156v2.213a7.048,7.048,0,0,1-1.777.187c-2.494,0-3.741-1.059-3.741-3.584" transform="translate(-170.971 -23.703)" fill="#1d3059"/>
        <path id="Path_27" data-name="Path 27" d="M411.36,290.889h2.681v16.833H411.36Zm-.249-4.676c0-1.4.436-1.59,1.621-1.59,1.122,0,1.59.187,1.59,1.59,0,1.372-.467,1.59-1.59,1.59-1.185,0-1.621-.218-1.621-1.59" transform="translate(-185.647 -24.819)" fill="#1d3059"/>
        <path id="Path_28" data-name="Path 28" d="M432.583,289.537h3.959v2.213h-3.959v14.62H429.9V291.75H427.1v-2.213H429.9v-.156c0-5.829,2.245-6.827,5.673-6.827a12.26,12.26,0,0,1,1.87.156v2.151a10.225,10.225,0,0,0-1.87-.156c-2.306,0-2.961,1-2.993,4.831" transform="translate(-196.092 -23.467)" fill="#1d3059"/>
        <path id="Path_29" data-name="Path 29" d="M462.841,290.889h2.681v16.833h-2.681Zm-.249-4.676c0-1.4.436-1.59,1.621-1.59,1.122,0,1.59.187,1.59,1.59,0,1.372-.468,1.59-1.59,1.59-1.185,0-1.621-.218-1.621-1.59" transform="translate(-219.284 -24.819)" fill="#1d3059"/>
        <path id="Path_30" data-name="Path 30" d="M503.073,307.318v11.628h-2.681V308.284c0-2.587-.717-4.084-3.242-4.084-1.964,0-3.647.561-4.364,2.961v11.783h-2.68V308.284c0-2.587-.624-4.084-3.087-4.084-2.088,0-3.616.467-4.457,3.055v11.69h-2.681V302.112h2.681v2.213c1.028-1.995,2.836-2.525,4.863-2.525,2.65,0,4.177,1.06,4.894,2.743,1-2.182,3.18-2.743,5.237-2.743,3.928,0,5.518,2.276,5.518,5.518" transform="translate(-230.581 -36.042)" fill="#1d3059"/>
        <path id="Path_31" data-name="Path 31" d="M570.1,310.373c0-3.211-.592-5.205-3.959-5.205-3.149,0-3.523,2.493-3.523,5.205,0,2.9.436,5.269,3.523,5.269,3.367,0,3.959-1.933,3.959-5.269m4.271-8.261v15.524c0,4.645-2.338,7.544-9.32,7.544a29.623,29.623,0,0,1-4.8-.405V321.19a20.738,20.738,0,0,0,4.457.5c3.647,0,5.175-1.029,5.175-4.239v-.9c-.686,1.5-2.057,2.4-5.081,2.4-5.455,0-6.827-3.429-6.827-8.573,0-4.613,1.372-8.572,6.827-8.572,3.055,0,4.426.9,5.081,2.462v-2.151Z" transform="translate(-281.607 -36.043)" fill="#e85227"/>
        <path id="Path_32" data-name="Path 32" d="M622.642,308.534c0-1.839-.436-3.335-3.086-3.335-2.805,0-3.679,1.185-3.8,3.865Zm3.959,2.993-10.848.686c.156,2.4,1.559,3.491,4.551,3.491a13.778,13.778,0,0,0,5.58-1.185v3.554a14.955,14.955,0,0,1-6.453,1.184c-5.143,0-8.2-1.9-8.2-8.729s3.055-8.728,8.323-8.728c5.86,0,7.2,3.055,7.2,7.387a18.694,18.694,0,0,1-.156,2.338" transform="translate(-316.404 -36.043)" fill="#e85227"/>
        <path id="Path_33" data-name="Path 33" d="M662.837,302.428V282.914h4.52v18.423c0,1.5.374,1.87,1.4,1.87a3.411,3.411,0,0,0,.9-.094v3.492a9.243,9.243,0,0,1-1.933.187c-3.741,0-4.894-1.372-4.894-4.364" transform="translate(-350.121 -23.702)" fill="#e85227"/>
        <path id="Path_34" data-name="Path 34" d="M689.546,318.6v-3.772a18.459,18.459,0,0,0,5.081.78c1.932,0,2.805-.343,2.805-1.683,0-1.372-.53-1.683-3.242-2.338-3.585-.872-4.458-1.933-4.458-4.769,0-3.18,1.839-5.019,6.733-5.019a16.79,16.79,0,0,1,4.615.561l-.188,3.46a17.013,17.013,0,0,0-4.271-.623c-2.057,0-2.649.405-2.649,1.559,0,1.06.467,1.216,3.117,1.9,3.678.935,4.645,2.027,4.645,5.144,0,3.959-2.525,5.33-6.858,5.33a24.888,24.888,0,0,1-5.33-.53" transform="translate(-367.572 -36.043)" fill="#e85227"/>
        <path id="Path_35" data-name="Path 35" d="M732.074,289.362h4.52v16.833h-4.52Zm-.249-4.738c0-2.12.5-2.338,2.525-2.338,2.057,0,2.525.218,2.525,2.338,0,2.15-.468,2.4-2.525,2.4-2.027,0-2.525-.25-2.525-2.4" transform="translate(-395.197 -23.292)" fill="#e85227"/>
        <path id="Path_36" data-name="Path 36" d="M769.332,307.443v11.5h-4.52V308.627c0-2.276-.53-3.149-2.743-3.149-1.87,0-3.086.592-3.585,2.306v11.16h-4.52V302.112h4.52v2.026c.9-1.59,2.837-2.338,5.268-2.338,4.177,0,5.58,1.932,5.58,5.643" transform="translate(-409.662 -36.042)" fill="#e85227"/>
    </g>
</svg>
