<svg fill="none" height="30" viewBox="0 0 110 30" width="110" xmlns="http://www.w3.org/2000/svg"><g clip-rule="evenodd" fill-rule="evenodd"><path d="m77.0498 13.9851c.0321-.2166.0882-.4332.1444-.6498.0641-.2086.1363-.4172.2166-.6257.0882-.2006.1845-.4011.2888-.6017.1042-.1925.2165-.385.3449-.5615l-.6578-.6257c-.2006-.2006-.3209-.4814-.3209-.7701 0-.29686.1203-.56961.3289-.77818.2006-.20857.4813-.32088.7701-.32088.2968 0 .5696.12033.7782.32088l.6177.62571c.1845-.13637.377-.2567.5775-.36099.1926-.1123.4011-.20857.6097-.29681s.4172-.16044.6337-.22461c.2166-.06418.4332-.11231.6578-.15242v-.8744c0-.29681.1204-.56956.3209-.77813.2086-.20857.4894-.32088.7782-.32088.2887 0 .5695.11231.7781.32088.2005.20857.3209.48132.3209.77813v.85033c.2166.04011.4412.09627.6578.16044.2166.06418.4251.13637.6337.22462.2086.08824.4091.1845.6097.29681.2005.11231.3931.23264.5776.36099l.5775-.58561c.2086-.20054.4894-.31285.7782-.31285s.5695.11231.7781.32088c.2006.20857.3129.48131.3129.77809 0 .2888-.1123.5696-.3209.7701l-.6177.6258c.1283.1764.2406.369.3449.5615.1043.2006.2006.4011.2808.6016.0802.2086.1524.4172.2166.6258.0642.2166.1123.4332.1524.6497h.6819c.2968 0 .5695.1124.7781.3209.2086.2086.3209.4813.3209.7782 0 .2887-.1123.5695-.3209.7701-.2086.2085-.4813.3208-.7781.3208h-.6899c-.0401.2247-.0963.4413-.1604.6578-.0642.2166-.1364.4332-.2247.6418-.0882.2086-.1845.4091-.2888.6097-.1123.1925-.2326.385-.3609.5695l.5214.5295c.2166.2005.353.4813.361.7861.008.2969-.1123.5856-.3209.8022-.2166.2086-.5054.3289-.8022.3209-.3048-.008-.5856-.1364-.7862-.361l-.5455-.5294c-.1764.1203-.369.2406-.5615.3449s-.3931.2006-.6016.2808c-.2006.0882-.4092.1604-.6258.2166-.2085.0642-.4251.1123-.6417.1524v.8022c0 .2968-.1203.5696-.3209.7781-.2086.2086-.4893.3209-.7781.3209s-.5696-.1123-.7782-.3209c-.2005-.2085-.3208-.4813-.3208-.7781v-.8503c-.2086-.0321-.4252-.0883-.6338-.1444-.2085-.0642-.4171-.1364-.6177-.2166-.2005-.0883-.4011-.1765-.5936-.2808s-.377-.2246-.5535-.3449l-.6177.6177c-.2086.2246-.4893.3529-.7861.3609-.3049.0081-.5937-.1042-.8103-.3208-.2085-.2086-.3208-.5054-.3208-.8022.008-.2968.1443-.5856.3609-.7862l.5856-.5856c-.1283-.1845-.2486-.377-.3609-.5776-.1123-.1925-.2086-.4011-.2969-.6096-.0882-.2086-.1604-.4172-.2246-.6338-.0641-.2166-.1203-.4412-.1604-.6578h-.8744c-.2888 0-.5696-.1203-.7701-.3209-.2086-.2085-.3209-.4893-.3209-.7781s.1123-.5695.3209-.7781c.2005-.2006.4813-.3209.7701-.3209h.9787z" fill="#fff"/><path d="m76.2396 15.6937c-.0883.0081-.1765 0-.2648-.024-.0802-.0321-.1604-.0722-.2326-.1284-.0642-.0642-.1203-.1283-.1604-.2086-.0482-.0802-.0722-.1684-.0803-.2567.0081-.0882.0321-.1764.0803-.2567.0401-.0802.0962-.1524.1604-.2085.0722-.0562.1524-.0963.2326-.1284.0883-.024.1765-.0321.2648-.024h1.3156c.024-.2648.0722-.5215.1363-.7782.0562-.2567.1444-.5134.2407-.754.0963-.2407.2166-.4814.3449-.706.1284-.2326.2808-.4492.4413-.6578l-.8664-.8664c-.0642-.0561-.1203-.1283-.1605-.2085-.0481-.0802-.0722-.1605-.0802-.2487s0-.1765.0241-.26473c.0241-.08825.0722-.16044.1203-.23264.0722-.05615.1524-.10429.2327-.12835.0882-.03209.1764-.04011.2647-.04011.0882.00802.1765.03209.2567.0722s.1524.08824.2086.16044l.8904.89039c.2086-.1684.4252-.3289.6578-.4652.2326-.1444.4733-.26476.714-.36904.2486-.10429.5053-.19253.7701-.2567.2567-.0722.5214-.12033.7941-.15242v-1.19528c0-.16846.0642-.3289.1765-.44121.1204-.12033.2728-.1845.4412-.1845.1605 0 .3209.06417.4412.1845.1123.11231.1765.27275.1765.44121v1.19528c.2728.03209.5455.08022.8102.14439.2648.06418.5295.15242.7782.25671.2567.10428.4973.23266.73.36896.2406.1444.4653.2969.6738.4733l.8263-.82622c.0561-.06417.1283-.12033.2086-.16044.0722-.04813.1604-.0722.2486-.08022.0883-.00802.1765 0 .2648.02407.0802.03209.1604.07219.2326.12835.0562.06417.0963.14439.1284.23266.024.0802.032.1765.024.2647s-.0321.1765-.0722.2487c-.0401.0802-.0962.1524-.1684.2086l-.8584.8262c.1604.2086.3129.4252.4492.6578.1284.2246.2487.4653.345.714.1043.2406.1845.4973.2487.754.0641.2567.1123.5134.1363.7782h1.083c.0963-.008.1845.008.2647.0321.0883.032.1685.0722.2327.1283.0722.0562.1283.1284.1684.2086s.0642.1604.0722.2487c-.008.0962-.0321.1764-.0722.2567-.0401.0802-.0962.1524-.1684.2085-.0642.0562-.1444.0963-.2327.1284-.0802.0241-.1684.0401-.2647.0321h-1.091c-.0321.2647-.0802.5294-.1444.7942-.0722.2567-.1604.5134-.2647.762-.1043.2487-.2246.4894-.369.722-.1364.2246-.2888.4493-.4653.6578l.8102.8102c.1444.1043.2327.2728.2407.4493.016.1845-.0481.361-.1765.4813-.1284.1283-.3048.1925-.4813.1845-.1765-.016-.345-.1043-.4492-.2487l-.8183-.8182c-.2086.1684-.4332.3128-.6578.4492-.2326.1364-.4653.2487-.7139.353-.2487.0962-.4974.1845-.7541.2487-.2567.0641-.5214.1123-.7862.1363v1.2033c0 .1685-.0641.3209-.1765.4412-.1203.1123-.2727.1845-.4412.1845-.1604 0-.3208-.0722-.4412-.1845-.1123-.1203-.1765-.2727-.1765-.4412v-1.2193c-.2647-.0241-.5214-.0722-.7701-.1364-.2567-.0642-.5053-.1444-.746-.2487-.2487-.0962-.4813-.2166-.7059-.3449-.2247-.1364-.4412-.2808-.6498-.4492l-.8744.8744c-.1123.1363-.2808.2246-.4573.2326s-.3449-.0562-.4733-.1845c-.1203-.1203-.1845-.2968-.1764-.4733.016-.1765.0962-.3369.2326-.4492l.8744-.8664c-.1765-.2086-.3289-.4252-.4733-.6578-.1364-.2327-.2567-.4733-.361-.722s-.1925-.4974-.2647-.7621c-.0642-.2567-.1123-.5214-.1444-.7942zm5.11-.9626c.008-.0642.024-.1203.0401-.1845.016-.0562.0321-.1123.0561-.1685.0241-.0561.0482-.1123.0802-.1684.0241-.0562.0562-.1043.0963-.1605l-1.3156-1.2995c-.1123.1363-.2166.2888-.3129.4412-.0882.1524-.1684.3209-.2406.4893-.0642.1685-.1203.3369-.1605.5134-.0481.1765-.0721.353-.0962.5375zm.7941-1.1953-.008-.008c-.008 0-.008 0-.016.008zm.1204-.0882c.0481-.0321.1043-.0562.1524-.0802.0561-.0161.1043-.0401.1604-.0562.0562-.016.1123-.0321.1605-.0481v-1.8531c-.1685.016-.345.0481-.5134.0963-.1685.0481-.337.1043-.4974.1764-.1604.0642-.3209.1525-.4653.2407-.1524.0963-.2968.1925-.4251.3048l1.2995 1.2996c.0401-.0321.0883-.0562.1284-.0802zm1.1792-.2166c.0802.008.1444.0241.2166.0401.0722.0241.1444.0481.2086.0722.0722.0321.1363.0642.2005.0963.0642.032.1203.0722.1845.1203l1.2835-1.2996c-.1524-.1283-.3048-.2487-.4733-.3449-.1684-.1043-.3369-.1925-.5214-.2647-.1765-.0722-.361-.1284-.5535-.1765-.1845-.0401-.377-.0722-.5696-.0883v1.8611zm1.3076.8503c.024.0482.0561.0963.0802.1524.0241.0482.0481.0963.0722.1525.016.0481.0401.1042.0562.1524.016.0561.024.1123.0401.1684h1.853c-.016-.1845-.0401-.361-.0802-.5294-.0401-.1765-.0962-.345-.1604-.5134-.0722-.1605-.1444-.3209-.2327-.4813-.0962-.1525-.1925-.2969-.3048-.4332l-1.3156 1.2995zm.2326 1.3798c-.016.0562-.024.1123-.0481.1685-.0161.0561-.0401.1123-.0562.1684-.024.0562-.0561.1043-.0802.1605-.0321.0481-.0642.1042-.0962.1524l1.3075 1.2995c.1204-.1363.2246-.2807.3129-.4331.0963-.1525.1765-.3129.2487-.4814.0641-.1604.1283-.3369.1684-.5054.0482-.1764.0803-.3529.0963-.5294zm-.7942 1.1552c-.0561.0401-.1123.0722-.1684.1042-.0642.0241-.1203.0562-.1845.0803-.0642.016-.1284.0401-.1845.0561-.0642.0161-.1364.0321-.2006.0401v1.8611c.1845-.016.369-.0481.5535-.0882s.361-.0963.5295-.1685c.1765-.0722.3449-.1524.5054-.2487.1604-.0882.3128-.2005.4572-.3128l-1.3076-1.3076zm-1.46.2486c-.0481-.008-.0962-.024-.1444-.0401-.0401-.016-.0882-.0321-.1363-.0481-.0401-.0241-.0883-.0401-.1284-.0642-.0481-.024-.0882-.0481-.1283-.0722l-1.3156 1.3076c.1363.1123.2727.2086.4171.2888.1444.0882.2968.1685.4573.2326.1604.0642.3208.1204.4813.1605.1684.0481.3369.0722.5054.0962v-1.837zm-1.0669-.7219c-.0401-.0562-.0722-.1043-.1043-.1605-.0321-.0561-.0561-.1123-.0882-.1684-.0241-.0562-.0481-.1204-.0642-.1765-.016-.0642-.0321-.1203-.0481-.1845h-1.8611c.0241.1845.0561.361.1043.5374.0401.1765.1043.353.1765.5215.0722.1684.1524.3289.2486.4893.0963.1524.2086.3049.3209.4412l1.3076-1.2995z" fill="#e43043"/><path d="m27.4419 18.1565c0 .5375.0722 1.1551.5695 1.1551.2567 0 .4412-.2406.4813-.5615h2.3425c-.0562.3289-.1685.6418-.3289.9306-.1685.2887-.3771.5455-.6338.762-.2487.2086-.5374.3771-.8503.4974-.3129.1123-.6418.1765-.9707.1765-1.5562 0-2.9841-1.1873-2.9841-3.4334 0-2.2462 1.2755-3.658 2.8478-3.658 1.7808 0 3.1446 1.5642 3.0243 4.1072zm10.9018-4.5806v-2.0857h2.1499v2.0777h-2.1178zm-.1283 7.3883v-6.7786h2.4306v6.7786h-2.4065zm-20.2154-9.6264h2.5991c2.3585 0 4.1634 1.4199 4.1634 4.9576 0 2.8558-1.468 4.6688-3.5296 4.6688h-3.2329zm2.551 7.2519h.1604c.8423 0 1.5001-.9466 1.5001-2.3023 0-1.3638-.5695-2.5992-1.5001-2.5992h-.1604zm37.2861 2.3745.0803-.8905h-.0562c-.4332.6418-.8343 1.0509-1.5081 1.0509-1.3477 0-2.0857-1.7969-2.0857-3.5136s.5775-3.5778 2.1499-3.5778c.1524 0 .2968.0321.4492.0722.1444.0481.2808.1123.4091.2005.1203.0803.2326.1845.3369.3049.0963.1123.1765.2406.2327.385h.0561l-.0722-.8102h2.5751v6.7786zm-1.2273-3.4174c0 .5375.2326 1.4119.6899 1.4119.4572 0 .5776-.9065.5776-1.436 0-.5294-.2407-1.2915-.6177-1.2915-.3771 0-.6258.8182-.6258 1.3156zm-9.3697-6.201h3.4976c.9466 0 2.8478.7621 2.8478 2.7596 0 .8423-.1364 1.3397-1.1712 1.9253.2246.0962.4252.2165.6097.377.1764.1524.3369.3369.4572.5375.1284.2005.2166.4251.2728.6578.0561.2326.0802.4652.0641.7059.0321.353-.008.7059-.1203 1.0348-.1203.337-.3048.6418-.5455.8905-.2487.2567-.5455.4492-.8744.5776-.3289.1283-.6819.1764-1.0268.1524h-4.011zm2.8157 3.6901c.3771 0 .7942-.0722.7942-.746 0-.6739-.4733-.6177-.8503-.6177h-.1765v1.3637zm-.2326 2.0296v1.6044h.2888c.4011 0 1.0268-.0321 1.0268-.8183 0-.7861-.6498-.7861-1.0589-.7861zm17.8248-5.6555h2.3986v5.2945l.1444.3449 1.091-2.8638h2.8398l-1.7809 3.0163 1.8531 3.7623h-2.912l-1.1552-3.4013v3.4013h-2.4788zm-3.9709 2.7756-.0962 1.091h.0561c.4733-.738.8263-1.2434 1.5964-1.2434 1.2274 0 1.7167 1.2675 1.7167 2.7595v4.1715h-2.4146v-3.3051c0-.3931-.008-.9546-.4091-.9546s-.4011.5615-.4011.9546v3.3051h-2.5911v-6.7786zm-18.6671 3.3853-.5134 1.2434v.0722l.4893-.0722h1.3718v2.1338h-5.2143v-.4572l1.9493-4.2196-.5454.0562h-1.1632v-2.1419h5.118v.3851zm-11.0222-2.2943h.0562c.4733-.738.8262-1.2434 1.6044-1.2434 1.2273 0 1.7086 1.2675 1.7086 2.7595v4.1715h-2.4066v-3.3051c0-.3931-.008-.9546-.4091-.9546s-.4011.5615-.4011.9546v3.3051h-2.3986v-6.7786h2.3665zm-5.3908 1.452c0-.4573-.2166-.8824-.5856-.8824-.361 0-.5455.4091-.5455.8824z" fill="#006bb1"/></g></svg>