<svg width="110" height="30" fill="none" xmlns="http://www.w3.org/2000/svg">
    <path d="M31.032 20.969c-3.911-2.466-6.321-6.655-5.505-11.567-2.818 4.449-2.28 10.399 1.594 14.255a11.475 11.475 0 0 0 4.671 2.836v-5.098c-.26-.148-.519-.296-.76-.426Z" fill="url(#a)"/>
    <path d="M34.369 12.108c3.447 2.892 8.582 2.428 11.492-1a11.178 11.178 0 0 0-1.835-3.004c-.648.538-1.427.946-2.243 1.131-2.91.686-5.82-1.112-6.506-4.004a5.106 5.106 0 0 1-.148-1.205 12.023 12.023 0 0 0-3.615.612 8.186 8.186 0 0 0 2.855 7.47Z" fill="url(#b)"/>
    <path d="M36.834 4.86c.13.538.39 1.057.741 1.502a3.77 3.77 0 0 0 5.302.593 11.332 11.332 0 0 0-6.117-2.818v.056c0 .24.037.463.074.667Z" fill="url(#c)"/>
    <path d="M31.773 19.504V15.52h1.632v4.838c1.093.463 2.261.742 3.448.834v-3.689h1.63v3.67c3.375-.277 6.433-2.094 8.231-4.967.056-1.13-.018-2.243-.278-3.337a9.75 9.75 0 0 1-4.597 2.503c-5.283 1.223-10.566-2.077-11.79-7.34a9.816 9.816 0 0 1-.24-2.652 12.697 12.697 0 0 0-2.466 1.798 10.794 10.794 0 0 0 4.43 12.327Z" fill="url(#d)"/>
    <path d="M38.465 22.804v3.744a11.577 11.577 0 0 0 7.675-7.377c-1.891 2.131-4.82 3.448-7.675 3.633Z" fill="url(#e)"/>
    <path d="M35.184 22.619a15.224 15.224 0 0 1-1.798-.5v4.763c1.13.185 2.299.185 3.448.037v-4.096a16.04 16.04 0 0 1-1.65-.204Z" fill="url(#f)"/>
    <path d="M45.88 11.07c.019.019.019.019 0 0ZM38.465 21.173V17.52h-1.63v3.67a10.11 10.11 0 0 1-3.449-.834v-4.82h-1.631v3.986a10.845 10.845 0 0 1-4.412-12.346l-.24.241a12.263 12.263 0 0 0-1.595 1.984c-.816 4.93 1.594 9.12 5.524 11.567.241.148.482.278.741.426v5.098a12.29 12.29 0 0 0 1.632.39v-4.765c.574.223 1.186.39 1.798.5a9.822 9.822 0 0 0 1.631.205v4.096a9.829 9.829 0 0 0 1.631-.352v-3.744c2.855-.186 5.765-1.502 7.656-3.615.315-.964.52-1.965.575-2.966a10.676 10.676 0 0 1-8.23 4.93Z" fill="#fff"/>
    <path d="M30.05 8.049c1.223 5.283 6.506 8.564 11.77 7.34a9.837 9.837 0 0 0 4.598-2.502 12.206 12.206 0 0 0-.575-1.761c-2.892 3.43-8.027 3.874-11.474.982a8.153 8.153 0 0 1-2.855-7.452c-.575.186-1.15.445-1.705.742-.038.89.055 1.78.24 2.65Z" fill="#fff"/>
    <path d="M41.783 9.235a5.152 5.152 0 0 0 2.243-1.13 11.687 11.687 0 0 0-.648-.705 5.485 5.485 0 0 0-.482-.445 3.77 3.77 0 0 1-5.302-.593 3.806 3.806 0 0 1-.741-1.502c-.056-.222-.075-.445-.093-.649v-.055a11.789 11.789 0 0 0-1.613-.111c0 .407.056.797.148 1.205.668 2.873 3.578 4.69 6.488 3.985Z" fill="#fff"/>
    <path d="M59.004 14.5H57.17v-2.985h-3.17v2.984h-1.854V6.955H54v2.929h3.17v-2.93h1.835V14.5ZM66.03 14.5h-1.798v-.445c-.464.407-1.038.611-1.761.611-.76 0-1.41-.278-1.947-.834-.537-.556-.797-1.279-.797-2.15s.26-1.576.797-2.15c.538-.557 1.187-.835 1.947-.835.704 0 1.297.204 1.76.612v-.445h1.799V14.5Zm-2.206-1.78c.278-.278.408-.63.408-1.057 0-.426-.13-.76-.408-1.038a1.304 1.304 0 0 0-.964-.408c-.39 0-.723.13-.983.408-.26.278-.389.63-.389 1.057 0 .426.13.778.39 1.056.259.279.574.408.982.408.37-.018.686-.148.964-.426ZM69.904 16.409h-1.947l.909-2.095-2.336-5.468h1.928l1.335 3.3 1.427-3.3h1.928l-3.244 7.563ZM79.395 14.5h-1.798v-.445c-.464.407-1.038.611-1.761.611-.76 0-1.41-.278-1.947-.834-.537-.556-.797-1.279-.797-2.15s.26-1.576.797-2.15c.538-.557 1.187-.835 1.947-.835.704 0 1.297.204 1.76.612v-.445h1.799V14.5Zm-2.206-1.78c.278-.278.408-.63.408-1.057 0-.426-.13-.76-.408-1.038a1.304 1.304 0 0 0-.964-.408c-.39 0-.723.13-.982.408-.26.278-.39.63-.39 1.057 0 .426.13.778.39 1.056.259.279.574.408.982.408.37-.018.686-.148.964-.426ZM84.66 14.24a3.242 3.242 0 0 1-1.54.408c-.704 0-1.26-.186-1.65-.575-.388-.39-.592-.945-.592-1.668v-2.132h-1.02V8.846h1.02V6.955h1.798v1.89h1.668v1.428h-1.668v1.946c0 .538.26.816.76.816.278 0 .556-.074.815-.222l.408 1.427ZM54 19.616h3.521v1.612H54v2.688h-1.854V16.39h5.821v1.631H54v1.595ZM60.506 15.908a.98.98 0 0 1 .296.723.912.912 0 0 1-.296.705 1.052 1.052 0 0 1-.742.278c-.296 0-.537-.093-.741-.278a.912.912 0 0 1-.297-.705.98.98 0 0 1 .297-.723.992.992 0 0 1 .741-.296c.297-.019.538.092.742.296Zm-1.65 8.008v-5.635h1.798v5.635h-1.798ZM66.808 18.763c.408.426.593 1 .593 1.705v3.467h-1.78v-3.077c0-.334-.092-.594-.277-.797a.9.9 0 0 0-.705-.316c-.37 0-.648.13-.852.39-.204.26-.316.648-.316 1.186v2.614h-1.797V18.28h1.797v.538c.445-.464 1.02-.705 1.724-.705.686 0 1.224.223 1.613.649ZM74.353 23.916h-1.798v-.445c-.464.408-1.039.612-1.761.612-.76 0-1.41-.278-1.947-.834-.537-.556-.797-1.28-.797-2.15 0-.872.26-1.576.797-2.15.538-.557 1.187-.835 1.947-.835.704 0 1.297.204 1.76.612v-.445h1.799v5.635Zm-2.225-1.76c.278-.279.408-.631.408-1.057 0-.427-.13-.76-.408-1.038a1.304 1.304 0 0 0-.964-.408c-.389 0-.723.13-.982.408-.26.277-.39.63-.39 1.056 0 .426.13.779.39 1.057.26.278.575.407.982.407.371-.018.705-.148.964-.426ZM80.544 18.763c.408.426.593 1 .593 1.705v3.467h-1.78v-3.077c0-.334-.092-.594-.277-.797a.9.9 0 0 0-.705-.316c-.37 0-.649.13-.853.39-.203.26-.315.648-.315 1.186v2.614H75.41V18.28h1.798v.538c.445-.464 1.02-.705 1.724-.705.686 0 1.205.223 1.613.649ZM83.51 22.1c.074.444.408.667 1 .667.223 0 .409-.037.538-.13.13-.093.204-.185.204-.315 0-.204-.185-.352-.556-.408l-1.149-.222c-1.094-.204-1.631-.742-1.631-1.631 0-.575.222-1.039.667-1.39.445-.353 1.038-.52 1.761-.52.686 0 1.26.148 1.706.445.444.297.74.686.852 1.186l-1.631.334a.704.704 0 0 0-.297-.463c-.166-.13-.389-.186-.648-.186-.223 0-.39.037-.482.13-.093.093-.149.185-.149.315 0 .204.149.334.427.39l1.334.277c.52.112.909.316 1.168.612.26.297.39.649.39 1.075 0 .612-.242 1.076-.705 1.41-.463.333-1.094.5-1.854.5-.704 0-1.316-.13-1.798-.408-.482-.278-.778-.686-.852-1.224l1.705-.445Z" fill="#223A84"/>
    <defs>
        <linearGradient id="a" x1="25.348" y1="22.63" x2="38.578" y2="3.827" gradientUnits="userSpaceOnUse">
            <stop stop-color="#3B3E90"/>
            <stop offset=".35" stop-color="#3B3E90"/>
            <stop offset=".54" stop-color="#1F6C78"/>
            <stop offset=".71" stop-color="#089165"/>
            <stop offset=".8" stop-color="#009F5E"/>
            <stop offset="1" stop-color="#009F5E"/>
        </linearGradient>
        <linearGradient id="b" x1="27.327" y1="24.024" x2="40.557" y2="5.221" gradientUnits="userSpaceOnUse">
            <stop stop-color="#3B3E90"/>
            <stop offset=".35" stop-color="#3B3E90"/>
            <stop offset=".54" stop-color="#1F6C78"/>
            <stop offset=".71" stop-color="#089165"/>
            <stop offset=".8" stop-color="#009F5E"/>
            <stop offset="1" stop-color="#009F5E"/>
        </linearGradient>
        <linearGradient id="c" x1="26.985" y1="23.783" x2="40.214" y2="4.98" gradientUnits="userSpaceOnUse">
            <stop stop-color="#3B3E90"/>
            <stop offset=".35" stop-color="#3B3E90"/>
            <stop offset=".54" stop-color="#1F6C78"/>
            <stop offset=".71" stop-color="#089165"/>
            <stop offset=".8" stop-color="#009F5E"/>
            <stop offset="1" stop-color="#009F5E"/>
        </linearGradient>
        <linearGradient id="d" x1="28.016" y1="24.508" x2="41.245" y2="5.706" gradientUnits="userSpaceOnUse">
            <stop stop-color="#3B3E90"/>
            <stop offset=".35" stop-color="#3B3E90"/>
            <stop offset=".54" stop-color="#1F6C78"/>
            <stop offset=".71" stop-color="#089165"/>
            <stop offset=".8" stop-color="#009F5E"/>
            <stop offset="1" stop-color="#009F5E"/>
        </linearGradient>
        <linearGradient id="e" x1="36.112" y1="30.204" x2="49.341" y2="11.402" gradientUnits="userSpaceOnUse">
            <stop stop-color="#3B3E90"/>
            <stop offset=".35" stop-color="#3B3E90"/>
            <stop offset=".54" stop-color="#1F6C78"/>
            <stop offset=".71" stop-color="#089165"/>
            <stop offset=".8" stop-color="#009F5E"/>
            <stop offset="1" stop-color="#009F5E"/>
        </linearGradient>
        <linearGradient id="f" x1="32.769" y1="27.852" x2="45.998" y2="9.05" gradientUnits="userSpaceOnUse">
            <stop stop-color="#3B3E90"/>
            <stop offset=".35" stop-color="#3B3E90"/>
            <stop offset=".54" stop-color="#1F6C78"/>
            <stop offset=".71" stop-color="#089165"/>
            <stop offset=".8" stop-color="#009F5E"/>
            <stop offset="1" stop-color="#009F5E"/>
        </linearGradient>
    </defs>
</svg>
