<svg height="30" viewBox="0 0 110 30" width="110" xmlns="http://www.w3.org/2000/svg"><g fill="#064a76"><path d="m84.23 10.24h1.77v1.44h-1.77z"/><path d="m53.22 19.19-.04-.32c-.09.09-.18.17-.28.24-.11.07-.22.13-.33.17-.12.05-.24.08-.36.09-.13.02-.25.02-.37 0-.19-.01-.36-.05-.52-.13-.17-.08-.31-.2-.43-.33-.11-.14-.2-.3-.25-.48-.06-.17-.07-.35-.05-.53v-1.16c.02-1.88 2.59-1.3 2.59-2.7 0-.29 0-.54-.36-.54s-.42.25-.42.54v.54h-1.82v-.54c0-1.22 1.04-1.79 2.23-1.79 1.51 0 2.2.85 2.2 1.77v5.17zm-.09-3.42c-.43.28-.74.42-.74.98v.84c0 .4.12.54.37.54.26 0 .37-.15.37-.54z" fill-rule="evenodd"/><path d="m60.33 17.38c0 1.08-.19 1.98-1.39 1.98-.12.02-.25.01-.37-.01-.13-.02-.25-.06-.36-.11-.12-.06-.23-.13-.32-.21-.1-.08-.18-.18-.25-.28v2.09h-1.76v-8.43h1.77v.69c.06-.14.14-.26.23-.37.1-.11.21-.21.34-.28s.26-.13.41-.16c.14-.03.29-.04.43-.02.97 0 1.29.92 1.29 1.8v3.31zm-1.89-3.18c0-.3-.17-.47-.4-.47-.24 0-.42.18-.42.51v3.21c0 .31.17.48.4.48s.42-.17.42-.49z" fill-rule="evenodd"/><path d="m61.18 12.42h1.76v6.79h-1.76z"/><path d="m67.28 19.2-1.16-3.14-.27.49v2.65h-1.99v-8.96h1.99v2.79l1.28-2.79h1.98l-1.83 3.77 1.99 5.19z"/><path d="m73.16 14.27c-.44-.17-1.62-.18-1.62.91v4.01h-1.78v-6.77h1.62v.73c.09-.16.2-.29.33-.41s.27-.22.43-.3.33-.14.5-.17.35-.04.52-.02z"/><path d="m75.92 19.37c-1.17 0-2.22-.56-2.22-1.9v-3.15c0-1.29.79-2.01 2.22-2.01 1.17 0 2.21.48 2.21 2.03v1.79h-2.59v1.62c0 .28.11.44.38.44.26 0 .38-.16.38-.44v-1.02h1.83v.77c0 1.35-.94 1.87-2.21 1.87zm.35-5.44c0-.28-.12-.43-.37-.43s-.38.15-.38.43v.93h.77z" fill-rule="evenodd"/><path d="m81.62 19.19v-.67c-.05.13-.12.26-.22.37-.09.12-.2.21-.32.29-.13.07-.27.13-.41.16-.14.02-.29.03-.43.01-1.08 0-1.31-.93-1.31-1.79v-3.29c0-1.08.26-2.02 1.35-2.02.13 0 .25.01.38.03s.25.06.36.11c.12.06.23.12.33.2s.19.17.27.27v-2.61h1.77v8.94zm0-5.05c0-.31-.17-.48-.42-.46-.06-.01-.12.01-.17.03-.06.03-.11.06-.14.11-.04.04-.07.1-.09.15-.02.06-.02.12-.01.18v3.24c0 .31.16.48.4.48.23 0 .41-.19.41-.49z" fill-rule="evenodd"/><path d="m84.23 12.43h1.77v6.79h-1.77z"/><path d="m49.3 15.33v3.88h-2.01v-3.88l-1.75-5.08h2.12l.64 2.5.64-2.5h2.12z"/></g><path d="m44.86 13.5c.1.31.17.63.21.96.04.32.05.65.02.98-.02.33-.08.65-.17.97-.09.31-.21.62-.36.91-.15.34-.35.65-.6.93-.24.28-.53.53-.84.72-.32.2-.66.35-1.02.45s-.73.15-1.1.14c-.29-.01-.59-.06-.86-.15-.28-.09-.55-.22-.79-.38-.24-.17-.46-.36-.65-.59-.19-.22-.34-.47-.46-.74-.11-.25-.17-.51-.2-.78-.02-.26-.01-.53.05-.8.05-.26.14-.51.27-.75.13-.23.29-.45.48-.64-.01.07-.01.15-.01.22s.01.14.02.21c.02.07.04.14.07.2.03.07.07.13.11.19.08.11.18.21.29.29.12.07.24.13.37.17.14.03.27.05.41.04.14-.02.27-.05.4-.11.1-.03.2-.09.29-.16s.16-.16.22-.26.1-.21.12-.32.02-.22 0-.34c-.01-.09-.04-.19-.08-.28s-.09-.17-.15-.25c-.07-.08-.14-.14-.22-.2s-.16-.11-.25-.14c-.16-.07-.33-.11-.5-.13s-.34 0-.51.03c-.17.04-.33.11-.48.2-.14.08-.28.2-.39.33-.98 1.1-1.1 2.76-1.57 4.03-.33 1.04-.85 1.94-2 2.2-.04.01-.07.01-.11.02-.03.01-.07.01-.1.02-.04 0-.07 0-.11.01-.04 0-.07 0-.11 0-.03 0-.07 0-.1 0-.04-.01-.08-.01-.11-.01-.04-.01-.07-.01-.11-.02-.03-.01-.07-.01-.1-.02-1.15-.26-1.67-1.16-2-2.2-.49-1.27-.59-2.95-1.57-4.03-.11-.14-.24-.25-.39-.34s-.31-.15-.48-.19-.34-.05-.51-.03-.34.06-.5.13c-.09.03-.18.08-.26.14s-.15.13-.21.2c-.06.08-.11.16-.15.25s-.07.19-.08.28c-.02.12-.02.23 0 .34.02.12.06.22.12.32.05.1.13.19.22.26s.19.13.3.16c.12.06.26.09.39.1.14.01.28 0 .41-.04.13-.03.26-.09.37-.17s.21-.18.29-.29c.04-.06.08-.12.11-.19.03-.06.05-.13.07-.2.01-.07.02-.14.02-.21.01-.07 0-.15-.01-.22.19.19.35.41.48.64.13.24.22.49.27.76.05.26.07.53.04.79-.03.27-.09.53-.2.78-.11.27-.27.52-.46.74-.18.23-.4.42-.64.59-.25.16-.51.29-.79.38s-.57.14-.86.15c-.37.01-.75-.04-1.1-.14-.36-.1-.71-.25-1.02-.45-.32-.19-.6-.44-.85-.72-.24-.28-.44-.59-.6-.93-.15-.29-.27-.6-.35-.91-.09-.32-.15-.64-.18-.97-.02-.33-.01-.66.03-.98.04-.33.11-.65.21-.96.18-.5.42-.96.74-1.38.31-.42.68-.79 1.11-1.1.42-.31.88-.55 1.38-.72.49-.17 1.01-.27 1.53-.29.4-.01.79.02 1.18.09.4.07.78.18 1.15.33.37.14.72.32 1.06.54.33.21.64.46.93.73.11.11.23.23.34.35s.22.24.32.37.2.26.29.39c.09.14.18.27.27.41.08-.14.17-.28.27-.41.09-.13.19-.26.29-.39s.21-.25.32-.37.23-.24.34-.35c.29-.27.6-.52.94-.74.33-.21.69-.39 1.06-.54.37-.14.75-.25 1.14-.32s.79-.1 1.19-.09c.52.02 1.04.12 1.53.29.5.17.96.41 1.38.72.43.31.8.68 1.11 1.1.32.42.57.89.74 1.38m-2.31 3.92c.23-.22.42-.47.58-.75.15-.28.26-.58.33-.89.07-.32.09-.64.07-.95-.02-.32-.09-.64-.21-.93-.12-.32-.29-.62-.5-.9-.21-.27-.46-.51-.74-.71s-.58-.36-.9-.48c-.33-.11-.67-.18-1.01-.2-.4-.02-.81.01-1.21.1-.39.1-.77.24-1.13.43s-.69.43-.98.71c-.3.28-.55.6-.76.94-.2.34-.57 1.21-.57 1.21h-1.96s-.36-.87-.54-1.21c-.21-.34-.46-.66-.75-.94-.3-.28-.63-.52-.99-.71-.35-.2-.74-.34-1.13-.43-.4-.09-.8-.13-1.21-.11-.34.02-.68.09-1 .21-.33.11-.63.27-.91.48-.28.2-.52.44-.73.71s-.38.57-.51.89c-.11.3-.18.61-.2.93-.03.31 0 .63.07.94s.18.61.34.89c.15.28.35.53.57.75.16.15.33.27.52.37s.4.17.6.21c.21.04.43.05.64.03s.42-.07.62-.15c.11-.05.21-.11.3-.18s.18-.15.25-.23c.08-.09.14-.19.2-.29.05-.1.1-.21.13-.32-.18.19-.41.34-.66.44s-.52.14-.78.13c-.27-.02-.53-.09-.77-.21-.24-.13-.45-.3-.61-.52 0 0-.96-.9-.42-2.62.1-.21.22-.41.36-.6.15-.18.32-.35.51-.49s.39-.26.61-.35c.22-.08.45-.15.68-.18.32-.06.64-.07.96-.04.32.04.63.12.93.24.3.13.57.29.82.5.25.2.47.44.65.71.97 1.53 1.08 3.24 1.83 4.95.02.06.06.12.1.17s.09.09.15.13c.06.03.12.06.18.08.07.01.13.02.2.02s.13-.01.2-.02c.06-.02.12-.04.18-.08.06-.03.11-.08.15-.13s.08-.11.1-.17c.72-1.69.84-3.4 1.83-4.93.18-.27.4-.51.64-.71.25-.2.53-.37.82-.5.3-.12.61-.2.93-.24.31-.03.64-.02.95.04.23.03.46.09.68.18s.42.21.61.35.36.3.51.49c.14.18.27.38.36.6.09.21.15.44.18.67.03.24.02.47-.01.7-.04.23-.11.46-.21.67s-.23.4-.38.58c-.17.21-.38.39-.61.51-.24.13-.5.2-.77.21-.27.02-.53-.02-.78-.12s-.48-.25-.66-.44c.03.11.07.22.13.32s.12.19.2.28.16.17.25.24c.1.07.2.13.3.18.2.08.41.13.62.15s.43.01.64-.03.41-.11.6-.21.36-.22.52-.37z" fill="#b9b9ba" fill-rule="evenodd"/></svg>