<svg width="110" height="30" fill="none" xmlns="http://www.w3.org/2000/svg">
    <path fill-rule="evenodd" clip-rule="evenodd" d="M75.783 18.839v1.536h4.977v-4.61h-3.062V14.23h3.062V9.614h-4.977v1.538h3.44v1.54h-3.067v4.61h3.068v1.537h-3.441Zm-8.848-3.84c0-4.665 3.778-8.453 8.439-8.453 4.659 0 8.438 3.788 8.438 8.453 0 4.667-3.779 8.453-8.438 8.453-4.66 0-8.439-3.786-8.439-8.453m-1.546 0C65.39 9.475 69.857 5 75.374 5c5.516 0 9.986 4.475 9.986 10 0 5.524-4.47 10-9.986 10-5.517 0-9.985-4.476-9.985-10m9.62-3.852V9.61h-4.984v4.612h3.054v1.538h-3.054v4.611h4.983v-1.537h-3.45V17.3h3.068v-4.615h-3.067v-1.536" fill="#CB0202"/>
    <path fill-rule="evenodd" clip-rule="evenodd" d="M41.774 15.854v-.025h3.704c.339 0 .826.054 1.216.31.363.242.55.598.55 1.059 0 .367-.1.654-.296.852-.363.366-.99.365-1.449.365h-3.738v-.023l.013-2.538Zm0-2.008V11.59h3.391c.596 0 1.596 0 1.596 1.188 0 .436-.187.744-.556.918-.333.157-.749.173-1.032.173h-3.399v-.024Zm3.842 6.562c1.285 0 2.255-.314 2.881-.934.644-.636.78-1.454.78-2.03 0-1.26-.525-2.135-1.558-2.601l-.046-.02.044-.022c.466-.247 1.083-.747 1.083-2.24 0-.82-.309-1.558-.87-2.08-.615-.574-1.512-.876-2.592-.876l-5.598-.004v10.804M25 20.409h2.132V9.606H25V20.41ZM28.864 14.914c0 1.045.175 1.907.535 2.636.302.607.726 1.119 1.338 1.611.954.766 2.296 1.154 3.99 1.154h2.919v-2.039h-2.757c-1.534 0-2.646-.383-3.305-1.14-.468-.537-.709-1.262-.715-2.154-.008-.956.259-1.717.791-2.259.667-.678 1.753-1.021 3.229-1.021h2.757V9.68h-2.817c-.949 0-1.744.096-2.433.29-.688.196-1.253.488-1.727.89-.674.575-1.805 1.863-1.805 4.054M50.563 14.914c0 1.043.18 1.963.535 2.732a4.702 4.702 0 0 0 1.338 1.706c.896.721 2.164 1.056 3.99 1.056h3.076V18.37h-2.914c-1.531 0-2.643-.4-3.306-1.189-.468-.555-.708-1.294-.714-2.198-.01-.983.267-1.767.818-2.327.67-.683 1.747-1.03 3.202-1.03h2.914v-2.02h-2.976c-.947 0-1.742.095-2.432.29-.688.196-1.253.486-1.725.889-.544.462-1.806 1.79-1.806 4.13" fill="#201E1D"/>
</svg>
