<svg width="110" height="30" fill="none" xmlns="http://www.w3.org/2000/svg">
    <path fill-rule="evenodd" clip-rule="evenodd" d="M53.97 10.329h1.232v3.15s-.115.839 1.194.839c.423 0 1.455.146 1.455-1.14v-2.857h1.24v3.127s.154 1.702-2.71 1.702c-.493 0-2.472-.108-2.472-1.602l.061-3.22ZM71.736 10.321v.855H69.14a1.381 1.381 0 0 0-.532.062c-.17.061-.33.154-.462.277-.138.123-.246.27-.315.439-.07.17-.108.346-.108.531 0 .223-.177 1.702 1.232 1.702h1.494v-1.078h-1.594v-.878h2.941v2.896h-2.595s-2.895.192-2.895-2.473a2.24 2.24 0 0 1 .639-1.67 2.3 2.3 0 0 1 .762-.501 2.12 2.12 0 0 1 .901-.154l3.127-.008ZM65.768 15.127h-1.44L62.98 13.24h-1.448v1.886h-1.24V10.33h3.258s1.894-.054 1.894 1.417c.008.17-.023.331-.077.485a1.3 1.3 0 0 1-.246.424c-.108.13-.239.23-.385.308-.139.077-.3.13-.462.146l1.494 2.018Zm-1.617-3.381c0-.293-.24-.57-.855-.57H61.54v1.178h1.756s.87.062.855-.608ZM78.666 15.127h-1.393l-.547-1.14h-2.541l-.532 1.14H72.29l2.472-4.798h1.34l2.564 4.797ZM76.264 13.1l-.84-1.763L74.6 13.1h1.664ZM79.098 10.329h1.594l2.372 3.35v-3.35h1.232v4.797h-1.371l-2.58-3.503v3.504h-1.232l-.015-4.798ZM51.868 12.685c.123.031.246.093.354.162.108.077.2.17.277.277a.97.97 0 0 1 .17.347c.038.123.054.254.046.385 0 1.378-1.925 1.278-1.925 1.278h-3.335v-4.797h3.589c.778 0 1.686.338 1.686 1.24a1.253 1.253 0 0 1-.246.7c-.077.1-.17.185-.277.254-.1.07-.216.123-.34.154Zm-1.255-.446s.724.046.739-.57c0-.254-.27-.493-.708-.493h-1.926v1.063h1.895Zm0 1.956s.724.069.739-.563c0-.254-.27-.492-.708-.492h-1.926v1.055h1.895ZM65.991 16.844v4.836h1.255v-2.372l2.303 2.372h1.625l-2.465-2.55 2.334-2.294h-1.517l-2.28 2.233v-2.225h-1.255ZM59.099 21.68h-1.402l-.562-1.148h-2.564l-.54 1.148H52.67l2.503-4.836h1.332l2.595 4.836Zm-2.41-2.04-.84-1.772-.84 1.771h1.68ZM59.538 16.844h1.617l2.395 3.38v-3.38h1.232v4.836h-1.355l-2.603-3.527v3.527h-1.232l-.054-4.836ZM51.783 19.208c.123.03.247.085.354.162a1.23 1.23 0 0 1 .462.624c.031.13.047.261.039.392 0 1.394-1.94 1.294-1.94 1.294h-3.366V16.85h3.62c.785 0 1.701.332 1.701 1.233 0 .13-.023.254-.069.377-.038.115-.1.23-.177.331-.077.1-.17.185-.277.262-.108.07-.224.123-.347.154Zm-1.263-.431s.732.038.732-.57c0-.254-.27-.493-.716-.493h-1.94v1.04h1.947l-.023.023Zm0 1.963s.732.047.732-.562c0-.254-.27-.493-.716-.493h-1.94v1.04h1.947l-.023.015Z" fill="#0070AF"/>
    <path d="m39.916 5.416 3.566 4.012.215.246c1.533 1.902-.254 6.338-4.043 10.296-3.796 3.966-8.3 6.176-10.334 4.42L25 20.948c.824.524 2.264.262 3.981-.616l.116-.054.061-.038c.54-.308 1.07-.632 1.594-.978a23.595 23.595 0 0 0 1.51-1.102c.493-.384.97-.793 1.424-1.216.462-.424.901-.863 1.325-1.317.439-.447.862-.909 1.27-1.386.401-.478.786-.97 1.156-1.479a26.08 26.08 0 0 0 1.032-1.563c.33-.531.631-1.078.916-1.64 0-.008.008-.008.008-.016.007-.007.007-.015.007-.023.008 0 .008-.007.008-.015.008-.008.008-.016.008-.016 0-.007.03-.069.046-.107.793-1.725.978-3.142.454-3.966Z" fill="#0099D8"/>
    <path d="M40.44 21.418c-.986 1.04-1.263 2.38-.616 2.995.647.617 1.979.278 2.972-.754.994-1.04 1.271-2.38.617-3.003-.655-.616-2.01-.278-2.973.762Z" fill="#F79239"/>
    <path d="M38.838 5.424c-1.486-1.425-5.899.862-9.95 5.09-.3.308-.584.654-.862 1l3.65 3.374c.293-.354.524-.624.855-.955 1.956-2.04 3.997-3.635 5.86-4.266.917-1.941 1.233-3.504.447-4.243Z" fill="#0070AF"/>
</svg>
