<svg fill="none" height="30" viewBox="0 0 110 30" width="110" xmlns="http://www.w3.org/2000/svg"><g fill="#8b063f"><path d="m23.0524 5.90976h.9092.8443l.5196 1.16901c.1948.64944.9092 2.40295 1.4937 3.89673.6495 1.5586 1.1041 2.7926 1.1041 2.8575 0 0-.3897 0-.8443 0h-.8443l-.2598-.6494c-.1299-.3897-.5845-1.6236-1.104-2.7277-.4547-1.16901-.8443-2.14318-.9093-2.14318 0-.06495-.4546.77934-.8443 1.88338l-.8442 1.9484h1.3638 1.3638l-.0649.2597c0 .1299-.1948.5196-.3247.8443l-.2598.5845h-2.1432c-1.4288 0-2.2081 0-2.2081-.0649 0-.065.3897-1.1041.8443-2.2081.4546-1.169 1.169-2.92256 1.5587-3.89673z"/><path d="m28.5727 5.90976h.7793.7794v3.96163 3.96161h-.7794-.7793v-3.96161z"/><path d="m62.9285 6.81899c0 .5845-.3247.90922-.8443.90922-.8443 0-1.2339-1.03911-.5845-1.55867.5845-.51956 1.4288-.12989 1.4288.64945z"/><path d="m66.1757 5.90976c.9093 0 .9093.06495.9093.77934v.64945l-.4546-.06495c-.6495 0-.7144.12989-.7794.71439l-.0649.51956h.6494.6495v.71439.64945h-.6495-.6494v2.01331 2.0133l-.7794-.065h-.7793l-.0649-2.0133v-1.94831h-.3248-.3247v-.64945c0-.71439 0-.71439.3247-.71439.2598 0 .3248-.06494.3897-.32472 0-.19484.0649-.45462.0649-.64945 0-.51956.3248-1.10406.8443-1.36384.3247-.12989.7144-.25978 1.0391-.25978z"/><path d="m69.7477 5.90976c.1948 0 .1948 1.03912.1948 8.50774 0 7.5336 0 8.5727-.1948 8.5727-.1299 0-.1299-1.0391-.1299-8.5727 0-7.46862 0-8.50774.1299-8.50774z"/><path d="m86.0489 6.16954.3896.12989-.6494.12989c-.3897.06494-.9093.25978-1.169.32472-1.6237.77934-2.6628 2.66274-2.338 4.41626.2597 1.7535 1.6236 3.1173 3.442 3.4421l.7144.1948-.6494.1948c-.4546.1299-.8443.1299-1.5587.1299-.8443-.0649-1.1041-.1299-1.7535-.4546-2.9225-1.4288-3.572-5.13063-1.2989-7.33875.6494-.64945 1.2339-1.03912 2.0782-1.23395.5845-.19484 2.2731-.12989 2.7927.06494z"/><path d="m33.1838 7.66327v.84428h.7144l.6494.06495v.64944.58451l-.6494.06494h-.7144v1.16901c0 1.0391 0 1.169.1948 1.3638.1949.1949.4546.1949.9742.065.1299-.065.1948.0649.1948.5845v.6494l-.5195.1299c-.6495.1732-1.2123.1083-1.6886-.1948-.5845-.3247-.7144-.7144-.7793-2.338l-.065-1.42881h-.3247-.3897v-.64945-.71439h.3897.3897v-.71439-.64945l.5845-.12989c1.104-.19483 1.0391-.25978 1.0391.64945z"/><path d="m59.2266 7.66327v.84428h.7144.7144v.71439.64945h-.7144-.7144v1.03911c0 .5196.065 1.1041.1299 1.2989.1299.3247.5196.4546.9742.2598l.3247-.1299v.6494c0 .7794-.1299.9093-1.169.9093-.7144 0-1.0391-.1299-1.4937-.7144-.1948-.2598-.1948-.5196-.2598-1.8185v-1.49371h-.4546l-.3897-.06494v-.58451-.64944l.4547-.06495h.3896v-.71439-.64945l.5196-.12989c1.0391-.19483.9741-.25978.9741.64945z"/><path clip-rule="evenodd" d="m40.2628 10.1961c.0649.3247.1299.7794.0649.9742v.3897l-1.7535.0649-1.8184.0649.2597.3248c.3897.7144 1.5587.8443 2.5978.3247l.4546-.1948v.6494c0 .8443-.0649.8443-1.2339 1.0391-2.338.4546-4.0915-1.169-3.572-3.2472.1949-1.03913.7794-1.68858 1.8185-2.0133 1.3638-.51956 2.8575.32472 3.1823 1.6236zm-2.338-.51954c-.5196 0-.7794.12989-.9742.51954l-.1948.3247h1.0391c1.169 0 1.2989-.0649.7793-.58446-.1948-.19484-.3897-.25978-.6494-.25978z" fill-rule="evenodd"/><path d="m44.1595 8.37766h.4546v.71439.77934h-.5845c-.6495-.06494-1.0391.12991-1.2989.58451-.1299.1948-.1949.5845-.1949 1.8184v1.6237l-.7793-.065h-.7793v-2.4679-2.46788l.5195-.12989c.9092-.19483 1.0391-.19483 1.0391.06495v.25977l.2598-.25977c.1299-.12989.3897-.25978.5845-.32473.1949-.06494.5196-.12989.7794-.12989z"/><path d="m49.5499 8.70239c.1299.12989.3896.32472.4546.5845.1948.32472.2598.51956.2598 2.40291v2.1432h-.7794-.7793l-.065-1.8184c0-1.234-.0649-1.8185-.1948-1.9484-.1948-.25975-.7144-.3247-1.104-.12986-.4547.25976-.5196.71436-.5196 2.46786v1.4288h-.7793-.7794v-2.4679-2.53282l.7794-.12989.7144-.12989.0649.19483c0 .25978 0 .25978.1948.12989.1299-.12989.3897-.25978.6495-.32472.5195-.25978 1.4937-.12989 1.8834.12989z"/><path clip-rule="evenodd" d="m54.4857 8.5725c.3896.08659.7793.10824 1.169.06494l.6494-.06494v2.5978l-.0649 2.6627h-.7144c-.6495 0-.7793 0-.7793-.1299 0-.1948 0-.1948-.3897 0-.5196.2598-1.4937.2598-2.0133-.0649-.9742-.4546-1.3638-1.169-1.3638-2.403 0-1.29886.6494-2.33798 1.8184-2.6627.6495-.19484 1.0391-.19484 1.6886 0zm-1.2989 1.36384c-.7794.38966-.8443 1.75346-.1949 2.40296.1949.1948.3897.2598.7794.2598.8443 0 .9092-.065.9092-1.4938 0-.9741-.0649-1.23391-.1948-1.23391-.2598-.12989-1.0391-.06494-1.2989.06495z" fill-rule="evenodd"/><path d="m61.3049 8.50755h.7793.7794v2.66275 2.6627h-.7794-.7793v-2.6627z"/><path d="m78.6451 9.93634.5196.19486-.6494.1299c-1.3639.1299-2.7277 1.104-3.3122 2.4029-.2598.5196-.3248.7144-.3248 1.7535s.065 1.169.3248 1.6886c.3896.7793.7144 1.169 1.4288 1.6236.5195.3897 1.169.6495 1.9483.7794l.4546.0649-.4546.1948c-2.0782.7144-4.676-.3247-5.7151-2.338-.9093-1.8834-.5196-3.8967.9092-5.3255.7144-.7143 1.4288-1.104 2.4029-1.29885.7144-.12989 1.6886-.06495 2.4679.12989z"/><path d="m85.7891 9.80645c1.3638.25975 2.7926 1.23395 3.3771 2.46795 1.2339 2.4679.0649 5.4553-2.5329 6.4295-.7793.3247-2.5328.3247-3.2472.0649l-.3897-.1299.7144-.1298c2.9875-.6495 4.4812-3.7668 2.8576-6.3646-.5845-.9742-1.8834-1.7535-3.0524-1.8834-.7144-.065-.6495-.1949.3897-.45465.8442-.12989 1.104-.12989 1.8834 0z"/><path d="m82.4119 17.6648c.3248 1.8184-.7793 3.8967-2.5328 4.7409-1.1041.5845-2.338.7144-3.572.3248l-.4546-.1299.8443-.1949c1.4937-.4546 2.5978-1.4937 2.9875-2.7926.2597-.9092.1948-2.2731-.1949-3.1173-.5195-1.1041-1.8184-2.1432-2.9225-2.3381-.5196-.1298-.3897-.2597.2598-.3896 2.5978-.5196 5.1306 1.2339 5.5852 3.8967z"/><path clip-rule="evenodd" d="m45.1986 14.9371c1.4937.0649 2.0133.1299 2.338.2598.8443.3247 1.169.8442 1.169 1.7535 0 .7793-.1948 1.2339-.6495 1.5586l-.3896.2598.4546.1949c.8443.4546 1.169 1.6885.6494 2.7276-.1948.3897-.3896.5196-.9092.7794-.6494.3247-.7144.3247-2.7277.3896h-2.0133v-3.8966c0-2.1432 0-3.8967.065-3.9617.0649-.0649.9742-.0649 2.0133-.0649zm.4546 1.3638c-.3897 0-.7144.065-.7144.065v.8443.7793h.7793c.6495.0649.7794 0 .9742-.1299.3247-.3247.3247-.9092-.0649-1.2339-.1949-.2598-.3248-.3248-.9742-.3248zm.0649 3.1174h-.7793v2.0782h.8443c.7793 0 .9092-.0649 1.104-.2598.4547-.5195.3897-1.3638-.1948-1.6885-.0649-.065-.5196-.1299-.9742-.1299z" fill-rule="evenodd"/><path d="m62.7337 14.9371c.0649 0 .1299.5845.1299 2.2731l.0649 2.273.9742-1.104.9741-1.1041h.9093.9092l-.9742 1.0391c-.6494.5845-1.0391 1.0391-.9741 1.169 0 .065.5195.8443 1.0391 1.6886.5195.8443.9741 1.6236.9741 1.6236 0 .0649-.3896.0649-.8442.0649h-.8443l-.7794-1.169-.7143-1.2339-.3897.3897c-.3247.3247-.3247.3896-.3247 1.169v.8442h-.7794-.7793v-3.8317-3.7668l.3247-.0649c.1299-.065.4546-.1299.6495-.1299.1298-.065.3896-.1299.4546-.1299z"/><path clip-rule="evenodd" d="m53.5115 17.5998c.2598.1299.5196.1299.9092.065l.5845-.1299v5.3254h-.7793c-.5845 0-.7793 0-.7793-.1298 0-.1299-.065-.1299-.4546 0-1.5587.7793-3.3122-.5196-3.3122-2.403 0-1.3638.6494-2.338 1.8834-2.7926.4546-.1299 1.3638-.1299 1.9483.0649zm-.9092 1.169c-.7144 0-1.169.3897-1.2989 1.0391-.2598 1.1691.5845 2.0783 1.6886 1.7536l.3896-.1299.065-1.169c0-1.0392 0-1.234-.1949-1.2989-.0649-.1299-.3896-.1949-.6494-.1949z" fill-rule="evenodd"/><path d="m59.941 17.7947c.5845.3896.7144.9741.7144 3.2472v1.8184h-.7793-.8443v-1.6885c0-1.1257-.0433-1.7752-.1299-1.9484-.1948-.3896-.6494-.4546-1.104-.2597-.5196.1948-.6495.5845-.6495 2.4029v1.4937h-.7144-.7793v-2.4679-2.5328l.7793-.1299.7144-.1948v.2598c0 .2597.065.2597.1949.1298.1298-.1298.3896-.2597.5845-.3896.5845-.1949 1.5586-.1299 2.0132.2598z"/></g></svg>