<svg height="30" viewBox="0 0 110 30" width="110" xmlns="http://www.w3.org/2000/svg"><path d="m26.25 9.24v4.9c0 .06 0 .12-.01.18s-.03.11-.06.17c-.02.05-.05.1-.09.14-.04.05-.08.09-.13.13.04.02.08.05.11.09.04.03.07.07.09.11.02.05.04.09.06.13.02.05.03.1.03.15v4.47l-1.48 1.15-1.11.88-.76.56v-2.66l.38-.29v-1.24l-.38.3v-2.66l.38-.29v-1.24l-.38.3v-2.66l.76-.59 1.09-.88zm-.54 7.39c0-.2-.2-.24-.39-.09l-.57.44-.95.73v1.26l.94-.77.67-.52c.2-.16.3-.26.3-.5zm0-3.92c0-.21-.2-.24-.39-.09l-.57.44-.95.74v1.24l.94-.74.67-.52c.2-.16.3-.26.3-.5z" fill="#ec1c24" fill-rule="evenodd"/><path d="m24.37 9.91v-.95l-.73.58-.22.17v-.99l.22-.18.73-.59v-.95l-.73.59-.74.59v2.91l.74-.59z" fill="#ec1c24"/><path d="m20.86 7v.95l.47.39v1.04l-.18-.15v.96l.44.36.45.36v-.95l-.19-.15v-1.05l.48.38v-.96l-.74-.59z" fill="#ec1c24"/><path d="m19 9.24v2.66l2.59 2.04.31.24-.31.32-.38.37-2.21-1.73v2.67l.71.54-.71.69v2.67l2.59 2.03.74.58v-2.66l-.74-.59-2.16-1.69.7-.69 1.46 1.15.74.58v-2.67l-.7-.55.7-.68v-2.66l-.74-.59z" fill="#ec1c24"/><g fill="#231f20"><path d="m30.45 10.54-.38 1.37h3.36l-3.68 6.03v1.31h5.15l.53-1.31h-3.68l3.69-6.05v-1.35z"/><path d="m36.77 12.41c.34 0 .65-.21.78-.53.14-.32.06-.68-.18-.93-.24-.24-.61-.31-.93-.18s-.52.44-.52.79c0 .11.02.22.06.32.04.11.11.2.19.28.07.08.17.14.27.18.1.05.22.07.33.07z"/><path d="m36.1 12.89h1.37v6.35h-1.37z"/><path d="m89.98 12.89h1.02v6.35h-1.02z"/><path d="m38.68 19.23v-6.31h1.13v.73c.07-.06.14-.13.21-.19.07-.05.15-.11.23-.15.07-.05.16-.1.24-.13.09-.04.17-.07.26-.1.09-.02.17-.03.26-.04.08-.01.17-.02.25-.02.09 0 .18.01.26.02.09.01.17.02.26.04v1.22h-.9c-.36 0-1.02.49-1.02.96v3.99z"/><path d="m45.08 19.21v-.3h-.24c-.09.07-.19.13-.3.19-.11.05-.22.09-.33.13s-.23.06-.34.08c-.12.02-.24.02-.36.02-.78 0-2.04-.26-2.04-1.69-.02-.24.01-.49.07-.72.07-.24.18-.46.32-.66.15-.2.33-.37.53-.5.2-.14.43-.24.67-.29.16-.04.31-.07.47-.1s.32-.05.48-.07.32-.03.48-.03c.16-.01.32-.01.49 0v-.61c-.01-.11-.04-.21-.09-.3-.04-.1-.11-.18-.19-.25s-.17-.12-.27-.15c-.1-.04-.2-.05-.31-.04-.14.01-.28.02-.42.04s-.28.04-.42.06c-.14.03-.28.06-.42.09s-.28.07-.41.11l.31-1.28c.14-.03.28-.06.42-.09.14-.02.28-.05.43-.06.14-.02.28-.04.42-.05.15-.01.29-.02.43-.02.83 0 1.94.47 1.94 2.17v4.38zm-.14-2.93h-1.04c-.14.01-.28.04-.42.1-.13.06-.25.15-.35.25-.1.11-.18.23-.23.37-.06.13-.09.28-.09.42.01.13.04.25.09.37.06.11.13.22.23.3.09.08.21.14.33.18s.25.05.37.04c.76 0 1.11-.42 1.11-.67z" fill-rule="evenodd"/><path d="m50.44 19.21v-.3h-.24c-.1.07-.2.13-.31.19-.1.05-.21.09-.32.13-.12.04-.23.06-.35.08s-.23.02-.35.02c-.79 0-2.05-.26-2.05-1.69-.01-.24.01-.49.08-.73.07-.23.18-.46.32-.65.15-.2.33-.37.54-.51.21-.13.43-.23.67-.28.16-.04.32-.07.48-.1s.32-.05.48-.07.32-.03.48-.03c.16-.01.32-.01.48 0v-.61c-.01-.11-.04-.21-.08-.3-.05-.1-.11-.18-.19-.25s-.17-.12-.27-.15c-.1-.04-.21-.05-.31-.04-.14.01-.28.02-.43.04-.14.02-.28.04-.42.06-.14.03-.28.06-.41.09-.14.03-.28.07-.42.11l.32-1.28c.13-.03.28-.06.42-.09.14-.02.28-.05.42-.06.14-.02.29-.04.43-.05s.28-.02.43-.02c.83 0 1.93.47 1.93 2.17v4.38zm-.12-2.93h-1.04c-.15.01-.29.04-.42.1s-.25.15-.35.25c-.1.11-.18.23-.24.37-.05.13-.08.28-.08.42 0 .13.03.25.09.37.05.11.13.22.22.3.1.08.21.14.33.18s.25.05.38.04c.75 0 1.11-.42 1.11-.67z" fill-rule="evenodd"/><path d="m52.88 11.24h1.33v1.7h1.51l-.35.98h-1.15v3.64c0 .47.08.74.53.74h.79v.93h-1.4c-.17 0-.34-.02-.5-.08s-.3-.15-.43-.26c-.12-.11-.22-.25-.29-.41-.07-.15-.11-.32-.12-.48v-4.11h-.66v-.97h.66z"/><path d="m63.19 12.56c-.02.2-.06.4-.12.6-.06.19-.15.38-.25.55-.1.18-.22.34-.36.49s-.29.29-.46.4c.23.08.44.18.64.32.19.14.36.31.5.51.14.19.25.4.32.63.07.22.11.46.11.7 0 .29-.04.57-.14.84-.09.28-.23.53-.41.75s-.4.41-.65.56c-.24.15-.52.25-.8.3h-3.71v-8.64h2.73c1.32 0 2.61.76 2.61 1.99m-4.22 5.68h1.93c.19.02.39.01.58-.05.2-.06.37-.16.52-.29.15-.12.28-.28.36-.46.09-.18.14-.38.15-.58.02-.19 0-.39-.06-.58s-.15-.37-.28-.52c-.13-.16-.28-.28-.46-.38-.18-.09-.37-.14-.57-.16h-2.17zm3.02-5.89c-.08-.17-.19-.32-.33-.45-.13-.12-.29-.22-.47-.28-.17-.06-.36-.08-.54-.07h-1.65v2.66h1.78c.17 0 .34-.03.51-.1.16-.07.3-.17.43-.29.12-.12.22-.27.29-.43.06-.16.1-.34.1-.51-.01-.18-.05-.37-.12-.53z" fill-rule="evenodd"/><path d="m67.65 19.34v-.49c-.11.07-.23.14-.35.19-.13.06-.25.11-.38.15s-.26.08-.39.1c-.14.03-.27.04-.41.05-.8 0-2.22-.32-2.22-1.87-.01-.29.04-.59.14-.86.11-.27.27-.52.48-.73.21-.2.46-.37.73-.47.27-.11.57-.15.86-.14h1.46v-.84c0-.42-.5-.96-1.43-.78-.14.02-.28.05-.41.08-.13.04-.27.08-.4.12-.13.05-.26.1-.39.15-.13.06-.25.11-.37.18l.11-.96c.16-.07.32-.13.48-.19.16-.05.33-.1.49-.14.17-.04.34-.07.51-.09.17-.03.34-.04.51-.05.25-.01.5.03.73.12.24.09.45.23.63.4s.32.38.42.61.15.47.15.72v4.77zm-.09-3.39h-1.04c-.2-.03-.41-.02-.6.04-.2.05-.38.15-.54.28s-.28.3-.37.48c-.09.19-.14.39-.14.59 0 .56.03 1.29 1.19 1.29.21 0 .42-.04.62-.12.19-.08.37-.21.51-.36.14-.16.25-.34.31-.55.07-.2.09-.41.06-.62z" fill-rule="evenodd"/><path d="m83.38 19.34v-.49c-.11.07-.23.14-.35.19-.12.06-.25.11-.38.15-.12.04-.26.08-.39.1-.13.03-.26.04-.4.05-.8 0-2.22-.32-2.22-1.87-.01-.29.03-.58.14-.86.11-.27.27-.52.48-.72.2-.21.45-.37.72-.48.28-.11.57-.15.86-.14h1.46v-.84c0-.42-.5-.96-1.43-.78-.14.02-.27.05-.41.08-.13.04-.26.08-.39.12-.14.05-.26.1-.39.15-.13.06-.25.11-.38.18l.11-.96c.16-.07.32-.13.48-.19.16-.05.33-.1.5-.14.16-.04.33-.07.5-.09.17-.03.34-.04.52-.05.24-.01.49.03.73.12.23.09.44.23.62.4s.32.38.42.61.15.47.15.72v4.77zm-.09-3.39h-1.04c-.21-.03-.41-.02-.61.04-.19.05-.38.15-.53.28-.16.14-.28.3-.37.48-.09.19-.13.39-.14.59 0 .56.04 1.29 1.19 1.29.21.01.42-.03.62-.12.19-.08.37-.2.51-.36s.25-.34.31-.55c.07-.2.09-.41.06-.62z" fill-rule="evenodd"/><path d="m69.24 19.27h1.09v-4.35c0-.4.73-1.02 1.57-1.02.83 0 .85.54.85.85v4.52h1.14v-4.92c-.03-.22-.1-.43-.2-.63-.1-.19-.24-.37-.4-.51-.17-.15-.35-.27-.56-.35-.2-.09-.42-.13-.64-.14-.17 0-.34.02-.51.05-.17.04-.33.09-.49.16s-.31.16-.45.26c-.13.1-.26.22-.37.35v-.84l-1.03.21z"/><path d="m74.6 10.58h1.21v4.66h.24l2.09-2.65h1.54l-2.72 2.98 3 3.62h-1.66l-2.25-3.3h-.26v3.36h-1.2z"/><path d="m88.78 14.02.23-.76c-.14-.07-.28-.13-.43-.19-.15-.05-.3-.1-.45-.14s-.3-.07-.46-.09-.31-.03-.47-.03c-.24-.02-.48.01-.72.08-.23.08-.44.2-.63.35-.18.16-.33.35-.45.57-.11.22-.17.45-.19.69 0 1.07.66 1.73 1.8 2s1.33.62 1.33.95-.33.93-1.33.93c-.15 0-.3-.01-.45-.04-.15-.02-.29-.05-.44-.09-.14-.05-.28-.1-.42-.16-.13-.06-.27-.13-.39-.21l-.32.85c.16.09.33.17.5.23.18.07.36.13.54.18.18.04.36.08.55.1.18.03.37.04.56.04.27 0 .54-.05.79-.14.26-.1.49-.25.7-.43.2-.18.36-.4.49-.65.12-.24.19-.5.22-.78 0-.93-1.01-1.58-1.87-1.75-.86-.18-1.23-.53-1.23-1.06s.62-.77 1.18-.77c.12.01.23.02.34.04.12.01.23.03.34.06s.22.06.33.09c.11.04.22.08.32.12"/></g></svg>