<svg height="30" viewBox="0 0 110 30" width="110" xmlns="http://www.w3.org/2000/svg"><path d="m15.22 15.16c.14-.79.35-1.57.64-2.32.28-.75.63-1.47 1.05-2.16s.89-1.34 1.43-1.93c.53-.6 1.12-1.15 1.76-1.65.49-.63 1.04-1.22 1.63-1.75.6-.54 1.25-1.02 1.94-1.44.68-.41 1.4-.77 2.16-1.05.75-.29 1.52-.5 2.31-.64-.19-.04-.39-.07-.58-.1-.2-.02-.39-.05-.59-.06-.19-.02-.39-.04-.59-.05-.19 0-.39-.01-.59-.01-.72 0-1.44.06-2.15.18-.71.11-1.41.29-2.1.53-.68.23-1.34.52-1.98.86-.63.35-1.23.74-1.8 1.19-.45.57-.84 1.17-1.19 1.81-.34.64-.63 1.3-.86 1.98-.24.69-.42 1.39-.53 2.1-.12.71-.18 1.44-.18 2.16 0 .2.01.39.01.59.01.2.03.39.05.59.01.19.04.39.06.58.03.2.06.39.1.59" fill="#f89c1c"/><path d="m28.15 28.1c-.79-.14-1.57-.36-2.32-.64-.75-.29-1.47-.64-2.16-1.06-.68-.42-1.33-.9-1.93-1.43-.6-.54-1.14-1.13-1.64-1.76-.63-.49-1.22-1.04-1.76-1.64-.53-.6-1.01-1.25-1.43-1.93-.41-.69-.77-1.41-1.05-2.16-.29-.76-.5-1.53-.64-2.32-.04.19-.07.39-.1.58-.02.2-.05.39-.06.59-.02.19-.04.39-.04.59-.01.19-.02.39-.02.59 0 .72.06 1.44.18 2.15.11.72.29 1.42.53 2.1.23.69.52 1.35.86 1.98.35.64.74 1.25 1.19 1.82.57.44 1.17.84 1.81 1.18.63.34 1.29.63 1.98.87.68.23 1.38.41 2.09.53.72.12 1.44.18 2.16.17.2 0 .39 0 .59-.01s.39-.02.59-.04.39-.04.59-.07c.19-.03.39-.06.58-.09" fill="#00adee"/><path d="m20.1 7.1c-.64.5-1.23 1.05-1.76 1.65-.54.59-1.01 1.24-1.43 1.93s-.77 1.41-1.05 2.16c-.29.75-.5 1.53-.64 2.32.14.79.35 1.56.64 2.32.28.75.64 1.47 1.05 2.16.42.68.9 1.33 1.43 1.93.54.6 1.13 1.15 1.76 1.64-.88-1.15-1.57-2.43-2.04-3.8s-.71-2.81-.71-4.25c0-1.45.24-2.89.71-4.26s1.16-2.65 2.04-3.8" fill="#c6e9fa"/><path d="m28.14 2.22c.79.14 1.57.35 2.32.64.75.28 1.47.64 2.16 1.05.68.42 1.33.9 1.93 1.43.6.54 1.14 1.13 1.64 1.76.63.5 1.22 1.04 1.76 1.64.53.6 1.01 1.25 1.43 1.94.41.68.77 1.41 1.05 2.16.29.75.5 1.53.64 2.32.04-.2.07-.39.1-.59.03-.19.05-.39.07-.58.01-.2.03-.39.04-.59s.01-.39.01-.59c0-.72-.06-1.45-.18-2.16-.11-.71-.29-1.41-.53-2.1-.23-.68-.52-1.35-.86-1.98-.35-.64-.74-1.24-1.19-1.81-.57-.45-1.17-.84-1.81-1.19-.63-.34-1.29-.63-1.98-.86-.68-.24-1.38-.42-2.09-.53-.72-.12-1.44-.18-2.16-.18-.2 0-.39.01-.59.02-.2 0-.39.02-.59.04-.2.01-.39.04-.59.06-.19.03-.39.06-.58.1" fill="#a955a0"/><path d="m20.1 7.1c1.14-.88 2.42-1.57 3.79-2.04s2.8-.71 4.25-.71 2.88.24 4.25.71 2.65 1.16 3.8 2.04c-.5-.63-1.04-1.22-1.64-1.76-.6-.53-1.25-1.01-1.93-1.43-.69-.41-1.41-.77-2.16-1.05-.75-.29-1.53-.5-2.32-.64-.79.14-1.56.35-2.31.64-.76.28-1.48.64-2.16 1.05-.69.42-1.34.9-1.94 1.44-.59.53-1.14 1.12-1.63 1.75" fill="#ffcd7b"/><path d="m41.07 15.16c-.14.79-.35 1.56-.64 2.31-.28.76-.63 1.48-1.05 2.17-.42.68-.89 1.33-1.43 1.93-.53.6-1.12 1.15-1.76 1.64-.49.63-1.04 1.22-1.64 1.76-.6.53-1.24 1.01-1.93 1.43-.68.41-1.41.77-2.16 1.05-.75.29-1.52.5-2.31.65.19.03.39.06.58.09s.39.05.58.07c.2.02.4.03.59.04.2.01.39.01.59.01.72.01 1.44-.05 2.16-.17.71-.12 1.41-.3 2.09-.53.69-.24 1.35-.53 1.98-.87.64-.34 1.24-.74 1.81-1.18.45-.57.84-1.18 1.19-1.82.34-.63.63-1.29.86-1.98.24-.68.42-1.38.53-2.1.12-.71.18-1.43.18-2.15 0-.2 0-.4-.01-.59-.01-.2-.02-.4-.04-.59-.02-.2-.04-.4-.07-.59-.03-.2-.06-.39-.1-.58" fill="#98c93c"/><path d="m20.1 23.21c.5.63 1.04 1.22 1.64 1.76.6.53 1.25 1.01 1.93 1.43.69.42 1.41.77 2.16 1.06.75.28 1.53.5 2.32.64.79-.15 1.56-.36 2.31-.65.75-.28 1.48-.64 2.16-1.05.69-.42 1.34-.9 1.93-1.43.6-.54 1.15-1.13 1.64-1.76-1.14.88-2.42 1.57-3.79 2.04s-2.81.71-4.25.71c-1.45 0-2.88-.24-4.25-.71s-2.65-1.16-3.8-2.04" fill="#c4dd88"/><path d="m36.19 23.21c.64-.49 1.23-1.04 1.76-1.64.54-.6 1.01-1.25 1.43-1.93.42-.69.77-1.41 1.05-2.17.29-.75.5-1.52.64-2.31-.14-.79-.35-1.57-.64-2.32-.28-.75-.64-1.48-1.05-2.16-.42-.69-.9-1.34-1.43-1.94-.54-.6-1.13-1.14-1.76-1.64.88 1.15 1.57 2.43 2.04 3.8s.71 2.81.71 4.26c0 1.44-.24 2.88-.71 4.25s-1.16 2.65-2.04 3.8" fill="#d2b5d6"/><path d="m20.1 7.1c-.89 1.15-1.58 2.43-2.05 3.8s-.71 2.81-.71 4.26c0 1.44.24 2.88.71 4.25s1.16 2.65 2.05 3.8c1.14.88 2.42 1.57 3.79 2.04s2.81.71 4.25.71c1.45 0 2.88-.24 4.25-.71s2.65-1.16 3.8-2.04c.88-1.15 1.57-2.43 2.04-3.8s.71-2.81.71-4.25c0-1.45-.24-2.89-.71-4.26s-1.16-2.65-2.04-3.8c-1.15-.88-2.43-1.57-3.8-2.04s-2.8-.71-4.25-.71-2.88.24-4.25.71-2.65 1.16-3.79 2.04" fill="#fff"/><g fill="#a955a0"><path d="m28.98 10.83h1.35c.31 0 .41.13.42.42l.04.42c.19-.16.4-.3.62-.43.22-.12.45-.23.69-.31s.48-.15.73-.19.51-.05.76-.05c.33-.03.66 0 .97.1.31.11.6.27.84.5.24.22.43.49.56.79.12.31.19.63.18.96v6.07c0 .31-.13.46-.44.46h-1.42c-.07.01-.13 0-.19-.02s-.11-.05-.16-.1c-.04-.04-.07-.09-.09-.15s-.03-.13-.02-.19v-5.49c0-.63-.19-.93-.95-.93-.18.01-.37.04-.55.08s-.35.09-.53.16c-.17.07-.33.15-.49.24-.16.1-.32.2-.46.32v5.63c0 .31-.1.45-.41.45h-1.45c-.32 0-.44-.14-.44-.45v-7.87c0-.29.12-.42.44-.42zm-2 2.44v2.03c0 .29-.1.41-.38.41h-4.52v1.3c0 .61.33.96 1.36.96 1.04 0 1.37-.35 1.37-.96v-.09c0-.3.13-.44.44-.44h1.23c.06-.01.12-.01.18.01s.11.05.15.09c.04.05.08.1.09.16.02.05.03.11.02.17v.2c0 1.6-.91 2.6-3.49 2.6s-3.6-1.02-3.6-2.6v-3.84c0-1.6 1.03-2.58 3.61-2.58s3.54 1.02 3.54 2.58zm-4.87.92h2.73v-.8c0-.61-.38-.97-1.36-.97-.99 0-1.37.36-1.37.97z" fill-rule="evenodd"/><path d="m44.37 10.3c.21 0 .28.1.29.31v.48c.18-.15.37-.28.57-.39.2-.12.42-.21.63-.29.22-.08.45-.14.67-.17.23-.04.46-.06.7-.06.28-.04.58-.01.86.08.27.09.53.24.74.44s.37.45.47.72c.1.28.14.57.11.86v3.72c.02.29-.01.58-.11.85-.11.27-.27.52-.48.72s-.46.36-.74.45c-.27.09-.57.12-.85.08-.23 0-.46-.02-.68-.06-.23-.03-.45-.09-.66-.16-.22-.08-.43-.17-.63-.28-.2-.1-.39-.23-.57-.37v3.61c0 .2-.08.29-.28.29h-.86c-.21 0-.29-.09-.29-.29v-10.23c0-.21.08-.31.29-.31zm3.6 2.21c0-.54-.26-1-1.14-1-.19 0-.38.02-.57.06s-.37.09-.55.16-.35.15-.52.25c-.16.09-.32.2-.46.33v3.67c.14.12.3.23.47.32.16.1.33.18.51.25s.36.12.55.16.38.06.57.07c.88 0 1.14-.46 1.14-1.01z" fill-rule="evenodd"/><path d="m50.48 12.27c0-1.24.8-2.09 2.92-2.09 2.13 0 2.92.85 2.92 2.09v5.4c0 .21-.08.31-.28.31h-.79c-.23 0-.28-.1-.3-.31v-.45c-.17.14-.35.26-.55.37-.19.11-.39.2-.6.28-.2.07-.42.13-.64.17-.21.04-.43.06-.65.06-1.44 0-2.19-.87-2.19-1.87v-.75c0-1 .72-1.86 2.15-1.86h2.45v-1.24c0-.63-.33-1.04-1.5-1.04-1.18 0-1.54.37-1.54 1.01v.11c0 .22-.07.32-.28.32h-.8c-.2 0-.28-.1-.28-.32zm4.41 2.51h-2.14c-.8 0-1.02.34-1.02.94v.32c0 .59.34.86 1.12.86.18-.01.37-.03.55-.07s.36-.09.53-.16c.18-.07.34-.15.5-.25.16-.09.31-.2.46-.32z" fill-rule="evenodd"/><path d="m61.68 10.47v.71c0 .22-.12.29-.31.31-.22.02-.44.05-.65.11-.22.05-.43.12-.63.2s-.4.18-.59.3c-.19.11-.36.24-.53.38v5.19c0 .21-.08.31-.28.31h-.9c-.21 0-.29-.1-.29-.31v-7.07c0-.2.08-.3.29-.3h.8c.22 0 .28.1.3.3l.05.66c.15-.16.32-.31.51-.44.18-.13.38-.24.58-.33.21-.09.42-.17.64-.22s.44-.08.66-.09c.2 0 .31.09.31.29"/><path d="m62.01 12.27c0-1.24.8-2.09 2.93-2.09 2.12 0 2.92.85 2.92 2.09v5.4c0 .21-.07.3-.27.31h-.8c-.22 0-.28-.1-.3-.31v-.45c-.17.14-.35.26-.54.37s-.4.2-.6.28c-.21.07-.42.13-.64.17s-.44.06-.66.06c-1.44 0-2.18-.87-2.18-1.87v-.75c0-.27.06-.53.17-.78.11-.24.28-.46.48-.64s.44-.31.7-.39.53-.1.8-.06h2.44v-1.23c0-.63-.32-1.04-1.5-1.04s-1.53.37-1.53 1v.12c0 .22-.08.32-.29.32h-.8c-.2 0-.28-.1-.27-.32zm4.41 2.51h-2.13c-.8 0-1.02.34-1.02.94v.32c0 .59.34.86 1.11.86.19-.01.37-.03.56-.07.18-.04.36-.09.53-.16s.34-.15.5-.25c.16-.09.31-.2.45-.32z" fill-rule="evenodd"/></g><path d="m69.99 17.79c0 .14-.05.18-.18.18h-.45c-.13 0-.18 0-.18-.18v-1.2c0-.11.05-.18.18-.18h.45c.13 0 .18.06.18.18z" fill="#d2b5d6"/><path d="m76.51 12.14v.29c0 .15-.05.19-.19.19h-.4c-.14 0-.18 0-.18-.19v-.24c0-.76-.41-1.29-1.94-1.29-1.52 0-1.91.53-1.91 1.29v3.94c0 .8.4 1.29 1.91 1.29 1.52 0 1.91-.51 1.91-1.29v-.37c0-.14.05-.19.19-.19h.4c.14 0 .19.05.19.19v.44c0 1.11-.64 1.9-2.73 1.9-2.08 0-2.7-.8-2.7-1.9v-4.06c0-1.13.63-1.92 2.72-1.92s2.71.8 2.71 1.92" fill="#d2b5d6"/><path d="m77.08 12.14c0-1.13.73-1.92 2.8-1.92 2.08 0 2.8.8 2.8 1.92v4.06c0 1.11-.73 1.9-2.8 1.9s-2.8-.8-2.8-1.9zm4.79.05c0-.76-.48-1.29-1.99-1.29s-1.99.53-1.99 1.29v3.94c0 .8.47 1.29 1.99 1.29s1.99-.51 1.99-1.29z" fill="#d2b5d6" fill-rule="evenodd"/><path d="m84.38 10.35c.02 0 .05 0 .07.01.03.01.05.02.07.04.01.01.03.04.03.06.01.02.02.05.01.07v.63c.18-.15.38-.28.58-.4s.42-.22.64-.3.45-.14.68-.18.46-.06.7-.06c.2-.03.4-.02.6.02.2.03.39.1.56.2.18.09.34.21.48.36.14.14.25.31.34.49.18-.17.38-.33.59-.46s.44-.25.67-.34.47-.16.72-.21c.24-.04.49-.06.74-.06 1.46 0 2.14.8 2.14 1.85v5.72c0 .02 0 .05-.01.07s-.02.05-.04.06c-.01.02-.04.04-.06.04-.03.01-.05.01-.08.01h-.43c-.14 0-.2-.06-.2-.18v-5.6c0-.8-.44-1.28-1.51-1.28-.22 0-.44.02-.66.06-.21.04-.43.11-.63.19s-.4.18-.59.29c-.18.12-.36.25-.52.4 0 .03.01.06.01.09v.08.09c0 .03-.01.05-.01.08v5.6c0 .12-.05.18-.18.18h-.44c-.12 0-.17-.06-.17-.18v-5.6c0-.8-.45-1.28-1.52-1.28-.22 0-.44.02-.65.06-.22.04-.43.1-.64.18-.2.07-.4.17-.58.29-.19.11-.36.25-.53.39v5.92c.01.02.01.05 0 .07s-.02.05-.04.06c-.02.02-.04.04-.07.04-.02.01-.05.01-.07.01h-.43c-.15 0-.19-.06-.19-.18v-7.22c0-.12.04-.18.19-.18z" fill="#d2b5d6"/></svg>