<svg height="30" viewBox="0 0 110 30" width="110" xmlns="http://www.w3.org/2000/svg"><g fill="#00428a"><path d="m18 12.55v.98h1.52v3.69h1.12v-3.7h1.56v-.97z"/><path d="m24.79 11.67c0 .25-.14.46-.37.56-.22.09-.48.04-.65-.13s-.23-.43-.13-.66c.09-.22.31-.37.55-.37.08 0 .16.02.23.05.08.03.14.07.2.13.05.05.1.12.13.19.03.08.04.15.04.23z"/><path d="m26.45 11.67c0 .25-.15.46-.37.56-.23.09-.48.04-.66-.13-.17-.17-.22-.43-.13-.66.1-.22.32-.37.56-.37.08 0 .16.02.23.05s.14.07.19.13c.06.05.1.12.14.19.03.08.04.15.04.23z"/><path d="m33.27 12.55v4.68h1.07v-1.41l.85-.84 1.46 2.25h1.28l-1.96-3.07 1.55-1.61h-1.29l-1.89 2.01v-2.01z"/><path d="m38.51 12.56h1.1v4.66h-1.1z"/><path d="m39.66 11.69c0 .24-.15.46-.37.55s-.48.04-.66-.13c-.17-.17-.22-.43-.13-.66.1-.22.32-.37.56-.37.08 0 .16.02.23.05s.14.07.2.13c.05.06.1.12.13.19.03.08.04.16.04.24z"/><path d="m53.15 7.66v.26s.7 0 .7.64v4.37l1.79 1.03v-5.4c0-.08.01-.17.05-.25.03-.08.08-.16.15-.22.06-.06.14-.1.22-.13s.17-.04.26-.04v-.26z"/><path d="m55.85 9.22v.42c.24.12.47.27.68.44.21.18.39.39.54.62.15.22.27.47.36.73.08.26.13.53.14.81h.28v-3.02h-.24c-.03.06-.06.12-.1.17s-.09.09-.14.13-.11.06-.17.08-.12.03-.19.03c-.1-.01-.2-.04-.3-.06-.1-.03-.2-.06-.3-.09-.1-.04-.19-.08-.29-.12-.09-.04-.18-.09-.27-.14z"/><path d="m53.64 9.06v.36s-1.63.25-1.63 1.71c0 0-.12 1.15 1.84 2.15l2.43 1.32s1.75.79 2.29 2.2c.15.38.23.79.24 1.2 0 .42-.07.83-.22 1.21-.14.39-.36.74-.64 1.05-.28.3-.61.55-.98.73-.12.06-.25.12-.38.17s-.26.09-.4.13c-.13.04-.27.07-.41.09-.14.03-.27.04-.41.05.09.05.17.11.24.19.07.07.14.15.19.24.05.08.09.18.12.28.02.1.04.2.04.3 0 .72-.8 1.83-1.16 1.84h-.19s0-.04.07-.16c.07-.13.6-.72.48-1.05-.05.02-.1.03-.14.05-.05.01-.1.02-.14.04-.05.01-.1.01-.15.02s-.09.01-.14.01c-.21-.02-.41-.11-.56-.27-.15-.15-.24-.35-.26-.56s.03-.42.15-.6c.12-.17.3-.3.5-.36-.1-.02-.2-.04-.29-.07-.1-.02-.2-.05-.29-.07-.1-.03-.19-.06-.29-.1-.09-.03-.18-.07-.28-.1-.86-.32-1.54-.64-1.97.13h-.24v-3.2h.28c.1.43.27.84.5 1.21.24.37.53.7.87.98.34.27.73.49 1.14.63.42.15.85.23 1.29.23.31.02.61-.01.9-.11.29-.09.56-.24.79-.44.23-.21.41-.45.54-.72.13-.28.21-.58.22-.88 0-.33 0-1.34-1.63-2.27s-3.2-1.78-3.2-1.78c-.26-.13-.51-.3-.73-.5s-.41-.43-.57-.68-.29-.52-.37-.81c-.09-.28-.14-.57-.15-.87.01-.36.08-.72.21-1.06.14-.34.33-.65.58-.92s.54-.49.87-.65c.32-.16.68-.26 1.04-.29z"/><path d="m53.83 15.73 1.78 1.01v2.07c0 .08.02.17.05.25.04.08.09.16.16.22.06.06.14.1.22.13s.17.04.26.04v.26h-3.2v-.3s.71 0 .71-.64z"/><path d="m40.04 12.56h1.28l1.3 1.96 1.34-1.96h1.24l-2.06 2.8v1.87h-1.06v-1.87z"/><path d="m45.56 12.54h3.74v.95h-2.66v.81h1.52v.89h-1.52v1.11h2.77v.93h-3.86z"/><path d="m55.74 5.99c0-.4-.24-.76-.6-.91-.37-.16-.8-.08-1.08.2-.29.28-.38.71-.23 1.08s.5.62.9.62c.14.01.27-.02.39-.07s.23-.12.33-.21c.09-.09.17-.2.22-.32.05-.13.07-.26.07-.39z"/><path d="m63.79 14.7c.11.03.22.08.32.14.09.06.18.14.25.23s.13.2.16.31c.04.11.06.23.05.34 0 1.5-1.74 1.5-1.74 1.5h-2.61v-4.66h2.52c.92 0 1.65.4 1.65 1.18 0 .1-.01.2-.03.3-.03.1-.07.19-.12.27-.06.09-.12.17-.2.23-.08.07-.16.12-.25.16zm-2.51-.4h1.59c.06 0 .12-.01.17-.04.05-.02.1-.05.14-.09.05-.04.08-.09.1-.15.02-.05.03-.11.03-.17 0 0 .04-.42-.46-.42h-1.57zm1.58 2.03c.08 0 .16-.01.23-.04.08-.02.14-.06.2-.11.06-.06.11-.12.14-.19s.05-.15.06-.22c0-.6-.64-.64-.64-.64h-1.57v1.19h1.58z" fill-rule="evenodd"/><path d="m69.88 17.23h-1.22l-.43-1.04h-1.92l-.43 1.02h-1.15l2.05-4.65h1.07zm-1.95-1.94-.64-1.59-.64 1.59z" fill-rule="evenodd"/><path d="m70.32 12.55v4.69h1.06v-3.02l2.32 3.01h.97v-4.67h-1.1v2.97l-2.25-2.98z"/><path d="m84.98 17.24h-1.2l-.41-1.03h-1.96l-.42 1.03h-1.96l-1.46-2.23-.84.87v1.34h-1.09v-4.67h1.09v2.05l1.92-2.04h1.32l-1.61 1.62 1.69 2.6 1.87-4.23h1.03zm-1.92-1.91-.64-1.6-.64 1.6z" fill-rule="evenodd"/><path d="m88.2 13.9.81-.68c-.13-.12-.27-.22-.42-.31s-.31-.17-.47-.23c-.17-.07-.33-.11-.51-.15-.17-.03-.34-.05-.52-.05-1.16 0-1.92.58-1.92 1.4s.64 1.15 1.7 1.36c1.05.21 1.28.41 1.18.77s-.82.4-1.05.38c-.11 0-.23-.02-.34-.04-.11-.03-.22-.06-.33-.11-.1-.05-.2-.1-.3-.17-.09-.07-.18-.14-.26-.23l-.79.64c.14.14.29.25.44.36.16.1.33.19.51.26.17.07.36.12.54.16.19.03.38.05.57.05 1.31 0 2.1-.51 2.12-1.48s-.79-1.23-1.65-1.43l-.87-.18s-.38-.09-.38-.4.31-.42.82-.42c.1 0 .21.01.31.04.11.02.21.05.3.09.1.05.19.1.28.16.08.06.16.13.23.21z"/><path d="m89.93 12.56h1.07v4.67h-1.07z"/><path d="m22.83 12.56h1.09v2.76c0 .14.03.28.08.41.06.13.13.25.23.35s.22.18.35.23.27.08.41.08c.15 0 .29-.03.42-.08.13-.06.25-.14.35-.24.11-.1.19-.21.25-.34s.09-.27.1-.42v-2.75h1.08v2.64c.01.28-.04.56-.14.83-.1.26-.26.5-.47.7-.2.2-.44.35-.71.44-.27.1-.55.14-.83.12-.29.03-.58 0-.86-.09s-.53-.24-.74-.44-.38-.44-.48-.71c-.11-.27-.15-.56-.14-.85z"/><path d="m32.46 17.22h-1.22l-.98-1.67h-1.08v1.68h-1.06v-4.67h2.67c.21-.02.43 0 .63.07s.38.18.53.32c.16.14.28.31.37.51.08.19.13.4.13.61 0 .15-.03.3-.07.45-.05.14-.12.28-.21.4s-.2.22-.33.31c-.12.09-.26.15-.41.19zm-1.49-2.58c.07-.04.14-.08.19-.14.06-.06.11-.13.14-.2.03-.08.04-.16.04-.24s-.02-.16-.05-.24c-.04-.07-.08-.14-.14-.19-.06-.06-.13-.1-.21-.13-.07-.03-.15-.05-.23-.05h-1.53v1.24h1.55c.08 0 .16-.02.24-.05z" fill-rule="evenodd"/></g></svg>