<svg viewBox="0 0 122.11 35.64" xmlns="http://www.w3.org/2000/svg" xmlns:xlink="http://www.w3.org/1999/xlink"><clipPath id="a"><path clip-rule="evenodd" d="m15.42 6.01 11.47 11.48-13.39 1.99z"/></clipPath><linearGradient id="b" gradientTransform="matrix(0 97.98 -108.76 0 93629.73 -25576.5)" gradientUnits="userSpaceOnUse" x1="261.14" x2="261.25" y1="860.66" y2="860.66"><stop offset="0" stop-color="#aecc4c"/><stop offset="1" stop-color="#fff"/></linearGradient><clipPath id="c"><path clip-rule="evenodd" d="m13.5 19.48 1.92 9.48-11.48-11.47z"/></clipPath><linearGradient id="d" gradientTransform="matrix(-71.8 0 0 -71.44 18859.03 62091.59)" gradientUnits="userSpaceOnUse" x1="262.52" x2="262.61" y1="868.85" y2="868.85"><stop offset="0" stop-color="#008dc9"/><stop offset="1" stop-color="#a5cd39"/></linearGradient><clipPath id="e"><path clip-rule="evenodd" d="m26.89 17.49-11.47 11.47-1.92-9.48z"/></clipPath><linearGradient id="f" gradientTransform="matrix(0 -123.65 124.42 0 -107300.73 33537.95)" gradientUnits="userSpaceOnUse" x1="271.06" x2="271.12" y1="862.55" y2="862.55"><stop offset="0" stop-color="#aecc4c"/><stop offset=".81" stop-color="#6faa98"/><stop offset="1" stop-color="#008cc9"/></linearGradient><clipPath id="g"><path clip-rule="evenodd" d="m3.94 17.49 11.48-11.48-1.92 13.47z"/></clipPath><linearGradient id="h" gradientTransform="matrix(64.01 -.01 .01 69.48 -16753.1 -59457.61)" gradientUnits="userSpaceOnUse" x1="261.73" x2="261.87" y1="855.99" y2="855.99"><stop offset="0" stop-color="#008dc9"/><stop offset=".65" stop-color="#6baa90"/><stop offset="1" stop-color="#a5cd39"/></linearGradient><g clip-path="url(#a)"><path d="m10.94 3.5h18.51v18.49h-18.51z" fill="url(#b)" transform="matrix(.52947515 -.84832544 .84832544 .52947515 -1.31 23.13)"/></g><g clip-path="url(#c)"><path d="m2.23 15.77h14.9v14.9h-14.9z" fill="url(#d)" transform="matrix(.37 -.93 .93 .37 -15.48 23.63)"/></g><g clip-path="url(#e)"><path d="m11.39 14.46h17.62v17.53h-17.62z" fill="url(#f)" transform="matrix(.73051994 -.68289137 .68289137 .73051994 -10.42 20.05)"/></g><g clip-path="url(#g)"><path d="m3.56 5.69h12.25v14.12h-12.25z" fill="url(#h)" transform="matrix(.99828099 -.05860946 .05860946 .99828099 -.73 .59)"/></g><path d="m64.46 21.43c0-.88.34-1 1-1a6.44 6.44 0 0 1 1.83.27v1.79a6.31 6.31 0 0 1 -2.39.13c-.5-.13-.46-.77-.44-1.19m5.67-3.43c0-2.54-1.38-4.09-4.23-4.09a10.39 10.39 0 0 0 -1.8.16l-1 .2c-.32.06-.42.4-.34.74s.4 1.77.8 1.71l1.16-.18a7.64 7.64 0 0 1 1.14-.1c1 0 1.33.86 1.39 1.92a14 14 0 0 0 -2.69-.28c-2.73 0-3 1.67-3 3.43 0 2.08.58 3.39 3 3.39 1.14 0 5.51-.1 5.51-1.77zm4.87 4.22v-5.22a6.1 6.1 0 0 1 2.18-.54c1 0 1 .43 1 1.35v3.13c0 .27 0 1.05-.38 1.28-.7.39-2.16.14-2.8 0zm3 2.72c3 0 3-1.91 3-4v-3c0-2.1 0-4-3-4a10.45 10.45 0 0 0 -3 .6v-4c0-.32-.36-.52-.74-.52s-2.1 0-2.1.46v12.69a.9.9 0 0 0 .56.88c1.34.81 4.13.89 5.28.89zm7.23-3.51c0-.88.34-1 1-1a6.33 6.33 0 0 1 1.77.27v1.79a6.26 6.26 0 0 1 -2.38.13c-.46-.13-.42-.77-.4-1.19zm5.66-3.43c0-2.54-1.38-4.09-4.23-4.09a10.51 10.51 0 0 0 -1.81.16l-1 .2c-.32.06-.42.4-.34.74s.4 1.77.8 1.71l1.17-.18a7.64 7.64 0 0 1 1.14-.1c1 0 1.32.86 1.38 1.92a13.78 13.78 0 0 0 -2.68-.28c-2.73 0-3 1.67-3 3.43 0 2.08.58 3.39 3 3.39 1.14 0 5.51-.1 5.51-1.77zm-37 4.18v-5.18a6 6 0 0 1 2.18-.54c1 0 1 .43 1 1.35v3.13c0 .27 0 1.05-.38 1.28-.63.39-2.09.14-2.77 0zm3 2.72c3 0 3-1.91 3-4v-3c0-2.1 0-4-3-4a10.32 10.32 0 0 0 -3 .6v-4c0-.32-.36-.52-.75-.52s-2.1 0-2.1.46v12.73a.9.9 0 0 0 .56.88c1.4.81 4.21.89 5.4.89zm-18.09-6.51h4.5c.42 0 .44-1.51.44-2s-.2-.7-.5-.7h-4.44v-3h5.66c.42 0 .45-1.5.45-2s-.21-.7-.51-.7h-7.89c-.38 0-.74.2-.74.52v13.84c0 .44 1.76.56 2.29.56a.72.72 0 0 0 .74-.62zm10.28 6v-9.94c0-.32-.36-.52-.74-.52s-2.28 0-2.28.46v10.06c0 .44 1.76.47 2.28.47s.74-.2.74-.52zm-3-11.87c0 .44 1.58.46 2.1.46s.74-.2.74-.52v-2c0-.33-.36-.53-.74-.53s-2.1 0-2.1.47zm52.67 5.06v6.87c0 .44 1.58.47 2.1.47s.74-.21.74-.53v-6.45c0-2.07-.12-3.91-3-3.91-3.17 0-5.82 1.13-5.82 1.89v8.54c0 .45 1.59.47 2.11.47s.74-.2.74-.53v-7.4a8.34 8.34 0 0 1 2.2-.54c.53 0 .97.19.97 1.13zm8 1v-8c0-.32-.37-.52-.75-.52s-2.1 0-2.1.44v14c0 .44 1.58.46 2.1.46s.75-.2.75-.52v-5l3.18 4.93c.37.57 1.64.56 2 .56.88 0 1.28-.18 1.28-.5s0-.23-.48-.92l-3-4.6 2.25-3.64c.29-.46.53-.72.53-1s-.4-.48-1.3-.48c-.5 0-1.51 0-1.83.53zm9.68 2.85c0-.88.34-1 1-1a6.36 6.36 0 0 1 1.83.27v1.79a6.27 6.27 0 0 1 -2.38.13c-.5-.13-.46-.77-.44-1.19zm5.68-3.43c0-2.54-1.38-4.09-4.23-4.09a10.39 10.39 0 0 0 -1.8.16l-1 .2c-.32.06-.42.4-.34.74s.4 1.77.8 1.71l1.16-.18a7.64 7.64 0 0 1 1.14-.1c1 0 1.33.86 1.39 1.92a13.89 13.89 0 0 0 -2.69-.28c-2.72 0-3 1.67-3 3.43 0 2.08.58 3.39 3 3.39 1.14 0 5.51-.1 5.51-1.77z" fill="#008dc9"/></svg>