<svg width="110" height="30" fill="none" xmlns="http://www.w3.org/2000/svg">
    <path fill-rule="evenodd" clip-rule="evenodd" d="M33.297 8.862c-.027-.107-.134-.188-.241-.214l-.268-.027c-.455 0-1.017-.027-1.418-.054-.616-.054-1.606 0-2.41.107-.802.108-2.408.161-3.05.161-.643 0-.91-.053-1.151-.107s-1.472-.054-1.874-.08c-.24 0-.83-.054-1.66-.08l-.561-.028c-.241 0-.455.188-.428.456 0 .269 0 1.02.026 1.717v.107c.027.698 0 1.449 0 1.717 0 .241.134.51.295.563 0 0 .053 0 .187.027.107.027.482.215.616.268.134.054.348-.16.455-.241.107-.08 1.258-.992 2.703-1.77 1.097-.59 2.944-1.261 3.747-1.583.24-.107.83 0 1.124.188.268.188 1.847.402 2.007.456.16.053.723.188.91.268.107.027.348.027.562 0l.188-.027a.306.306 0 0 0 .187-.214v-.269c.027-.268.053-.778.053-1.073v-.268Z" fill="#015099"/>
    <path fill-rule="evenodd" clip-rule="evenodd" d="M19.192 15.541c-.214.188-.241.43-.054.564.188.134.428.16.536.053l.294-.214a7.227 7.227 0 0 1 1.044-.725c.696-.402 1.793-.938 2.81-1.475 1.017-.563 2.195-1.127 2.623-1.395l.428-.295c.134-.107.402-.16.562-.107l.455.16c.455.162.67.27.91.27.241 0 .589-.028.696 0 .107.026.857.428 1.338.723.482.295 1.258.778 1.874 1.073.615.295.562.215.75.242l.186.027c.375.107.482.026.616-.135l.187-.268c.08-.107.134-.214.188-.268.134-.215.214-.402.134-.51-.054-.134-.616-.456-.964-.643-.348-.188-.83-.457-1.847-.698-.99-.241-2.355-.536-2.81-.59-.455-.054-.99-.268-1.178-.349-.187-.08-.454-.188-.776-.107l-.75.188c-.213.053-.561.214-.802.322-.24.134-1.499.724-1.66.831-.187.134-.642.349-.99.537-.348.187-1.23.75-1.632 1.019-.402.295-.75.536-1.098.805-.348.268-.722.617-.91.778l-.16.187Z" fill="#D91119"/>
    <path fill-rule="evenodd" clip-rule="evenodd" d="M22.43 15.005c-.053-.107-.214-.107-.348-.027l-.24.161c-.108.08-.241.134-.322.16-.267.135-.722.51-.936.886-.188.322-.188.778-.188 1.315 0 .51-.027.965 0 1.797 0 .348-.027.724 0 1.1l.027.482c0 .215.134.43.268.456h.16c.16 0 .67-.027.857-.027.187-.026.535.027.856.08.321.055.723.081 1.124.081a31 31 0 0 1 2.757 0c.883.054 1.873-.026 2.355-.026.509-.027 1.098-.135 1.445-.188.348-.054.83-.134 1.017-.134.107 0 .67 0 1.205.027h.482c.24 0 .428-.215.401-.483v-.644c0-.215.027-.644.054-1.02l.026-.295c0-.134-.16-.294-.401-.321 0 0-.027 0-.482-.054-.615-.054-1.365-.107-1.632-.08-.456.026-1.232.026-1.66.026-.401.027-.669-.134-1.606-.16-.937-.027-1.445-.108-2.382-.054-.936.08-1.713.08-1.98.134-.268.053-.723-.322-.723-.885-.027-.564-.053-1.744-.08-2.039l-.054-.268Z" fill="#009A44"/>
    <path d="M41.005 11.76c.08 0 .107.053.107.133v.885c0 .08-.027.135-.107.135h-2.81v1.582h2.596c.08 0 .133.054.133.134v.859c0 .08-.026.134-.133.134h-2.597v1.502h2.837c.08 0 .107.054.107.134v.885c0 .08-.026.134-.107.134h-3.96c-.081 0-.108-.053-.108-.134v-6.25c0-.08.027-.134.107-.134h3.935ZM48.606 13.878c.24.242.374.698.374 1.395v2.817c0 .08-.026.134-.107.134h-.936c-.08 0-.108-.054-.108-.134v-2.254c-.026-1.234-.08-1.207-.749-1.26-.24 0-.455.026-.642.053.08.215.107.51.107.886v2.575c0 .08-.027.134-.107.134H45.5c-.08 0-.107-.054-.107-.134V15.54c0-.482-.027-.697-.16-.831-.135-.134-.242-.134-.59-.134h-.535v3.514c0 .08-.026.134-.107.134h-.937c-.08 0-.107-.054-.107-.134v-4.292c0-.054.027-.107.107-.134a7.84 7.84 0 0 1 1.526-.134c.589 0 1.07.08 1.419.268.455-.188.91-.268 1.364-.268.536-.027.964.08 1.232.348ZM51.844 11.76c.08 0 .107.053.107.133v6.197c0 .08-.027.134-.107.134h-.937c-.08 0-.107-.054-.107-.134v-6.197c0-.08.027-.134.107-.134h.937ZM56.956 13.851c.268.242.401.59.401 1.073v2.87c0 .135-.053.215-.16.269a8.173 8.173 0 0 1-1.793.188c-.67 0-.99-.027-1.339-.215-.347-.188-.481-.563-.481-1.207 0-.537.133-.885.374-1.073.268-.188.67-.295 1.232-.295h.99v-.295c0-.376-.241-.564-.75-.564h-1.418c-.08 0-.107-.026-.107-.134v-.67c0-.08.027-.107.107-.134.401-.08.883-.134 1.419-.134.749-.027 1.257.08 1.525.321Zm-.776 2.388h-.91c-.402 0-.562.134-.562.51 0 .402.16.509.669.509.348 0 .589-.027.776-.08v-.94h.027ZM60.221 11.76c.08 0 .107.053.107.133v3.246l1.124-1.502c.027-.054.107-.08.161-.08h1.07c.134 0 .161.053.08.16l-1.257 1.663 1.606 2.602c.08.161.026.215-.134.215h-.99c-.08 0-.134-.027-.16-.08l-1.473-2.468v2.414c0 .08-.027.134-.107.134h-.937c-.08 0-.107-.054-.107-.134v-6.17c0-.08.027-.134.107-.134h.91ZM68.866 11.786c.107 0 .134.054.054.134l-2.73 2.843 2.89 3.273c.08.107.054.188-.107.188h-.482c-.08 0-.133-.027-.16-.08l-2.837-3.22v3.192c0 .08-.027.108-.107.108h-.428c-.08 0-.108-.027-.108-.108v-6.25c0-.08.027-.107.108-.107h.428c.08 0 .107.027.107.107v2.71l2.703-2.736c.027-.054.08-.08.16-.08h.51v.026ZM73.416 14.844v3.004c0 .108-.054.188-.16.215-.295.107-.91.16-1.82.16-.563 0-.99-.107-1.232-.294-.24-.188-.348-.564-.348-1.073 0-.912.455-1.261 1.446-1.261H72.8v-.67c0-.618-.401-.886-1.257-.886h-1.151c-.08 0-.107-.027-.107-.107v-.242c0-.053.026-.107.107-.107.348-.053.749-.08 1.177-.08 1.205 0 1.847.375 1.847 1.34Zm-.616 1.314h-1.498c-.563 0-.803.215-.803.724 0 .617.267.805 1.097.805.535 0 .937-.027 1.231-.107v-1.422H72.8ZM75.664 12.242c.08-.027.134 0 .134.107v1.207h.963c.08 0 .108.027.108.108v.295c0 .08-.027.107-.108.107h-.963v3.138c0 .376.107.483.562.483h.455c.08 0 .107.027.107.107v.296c0 .053-.027.107-.107.107a1.919 1.919 0 0 1-.455.053c-.294 0-.428 0-.67-.08-.293-.107-.508-.322-.508-.832v-3.272h-.481c-.08 0-.107-.027-.107-.107v-.295c0-.08.026-.108.107-.108h.481v-1.1c0-.053.027-.107.108-.107l.374-.107ZM78.581 13.556c.08 0 .108.027.108.108v4.426c0 .08-.027.107-.108.107h-.401c-.08 0-.107-.027-.107-.107v-4.426c0-.08.027-.108.107-.108h.401ZM80.83 11.786c.08 0 .107.027.107.107v6.223c0 .08-.027.108-.107.108h-.402c-.08 0-.107-.027-.107-.108v-6.25c0-.08.027-.107.107-.107h.402v.027ZM83.078 13.556c.08 0 .107.027.107.108v4.426c0 .08-.027.107-.107.107h-.402c-.08 0-.107-.027-.107-.107v-4.426c0-.08.027-.108.107-.108h.402ZM90.572 13.825c.348.268.428.75.428 1.663v2.628c0 .08-.027.108-.107.108h-.375c-.08 0-.107-.027-.107-.108v-2.628c0-.67-.053-1.02-.267-1.207-.215-.188-.429-.215-.91-.215-.429 0-.83.027-1.151.107.107.295.187.725.187 1.288l-.027 2.655c0 .08-.026.108-.107.108h-.428c-.08 0-.107-.027-.107-.108v-2.655c0-.537-.08-.859-.16-1.046-.054-.108-.134-.161-.242-.215-.214-.107-.347-.107-.776-.107h-1.017v4.023c0 .08-.027.108-.107.108h-.401c-.08 0-.107-.027-.107-.108v-4.372c0-.08.026-.107.107-.107.481-.08.963-.107 1.418-.107.59 0 1.044.08 1.338.24.509-.16.99-.24 1.446-.24.776-.027 1.124.026 1.472.295Z" fill="#3A3A3A"/>
</svg>
