<svg width="110" height="30" fill="none" xmlns="http://www.w3.org/2000/svg">
    <path fill-rule="evenodd" clip-rule="evenodd" d="M38.26 15.242v.69c0 .663-.013 1.26-.026 1.791-.013.518-.038 1.022-.064 1.527.129-.014.283-.027.437-.027h1.054c.155 0 .296.013.438.027-.026-.505-.052-1.01-.065-1.527a70.18 70.18 0 0 1-.025-1.791v-1.646a63.54 63.54 0 0 1 .09-3.345c-.129.014-.283.027-.438.054-.154.013-.334.013-.527.013s-.373 0-.527-.013a4.413 4.413 0 0 1-.437-.054c.026.518.051 1.049.064 1.553.013.505.026 1.088.026 1.765-.231.014-.476.014-.733.027h-2.096c-.282-.013-.527-.013-.72-.027 0-.663 0-1.26.013-1.765.013-.517.039-1.035.077-1.553-.128.014-.282.027-.437.053-.154.014-.334.014-.527.014s-.373 0-.527-.013a4.41 4.41 0 0 1-.437-.054 63.539 63.539 0 0 1 .09 3.345v1.646c0 .663-.013 1.26-.026 1.791-.013.518-.038 1.022-.064 1.527.128-.014.283-.027.437-.027h1.054c.155 0 .296.013.437.027-.025-.505-.051-1.01-.064-1.527a70.646 70.646 0 0 1-.026-1.791v-.69l.888-.04c.295-.014.591-.014.887-.014.295 0 .591.014.887.027.296.013.591.027.887.027ZM44.239 13.21a33.42 33.42 0 0 0-.579 1.434c-.18.465-.36.942-.527 1.434h2.134c-.167-.492-.347-.97-.514-1.434-.154-.464-.334-.942-.514-1.433Zm4.14 6.026c-.193-.013-.36-.026-.54-.026h-.99c-.168 0-.322.013-.489.026-.129-.398-.257-.796-.386-1.207-.128-.412-.27-.823-.424-1.235-.244-.013-.501-.013-.746-.013-.244-.013-.501-.013-.745-.013-.206 0-.412 0-.605.013-.205 0-.411 0-.604.013-.154.412-.296.823-.437 1.235-.129.411-.257.81-.36 1.207a2.035 2.035 0 0 0-.283-.026H41.217c-.09 0-.193.013-.308.026.09-.212.218-.504.372-.862.155-.372.322-.783.515-1.261.193-.465.385-.969.591-1.5.219-.544.437-1.088.643-1.632.219-.544.424-1.089.63-1.62l.579-1.486c.077.013.154.027.218.053.064.013.142.013.219.013.077 0 .154 0 .218-.013.065-.013.142-.026.219-.053.244.69.514 1.42.797 2.203.283.783.579 1.553.861 2.31.283.743.566 1.46.836 2.136.296.677.54 1.248.772 1.712ZM49.279 14.286v1.646c0 .663-.013 1.26-.026 1.791-.013.518-.039 1.022-.064 1.527.064-.014.141-.014.218-.027H52.93c.309.013.579.013.784.027a2.205 2.205 0 0 1-.038-.186c-.013-.067-.013-.173-.013-.305 0-.133 0-.226.013-.306.013-.066.025-.159.038-.239a23.112 23.112 0 0 1-2.687.16c-.013-.319-.013-.69-.026-1.115v-2.973a64.036 64.036 0 0 1 .09-3.345c-.128.014-.282.027-.437.054-.154.013-.334.013-.527.013s-.373 0-.527-.013a4.41 4.41 0 0 1-.437-.054c.026.518.051 1.049.064 1.566.052.531.052 1.115.052 1.779ZM56.466 15.494h.025c.399.623.785 1.26 1.17 1.898.386.623.772 1.247 1.17 1.858.168-.014.335-.027.502-.027h1.041c.18 0 .386.013.605.027-.155-.2-.36-.478-.618-.863-.257-.385-.54-.81-.835-1.26-.296-.465-.592-.93-.9-1.408-.309-.477-.579-.915-.836-1.3.154-.2.373-.452.656-.783.283-.332.578-.69.874-1.036.309-.358.604-.69.874-.995.27-.305.476-.53.605-.664a3.136 3.136 0 0 0-.373.053c-.103.014-.219.014-.322.014-.103 0-.218 0-.321-.013-.103-.014-.219-.027-.334-.054-.103.16-.27.385-.489.69-.231.293-.476.624-.759.996-.282.358-.578.743-.874 1.128-.308.372-.591.73-.848 1.048V13.65c0-.584 0-1.128.012-1.606.013-.478.039-.85.078-1.088-.129.013-.283.026-.438.053-.154.013-.334.013-.527.013s-.373 0-.527-.013a4.354 4.354 0 0 1-.437-.053 64.056 64.056 0 0 1 .09 3.344v1.646a58.27 58.27 0 0 1-.09 3.318c.129-.013.283-.027.437-.027h1.054c.155 0 .296.014.438.027a11.364 11.364 0 0 1-.078-1.5c-.025-.65-.025-1.393-.025-2.27ZM65.376 16.953c0 .266-.039.505-.103.704a1.657 1.657 0 0 1-.283.518 1.387 1.387 0 0 1-.411.318 1.247 1.247 0 0 1-.489.106h-.334c-.09-.013-.193-.013-.309-.026 0-.107 0-.24-.013-.398v-.531c0-.2 0-.385-.013-.598v-1.234c.013-.186.013-.358.013-.53h.219c.077-.014.167-.014.283-.014.463 0 .823.146 1.067.425.244.278.373.69.373 1.26Zm-.077-3.901c0 .252-.039.477-.116.677a1.262 1.262 0 0 1-.746.756 1.215 1.215 0 0 1-.476.093h-.527c0-.212 0-.412-.013-.597v-.624c0-.212 0-.465.013-.77l.039-.902c.077-.014.154-.027.206-.027.064-.013.192-.013.36-.013.231 0 .424.04.578.12a.978.978 0 0 1 .386.304c.103.12.167.266.206.452.064.159.09.331.09.53Zm-3.6 1.234v1.646c0 .663-.013 1.26-.026 1.791-.013.518-.039 1.022-.064 1.527.128-.014.308-.027.527-.027h.655c.296 0 .579 0 .849.013.27.014.566.014.874.014.347 0 .695-.04 1.016-.107.321-.08.617-.212.861-.411.258-.2.463-.438.605-.743.154-.306.231-.677.231-1.115 0-.358-.077-.664-.231-.916a2.13 2.13 0 0 0-.553-.624 2.135 2.135 0 0 0-.694-.345c-.245-.08-.45-.12-.63-.132v-.027c.18-.027.372-.093.591-.186a2.38 2.38 0 0 0 .617-.358 2 2 0 0 0 .489-.597 1.81 1.81 0 0 0 .193-.863c0-.332-.065-.61-.18-.85a1.393 1.393 0 0 0-.476-.583 1.933 1.933 0 0 0-.746-.332 4.22 4.22 0 0 0-.964-.106c-.334 0-.682.013-1.054.04-.373.013-.72.026-1.055.026-.193 0-.373 0-.527-.013a4.384 4.384 0 0 1-.437-.053c.026.517.051 1.048.064 1.566.052.517.065 1.101.065 1.765ZM71.007 13.21c-.206.479-.398.956-.578 1.434-.18.465-.36.942-.528 1.434h2.135c-.167-.492-.347-.97-.515-1.434-.154-.464-.334-.942-.514-1.433Zm4.14 6.026c-.193-.013-.373-.026-.54-.026h-.99c-.167 0-.321.013-.488.026-.129-.398-.258-.796-.386-1.207-.129-.412-.27-.823-.424-1.235-.245-.013-.502-.013-.746-.013-.244-.013-.502-.013-.746-.013-.206 0-.411 0-.604.013-.206 0-.412 0-.604.013-.155.412-.296.823-.438 1.235-.128.411-.257.81-.36 1.207a2.033 2.033 0 0 0-.282-.026H67.986c-.09 0-.193.013-.309.026.09-.212.219-.504.373-.862.154-.372.321-.783.514-1.261.193-.465.386-.969.592-1.5.218-.544.437-1.088.643-1.632.218-.544.424-1.089.63-1.62.205-.53.398-1.022.578-1.486.077.013.154.027.219.053.064.013.141.013.218.013.077 0 .155 0 .219-.013s.141-.026.218-.053c.245.69.515 1.42.798 2.203.282.783.578 1.553.861 2.31.283.743.566 1.46.836 2.136.295.677.54 1.248.771 1.712ZM76.163 13.344c0 .61-.013 1.247-.039 1.924a70.766 70.766 0 0 1-.064 1.845c-.026.557-.051 1.048-.064 1.433-.026.398-.039.624-.065.69.18-.013.36-.026.54-.026h.27c.09 0 .193.013.283.026-.013-.093-.013-.199-.025-.345-.013-.159-.013-.345-.026-.584s-.013-.517-.026-.862V14.1c.013-.239.013-.464.026-.703 1.8 1.95 3.51 3.902 5.117 5.826.129-.013.283-.026.45-.026.167 0 .321.013.476.026v-3.066l.038-1.553c.013-.517.039-1.075.065-1.672.025-.597.051-1.26.09-1.99-.219.04-.399.066-.528.066-.128 0-.308-.013-.527-.067.013.08.026.24.039.465.013.239.026.518.026.836.012.318.012.677.012 1.062.013.385.013.77.013 1.154V16.675c-.874-.969-1.723-1.938-2.558-2.88a422.425 422.425 0 0 0-2.52-2.867 3.28 3.28 0 0 1-.527.066c-.129 0-.309-.013-.528-.066.013.292.026.624.039 1.009 0 .385.013.862.013 1.407ZM86.487 15.494h.026c.398.623.784 1.26 1.17 1.898.386.623.771 1.247 1.17 1.858.167-.014.334-.027.501-.027h1.042c.18 0 .385.013.604.027-.154-.2-.36-.478-.617-.863s-.54-.81-.836-1.26c-.296-.465-.591-.93-.9-1.408-.308-.477-.578-.915-.836-1.3.155-.2.373-.452.656-.783.283-.332.579-.69.874-1.036.309-.358.605-.69.875-.995.27-.305.475-.53.604-.664a3.14 3.14 0 0 0-.373.053c-.103.014-.218.014-.321.014-.103 0-.219 0-.322-.013-.103-.014-.218-.027-.321-.054-.103.16-.27.385-.489.69-.231.293-.475.624-.758.996-.283.358-.579.743-.875 1.128-.308.372-.591.73-.848 1.048V13.65c0-.584 0-1.128.013-1.606.013-.478.038-.85.077-1.088-.129.013-.283.026-.437.053-.155.013-.335.013-.527.013-.193 0-.373 0-.528-.013a4.35 4.35 0 0 1-.437-.053 64.056 64.056 0 0 1 .09 3.344v1.646a58.27 58.27 0 0 1-.09 3.318c.129-.013.283-.027.437-.027H86.166c.154 0 .295.014.437.027a11.364 11.364 0 0 1-.077-1.5c-.039-.65-.039-1.393-.039-2.27Z" fill="#005696"/>
    <path d="M21.006 9.256v11.772h-.399V9.256h.399Zm-.785 1.22v9.318h-.411v-9.317h.411Zm-.822 1.222v6.901H19v-6.901h.399Zm8.344 10.551v-6.901h-5.94v6.901h-.399V8.035h.399v6.901h5.94V8.035h.398v14.214h-.398Zm.81-1.208V9.27h.398v11.772h-.398Zm.784-1.234V10.49h.399v9.317h-.399Zm.81-1.208v-6.901h.399v6.901h-.399Zm-3.201-4.088h-4.77V9.244h.398V14.1h4.372V9.243h.411v5.268h-.411Zm-.553-.822h-3.407v-3.225h.398v2.813h2.777v-2.813h.399v3.225h-.167Zm-.887-.797h-1.749v-1.207h.399v.796h1.195v-.796h.399v1.207h-.244Zm-2.932 2.84h4.77v5.27h-.398v-4.845h-4.372v4.858h-.398v-5.27s.411 0 .398-.012Zm.566.823h3.407v3.226h-.398v-2.8H23.37v2.813h-.398v-3.225s.167 0 .167-.014Zm.874.797h1.749v1.207h-.399v-.796H24.17v.796h-.399v-1.207c0 .013.244.013.244 0Z" fill="#005696"/>
</svg>
