<svg height="30" viewBox="0 0 110 30" width="110" xmlns="http://www.w3.org/2000/svg"><path d="m79.65 11.03v.02zm0 .02h2.74v2.78h1.07l3.21-2.83h4.02l-4.55 4.07 4.86 3.95h-4.09l-3.46-2.86h-.96v2.88h-2.84zm-53.3 0 4.33 7.99h-3.05l-.74-1.36h-5l-.74 1.33h-3.15l4.4-7.96zm-.64 4.6-1.34-2.35-1.34 2.35zm5.36-4.6h2.74v2.78h1.09l3.2-2.83h4.03l-4.58 4.07 4.87 3.97h-4.09l-3.46-2.88h-.95v2.88h-2.85zm16.83-.02h3.24c.19.02.38.07.56.14.18.08.35.18.5.3s.28.26.39.42.2.33.26.51c.25.8.07 2.1-.62 2.58.49.2.83.98.87 1.77v.32.1c-.01.04-.01.07-.02.1 0 .04-.01.07-.01.11-.01.03-.02.06-.02.1-.16.88-.86 1.56-1.43 1.56h-8.66c0-2.66 0-5.34 0-8zm2.02 5.78c.06 0 .12-.01.17-.03s.1-.06.14-.09c.04-.04.07-.09.1-.14.02-.05.04-.11.04-.17s-.01-.11-.04-.17c-.02-.05-.05-.1-.09-.14-.05-.04-.09-.07-.15-.09-.05-.02-.11-.03-.17-.03h-4.37v.86zm-.11-2.88c.11 0 .22-.04.3-.12s.13-.19.13-.3c0-.12-.05-.23-.13-.31s-.19-.12-.3-.12h-4.26v.85zm16.78-2.88h4.42l4.15 5.57v-5.57h2.85v7.99h-4.47l-4.07-5.4v5.37h-2.88zm-4.77 0 4.33 7.99h-3.04l-.75-1.36h-5l-.74 1.33h-3.15l4.4-7.96zm-.63 4.6-1.35-2.35-1.34 2.35z" fill="#ec1c24" fill-rule="evenodd"/></svg>