<svg width="110" height="30" fill="none" xmlns="http://www.w3.org/2000/svg">
    <path d="M21.07 10.86v6.984h-1.337v-3.746h-1.267v-1.265h1.267V10.86h1.337Z" fill="#C36535"/>
    <path fill-rule="evenodd" clip-rule="evenodd" d="M25.646 15.452a2.384 2.384 0 0 1-2.38 2.392c-.095 0-.181-.009-.268-.018v.018h-1.363v-6.985h1.363v2.2c.087-.005.176-.008.269-.008a2.385 2.385 0 0 1 2.379 2.4Zm-1.285 0c0-.76-.608-1.362-1.363-1.362v2.724c.755 0 1.363-.611 1.363-1.362Z" fill="#C36535"/>
    <path d="m33.095 11.078.078 1.58h-.191c-.035-.28-.084-.477-.148-.594a1.039 1.039 0 0 0-.408-.428c-.168-.093-.39-.14-.668-.14h-.947v5.16c0 .414.044.673.13.778.128.14.322.21.582.21h.235v.183H28.91v-.184h.234c.284 0 .487-.087.608-.262.07-.105.104-.346.104-.724v-5.16h-.807c-.313 0-.535.023-.669.07a.926.926 0 0 0-.434.366c-.121.18-.194.422-.217.725h-.19l.077-1.58h5.479ZM37.618 12.134v-.157h2.057v.157h-.217a.589.589 0 0 0-.53.288c-.063.088-.095.294-.095.62v2.375c0 .588-.058 1.042-.173 1.362-.116.326-.342.605-.678.838-.341.233-.804.35-1.389.35-.63 0-1.11-.111-1.44-.333a1.803 1.803 0 0 1-.704-.899c-.087-.256-.13-.736-.13-1.44v-2.288c0-.36-.052-.596-.157-.707-.098-.11-.257-.166-.477-.166h-.217v-.157h2.518v.157h-.226c-.237 0-.408.076-.512.227-.076.105-.113.32-.113.646v2.55c0 .227.023.489.07.785.04.291.115.518.225.681.104.17.26.306.469.41.202.105.451.158.746.158.382 0 .724-.085 1.025-.253.3-.163.506-.376.616-.638.11-.262.165-.701.165-1.318v-2.375c0-.36-.04-.588-.121-.68-.11-.129-.275-.193-.495-.193h-.217Z" fill="#C36535"/>
    <path fill-rule="evenodd" clip-rule="evenodd" d="M45.71 17.826h-1.555l-1.97-2.74a9.224 9.224 0 0 1-.357.008h-.121a1.05 1.05 0 0 1-.13-.009v1.703c0 .366.04.596.121.69.104.127.266.191.486.191h.226v.157h-2.492v-.157h.217c.25 0 .426-.081.53-.244.058-.087.087-.3.087-.637v-3.78c0-.367-.04-.594-.122-.682-.11-.128-.275-.192-.495-.192h-.217v-.157h2.119c.619 0 1.076.044 1.371.131.29.093.536.262.738.506.209.239.313.527.313.865 0 .36-.116.672-.347.934-.238.268-.6.457-1.086.567l1.198 1.677c.278.384.516.64.712.768.197.128.455.21.773.244v.157Zm-4.133-3.011h.139c.04.005.072.008.095.008.556 0 .975-.122 1.259-.367.283-.238.425-.547.425-.925 0-.36-.115-.658-.347-.89-.226-.227-.527-.341-.903-.341-.162 0-.385.026-.668.079v2.436Z" fill="#C36535"/>
    <path d="m48.253 14.579 2.144 2.148c.353.354.654.596.903.724s.498.2.747.218v.157h-2.77v-.157c.168 0 .29-.029.365-.087.07-.058.104-.122.104-.192a.408.408 0 0 0-.043-.183c-.023-.053-.11-.155-.26-.306l-2.015-2v1.887c0 .296.02.491.06.584.03.076.088.14.175.193.127.07.257.104.39.104h.2v.157h-2.474v-.157h.2c.242 0 .419-.072.529-.218.063-.093.095-.314.095-.663v-3.78c0-.298-.017-.493-.052-.586a.4.4 0 0 0-.173-.183.82.82 0 0 0-.4-.105h-.2v-.157h2.475v.157h-.2a.86.86 0 0 0-.39.096.381.381 0 0 0-.183.21c-.034.093-.052.282-.052.567v1.79l.59-.541c.851-.786 1.364-1.31 1.537-1.572.081-.116.122-.215.122-.297a.21.21 0 0 0-.096-.174c-.058-.053-.159-.079-.304-.079h-.13v-.157h2.136v.157c-.128 0-.24.018-.339.053-.104.029-.231.09-.382.183a3.14 3.14 0 0 0-.547.436 53.17 53.17 0 0 0-.877.882l-.885.89ZM54.686 17.67v.156h-2.492v-.157h.209c.237 0 .41-.072.52-.218.07-.093.105-.314.105-.663v-3.78c0-.298-.02-.493-.061-.586a.4.4 0 0 0-.174-.183.804.804 0 0 0-.39-.105h-.209v-.157h2.492v.157h-.208c-.238 0-.411.07-.521.21-.07.093-.105.314-.105.663v3.78c0 .297.018.492.053.585.029.076.09.14.182.193.121.07.252.104.39.104h.209ZM58.931 11.837v2.026h-.165c-.046-.39-.136-.699-.269-.926a1.417 1.417 0 0 0-.573-.55 1.563 1.563 0 0 0-.764-.2c-.295 0-.54.09-.738.27-.19.186-.286.396-.286.629 0 .174.06.337.182.489.174.215.596.5 1.268.855.538.297.908.524 1.11.681.198.157.351.34.461.55a1.527 1.527 0 0 1-.356 1.816c-.341.32-.781.48-1.32.48-.167 0-.327-.011-.477-.034a7.002 7.002 0 0 1-.547-.158c-.278-.093-.454-.14-.53-.14-.075 0-.133.021-.173.062-.04.046-.07.137-.087.27h-.165V15.95h.165c.075.42.174.734.295.943.127.21.321.384.582.524.255.14.538.21.85.21.36 0 .64-.096.843-.288a.888.888 0 0 0 .2-1.11 1.36 1.36 0 0 0-.374-.41c-.11-.087-.414-.27-.911-.55-.498-.279-.851-.503-1.06-.672a1.91 1.91 0 0 1-.477-.55 1.376 1.376 0 0 1-.165-.663c0-.42.16-.783.477-1.092.325-.302.733-.454 1.225-.454.312 0 .64.079.98.236.163.07.276.105.34.105a.246.246 0 0 0 .181-.07c.053-.04.09-.131.113-.27h.165ZM61.597 14.692h2.7v-1.676c0-.303-.018-.5-.052-.594a.396.396 0 0 0-.183-.183.772.772 0 0 0-.39-.105h-.209v-.157h2.492v.157h-.209a.826.826 0 0 0-.39.096.342.342 0 0 0-.182.21c-.035.093-.053.285-.053.576v3.772c0 .296.018.491.053.584.028.076.09.14.182.193.121.07.252.104.39.104h.209v.157h-2.492v-.157h.209c.237 0 .41-.072.52-.218.07-.093.105-.314.105-.663v-1.781h-2.7v1.78c0 .297.017.492.052.585.029.076.09.14.182.193.122.07.252.104.39.104h.21v.157h-2.493v-.157h.209c.237 0 .41-.072.52-.218.07-.093.105-.314.105-.663v-3.772c0-.303-.02-.5-.06-.594a.4.4 0 0 0-.175-.183.804.804 0 0 0-.39-.105h-.209v-.157h2.492v.157h-.208a.826.826 0 0 0-.39.096.381.381 0 0 0-.183.21c-.035.093-.052.285-.052.576v1.676Z" fill="#C36535"/>
    <path fill-rule="evenodd" clip-rule="evenodd" d="M70.817 14.378c.463.099.81.259 1.041.48.319.303.478.675.478 1.118 0 .337-.104.66-.313.969a1.898 1.898 0 0 1-.868.672c-.37.14-.932.21-1.684.21h-3.169v-.184h.252c.278 0 .48-.09.608-.27.075-.117.112-.364.112-.743v-4.356c0-.42-.049-.684-.147-.795-.127-.145-.318-.218-.573-.218h-.252v-.183h2.9c.538 0 .972.038 1.302.113.492.122.868.335 1.129.638.26.302.39.651.39 1.047 0 .338-.1.64-.303.908-.203.268-.504.466-.903.594Zm-2.596-.262c.121.023.26.04.416.052.157.012.33.018.521.018.48 0 .843-.053 1.086-.157.243-.105.428-.265.555-.48.128-.216.191-.452.191-.708 0-.396-.159-.733-.477-1.012-.319-.28-.785-.42-1.398-.42-.33 0-.628.038-.894.114v2.593Zm0 3.222c.382.087.76.13 1.137.13.596 0 1.05-.133 1.363-.401.313-.274.469-.608.469-1.004 0-.262-.07-.515-.208-.76-.145-.238-.377-.427-.695-.567-.324-.14-.72-.21-1.19-.21-.202 0-.376.003-.52.01a2.35 2.35 0 0 0-.356.034v2.768ZM76.911 15.862h-2.248l-.4.926c-.092.227-.139.395-.139.506 0 .093.04.172.122.236.087.07.269.116.547.14v.156H72.96v-.157c.243-.046.4-.104.469-.174.15-.134.312-.414.486-.838l2.049-4.82h.147l2.032 4.872c.162.39.31.643.443.76.133.116.318.183.555.2v.157h-2.3v-.157c.231-.011.388-.052.469-.122a.292.292 0 0 0 .13-.244c0-.123-.058-.32-.174-.594l-.356-.847Zm-.121-.323-.99-2.366-1.007 2.366h1.997Z" fill="#C36535"/>
    <path d="M79.125 11.977h1.58l3.55 4.383v-3.37c0-.361-.037-.585-.112-.672-.11-.123-.278-.184-.504-.184h-.208v-.157h2.032v.157h-.209c-.249 0-.422.076-.52.227-.064.087-.096.297-.096.629v4.933h-.156l-3.838-4.715v3.606c0 .355.04.579.122.672.104.122.269.183.495.183h.208v.157h-2.023v-.157h.2c.249 0 .425-.075.53-.227.063-.093.095-.302.095-.628v-4.069a2.727 2.727 0 0 0-.382-.393 1.653 1.653 0 0 0-.39-.183 1.461 1.461 0 0 0-.374-.035v-.157ZM88.215 14.579l2.144 2.148c.347.354.645.596.894.724.25.128.498.2.747.218v.157h-2.76v-.157c.161 0 .28-.029.355-.087.07-.058.104-.122.104-.192a.336.336 0 0 0-.034-.183 1.972 1.972 0 0 0-.27-.306l-2.005-2v1.887c0 .296.017.491.052.584.029.076.09.14.182.193.122.07.252.104.391.104h.2v.157h-2.483v-.157h.208c.237 0 .411-.072.521-.218.07-.093.104-.314.104-.663v-3.78c0-.298-.02-.493-.06-.586a.401.401 0 0 0-.174-.183.803.803 0 0 0-.39-.105h-.21v-.157h2.484v.157h-.2a.861.861 0 0 0-.39.096.342.342 0 0 0-.183.21c-.035.093-.052.282-.052.567v1.79c.052-.052.246-.233.582-.541.85-.786 1.366-1.31 1.545-1.572a.58.58 0 0 0 .113-.297.215.215 0 0 0-.087-.174c-.064-.053-.165-.079-.304-.079H89.1v-.157h2.136v.157a1.06 1.06 0 0 0-.339.053c-.104.029-.231.09-.382.183a3.639 3.639 0 0 0-.546.436c-.064.059-.354.353-.869.882l-.885.89Z" fill="#C36535"/>
</svg>
