<svg width="110" height="30" fill="none" xmlns="http://www.w3.org/2000/svg">
    <path fill-rule="evenodd" clip-rule="evenodd" d="M36.056 24.338c-3.674 0-6.048-1.84-6.048-6.308 0-3.909 2.685-6.727 6.626-6.727 3.674 0 6.047 1.968 6.047 6.277 0 3.928-2.741 6.759-6.625 6.759ZM36.4 14.02c-1.492 0-2.951 1.11-2.951 3.687 0 2.57.964 3.884 2.9 3.884 1.637 0 2.894-1.289 2.894-3.84 0-2.418-.889-3.731-2.843-3.731Zm15.865 7.945h-.057c-.673 1.39-2.107 2.367-4.087 2.373-3.148 0-4.709-2.316-4.709-5.889 0-4.233 2.551-7.152 6.841-7.152.552 0 1.067.025 1.638.102V5.68h3.344v18.404h-2.97v-2.12Zm-.368-7.895a7.986 7.986 0 0 0-1.745-.209c-1.898.006-3.256 1.161-3.256 4.252 0 2.342.705 3.554 2.215 3.554 1.745 0 2.786-1.968 2.786-4.1V14.07Zm7.812 4.271c-.032 2.342 1.168 3.472 3.567 3.472 1.269 0 2.652-.28 3.77-.78l.304 2.493c-1.37.527-3.008.806-4.626.806-4.113 0-6.404-1.986-6.404-6.39 0-3.827 2.19-6.645 6.067-6.645 3.77 0 5.439 2.488 5.439 5.585 0 .425-.026.926-.108 1.46h-8.009Zm2.577-4.683c-1.384 0-2.342.984-2.526 2.494h4.76c.05-1.561-.832-2.494-2.234-2.494Zm14.31 8.275h-.031c-.622 1.416-2.209 2.4-4.138 2.4-2.335 0-3.694-1.29-3.694-3.3 0-2.996 3.072-4.583 7.463-4.583v-.679c0-1.307-.647-1.993-2.519-1.993-1.174 0-2.735.381-3.827.984l-.285-2.697c1.3-.45 2.97-.768 4.633-.768 4.162-.006 5.33 1.606 5.33 4.34l.007 5.973.006 2.468h-2.945v-2.145Zm-.4-3.401c-3.509.006-4.29.983-4.29 1.992 0 .806.572 1.333 1.536 1.333 1.638 0 2.754-1.51 2.754-3.02v-.305Z" fill="#1E1E1B"/>
</svg>
