<svg height="30" viewBox="0 0 110 30" width="110" xmlns="http://www.w3.org/2000/svg" xmlns:xlink="http://www.w3.org/1999/xlink"><linearGradient id="a" gradientUnits="userSpaceOnUse" x1="42.437" x2="42.437" y1="6.587" y2="24.391"><stop offset="0" stop-color="#008053"/><stop offset=".6" stop-color="#7fcaad"/><stop offset="1" stop-color="#00a66d"/></linearGradient><linearGradient id="b" gradientUnits="userSpaceOnUse" x1="42.408" x2="42.408" y1="2.811" y2="22.822"><stop offset="0" stop-color="#00a66d"/><stop offset=".3" stop-color="#7fcaad"/><stop offset=".55" stop-color="#00a66d"/><stop offset=".84" stop-color="#008053"/><stop offset=".89" stop-color="#00895c"/><stop offset=".97" stop-color="#00a173"/><stop offset="1" stop-color="#00ac7d"/></linearGradient><linearGradient id="c"><stop offset="0" stop-color="#00b286"/><stop offset="1" stop-color="#00a66d"/></linearGradient><linearGradient id="d" gradientUnits="userSpaceOnUse" x1="45.616" x2="45.616" xlink:href="#c" y1="21.718" y2="8.766"/><linearGradient id="e" gradientUnits="userSpaceOnUse" x1="59.65" x2="59.65" xlink:href="#c" y1="135.845" y2="31.017"/><linearGradient id="f" gradientUnits="userSpaceOnUse" x1="106.358" x2="106.358" xlink:href="#c" y1="115.218" y2="24.595"/><linearGradient id="g" gradientUnits="userSpaceOnUse" x1="92.284" x2="92.284" xlink:href="#c" y1="80.634" y2="26.754"/><path d="m34 7h16.87v16.87h-16.87z" fill="url(#a)"/><path d="m50.35 15.54c0 3.48.16 7.12.16 7.12.01.08 0 .16-.02.24-.03.08-.07.15-.13.21-.05.07-.12.12-.19.15-.07.04-.15.06-.24.06h-14.61c-.33 0-.55-.29-.58-.66-.08-.65-.14-1.29-.2-1.94-.05-.65-.1-1.3-.14-1.94-.03-.65-.06-1.3-.07-1.95-.02-.65-.03-1.3-.02-1.95-.01-.58-.02-1.16 0-1.74.01-.57.03-1.15.06-1.73.04-.58.09-1.15.14-1.73.06-.57.13-1.15.22-1.72.05-.38.26-.66.59-.66h14.6c.08 0 .16.03.23.06.08.04.14.09.2.15.05.06.09.13.12.21.02.08.04.16.03.24 0 .08-.15 4.05-.15 7.58z" fill="url(#b)"/><path d="m47.1 11.56c-1.04.61-1.36.66-2.5 1.34l.06-.13c.12-.12.23-.23.34-.35.1-.12.21-.25.31-.37.11-.13.21-.25.31-.38s.19-.26.29-.39c-.31.01-.62.03-.92.05-.31.03-.61.06-.92.09-.3.04-.6.08-.91.12-.3.05-.6.1-.9.16l.06-.12c.29-.13.6-.25.9-.36.31-.11.62-.21.93-.31.31-.09.63-.17.95-.24s.64-.13.96-.18c-.2-.15-.4-.3-.6-.44-.21-.13-.42-.27-.63-.39-.21-.13-.43-.25-.65-.37-.21-.11-.44-.22-.66-.32l.05-.12c.36.05.71.11 1.06.19s.69.18 1.03.29.68.23 1.01.37.65.3.97.47c.11-.03.22-.05.32-.07.11-.02.22-.04.34-.06.11-.01.22-.02.33-.03s.22-.02.33-.02-.09.39-.78.86c.17.46-.24 3.01-.58 3.68-.01-1.05-.11-2.39-.5-2.97z" fill="url(#d)"/><path d="m39.48 20.68.05-.12c-.14-.04-.28-.09-.42-.15-.13-.05-.27-.11-.4-.18s-.26-.14-.38-.22-.24-.17-.36-.26c.04-.1.08-.19.12-.29.04-.09.09-.18.14-.27s.1-.18.15-.27c.06-.09.12-.17.18-.26l.05-.11c-.47.07-.9.24-1.32.32-.07-.17-.14-.33-.2-.51-.07-.17-.13-.34-.18-.52-.05-.17-.09-.35-.13-.53s-.07-.36-.1-.54l-.07.11c-.03.17-.05.35-.06.53s-.02.36-.02.53c0 .18.01.36.02.54s.03.35.06.53c-.08.01-.16.03-.23.05-.08.01-.16.03-.24.05-.07.02-.15.04-.23.06-.07.02-.15.04-.22.06l-.06.12c.1.07.21.13.31.2.11.06.21.12.32.18.1.07.21.12.32.18s.22.12.33.17c.05.13.12.26.19.38.07.13.15.25.23.37.08.11.17.23.27.33.09.11.19.22.29.31l.06-.11c-.03-.08-.05-.15-.07-.23s-.04-.16-.05-.24-.02-.16-.03-.24c0-.08 0-.16 0-.24.14.04.27.08.41.11s.28.06.42.08.28.04.42.05c.15.02.29.02.43.03z" fill="url(#e)"/><path d="m41.02 12.23c-.04.07-.08.15-.12.22-.03.08-.07.16-.1.23-.04.08-.07.16-.1.24-.03.07-.06.15-.09.23h-.04c.25.04.49.08.74.14.24.05.48.11.72.19.23.07.47.16.7.25s.46.2.68.31l-.06.11c-.21-.04-.42-.08-.63-.11-.22-.03-.43-.05-.64-.06-.22-.02-.43-.02-.65-.02-.21 0-.42.01-.64.02-.05.01-.1.01-.15.02-.04 0-.09.01-.14.02s-.1.02-.15.03c-.04.01-.09.03-.14.04-.06.17-.12.34-.17.5-.05.17-.1.34-.15.51-.04.17-.08.35-.12.52-.03.17-.06.35-.09.52l-.05.12c-.25-.58-.58-1.78-.58-1.78-.2.14-.4.28-.6.42-.2.15-.39.29-.58.44-.19.16-.38.31-.57.47-.18.16-.36.32-.54.49.11-.23.23-.46.35-.68.13-.23.27-.44.41-.65.15-.21.3-.42.47-.61.16-.2.33-.39.51-.57-.12-.08-.25-.15-.38-.21-.13-.07-.27-.12-.41-.16s-.29-.07-.43-.09c-.15-.02-.29-.03-.44-.03l.05-.11c.14-.03.27-.05.4-.07s.27-.04.4-.05c.14-.02.27-.03.4-.04.14-.01.27-.01.41-.02.08 0 .16 0 .23-.01h.24.24c.08.01.16.01.23.01.12-.09.24-.17.37-.25.12-.07.25-.15.38-.21.14-.07.27-.13.41-.18s.28-.1.42-.14z" fill="url(#f)"/><path d="m42.67 19.61c-.27.37-.51.66-.81.99-.11.02-.23.04-.34.06-.12.01-.23.02-.35.03-.11 0-.23.01-.34.01-.12 0-.24-.01-.35-.02l-.06.13c.07.03.15.07.23.1.07.03.15.06.23.09.08.02.15.05.23.07s.17.04.25.06c-.07.05-.14.1-.21.15s-.14.1-.21.15-.14.1-.22.14c-.07.05-.14.09-.22.14l-.06.11c.16-.03.31-.07.46-.11.15-.05.29-.1.44-.15.14-.06.29-.12.43-.18s.28-.13.42-.21c.06.01.12.01.18.01.05 0 .11-.01.17-.01s.12-.01.18-.02c.06 0 .12-.01.18-.02l.05-.12c-.04-.12-.14-.19-.17-.36.11-.09.22-.17.32-.26.11-.09.22-.19.32-.28s.2-.19.3-.29c.1-.09.2-.19.3-.29l.06-.12c-.11.08-.22.16-.33.24-.11.07-.22.15-.34.22-.11.08-.23.15-.34.22-.12.07-.24.13-.35.2 0-.23-.04-.43-.05-.68z" fill="url(#g)"/><g fill="#fff"><path d="m47.16 11.44c-1.04.58-1.36.66-2.5 1.34.12-.13.24-.26.35-.39.12-.13.23-.26.34-.39.1-.14.21-.27.31-.41s.2-.29.3-.43c-.31.01-.61.03-.92.05-.3.03-.61.06-.91.09-.3.04-.61.08-.91.12-.3.05-.6.1-.9.16.3-.14.6-.28.91-.4s.63-.23.94-.33c.32-.1.64-.19.97-.27.32-.08.65-.14.98-.2-.2-.15-.4-.29-.61-.43-.2-.14-.41-.27-.62-.4-.22-.12-.43-.24-.65-.36-.22-.11-.44-.22-.67-.32.36.03.72.07 1.07.14.36.06.71.14 1.05.24.35.1.69.21 1.03.34.33.13.66.28.98.44.11-.02.22-.04.33-.05.11-.02.22-.03.33-.04s.23-.02.34-.03h.33c-.04.09-.08.17-.14.26-.05.08-.11.16-.18.23s-.14.14-.22.2-.16.11-.25.16c.17.46-.24 3-.58 3.68-.02-1.05-.11-2.42-.5-3z"/><path d="m39.53 20.56c-.14-.05-.28-.11-.41-.17s-.27-.14-.39-.21c-.13-.08-.25-.17-.37-.26-.11-.09-.23-.18-.33-.29.03-.09.07-.19.11-.28.05-.1.09-.19.14-.28s.1-.18.16-.27c.05-.09.11-.17.17-.25-.49.07-.84.12-1.27.2-.08-.16-.16-.31-.22-.47-.07-.16-.14-.33-.19-.49-.06-.17-.11-.33-.15-.5s-.08-.34-.11-.52c-.02.18-.04.36-.06.54-.01.17-.02.35-.02.53s.01.36.02.53c.02.18.04.36.06.54-.08.02-.16.04-.25.07-.08.02-.16.05-.24.08s-.16.06-.24.09-.16.06-.24.1c.1.06.21.13.31.19.11.06.22.13.32.19.11.05.22.11.33.17s.22.11.33.16c.06.13.13.26.2.39.07.12.15.24.23.36s.17.23.26.34c.1.11.2.21.3.31-.03-.09-.05-.17-.06-.26-.02-.09-.03-.18-.04-.27s-.01-.18-.01-.27c.01-.09.01-.18.02-.27.14.04.27.08.41.11.13.03.27.06.4.08.14.02.28.04.42.05.13.01.27.02.41.03z"/><path d="m41.09 12.1c-.05.07-.1.14-.14.21-.04.08-.08.15-.12.23-.04.07-.08.15-.11.23-.03.07-.06.15-.09.23.24.04.49.09.73.15s.47.14.71.22c.23.08.46.18.68.29.23.1.45.22.66.35-.21-.05-.42-.08-.64-.11-.21-.03-.42-.05-.64-.07-.21-.01-.43-.02-.64-.02-.22.01-.43.01-.65.03-.04 0-.09.01-.14.01-.05.01-.1.01-.15.02s-.1.02-.14.04c-.05.01-.1.02-.15.04-.06.17-.13.35-.18.53-.06.18-.11.35-.16.54-.05.18-.09.36-.13.54s-.08.37-.11.55c-.24-.58-.58-1.74-.58-1.74-.2.14-.39.28-.59.42-.19.15-.38.3-.57.45s-.37.31-.55.47-.36.33-.54.49c.11-.23.23-.45.36-.68.12-.22.26-.43.41-.65.14-.21.3-.41.46-.61.17-.19.34-.38.52-.57-.13-.08-.26-.15-.39-.22-.14-.06-.28-.12-.42-.16s-.29-.07-.44-.1c-.15-.02-.3-.03-.44-.03.13-.04.27-.08.4-.11.14-.03.28-.06.41-.09.14-.02.28-.04.42-.06l.42-.03c.08 0 .16-.01.24-.01h.23.24c.08 0 .16.01.24.01.12-.09.24-.17.36-.25.13-.08.26-.15.39-.22.13-.06.27-.12.41-.18.14-.05.28-.1.42-.14z"/><path d="m42.72 19.49c-.07.09-.13.17-.2.26-.06.08-.13.17-.19.25-.07.08-.14.17-.21.25s-.14.16-.21.24c-.12.03-.24.06-.35.09-.12.02-.24.04-.36.06-.12.01-.24.03-.36.03-.12.01-.25.02-.37.01.08.04.15.08.23.11.07.03.15.06.23.09s.16.05.24.07c.08.03.16.04.24.06-.07.06-.14.13-.22.19-.07.06-.15.12-.22.18-.08.06-.15.12-.23.17-.08.06-.16.11-.24.16.15-.03.3-.07.45-.11.15-.05.29-.1.44-.15.15-.06.29-.12.43-.18s.28-.13.42-.21h.18.17c.06-.01.12-.01.18-.02s.11-.02.17-.02c-.01-.04-.02-.08-.03-.12s-.02-.08-.03-.12-.02-.08-.03-.12-.02-.08-.02-.12c.11-.09.22-.18.32-.27.11-.09.21-.18.32-.27.1-.1.2-.19.3-.29s.2-.2.3-.3c-.1.07-.21.15-.31.21-.11.07-.22.14-.32.2-.11.06-.22.13-.33.18-.12.06-.23.12-.34.17-.02-.23-.05-.42-.05-.68z"/></g><path d="m61.1 12.39v.96c-.18-.03-.36-.04-.54-.06s-.36-.03-.54-.04c-.17-.01-.35-.02-.53-.03-.18 0-.36-.01-.54-.01 0 .8-.05 1.85-.05 2.33 0 .58 0 2.54.11 3.45h-1.84c.09-.91.11-2.91.11-3.45 0-.46 0-1.51-.05-2.33-.18 0-.36.01-.54.01-.18.01-.35.02-.53.03s-.36.02-.54.04-.36.03-.53.06v-.96z" fill="#231f20"/><path d="m67.43 12.39v.96c-.23-.03-.46-.04-.69-.06-.22-.01-.45-.02-.68-.03-.23 0-.46-.01-.69-.01s-.46 0-.68.01c-.25 0-.45 0-.79 0 0 .61-.03 1.36-.03 1.87h2.4v1l-2.41-.05c0 .58 0 1.4.04 2.07 1.25 0 2.48 0 3.71-.1v.92h-5.47c.08-.91.09-2.87.09-3.44s-.04-2.38-.08-3.14z" fill="#231f20"/><path d="m72.23 12.39c1.16 0 2.42.43 2.42 1.52-.02.18-.07.35-.15.52-.07.16-.17.31-.3.45-.12.13-.27.24-.43.32s-.33.14-.51.17c1.16.35 1.74.96 1.74 1.79 0 1.34-1.58 1.81-3.09 1.81h-3.05c.09-.87.11-2.11.11-3.45 0-.9 0-2.27-.09-3.13zm-1.04.73c-.05 0-.1 0-.15 0s-.09 0-.14.01c-.05 0-.1.01-.15.01-.05.01-.09.01-.14.02-.04.87-.06 1.34-.06 2.36 0 1.2 0 1.69.05 2.66h.76c1.27 0 1.9-.37 1.9-1.1 0-.87-1.04-1.17-1.83-1.17h-.37l.37-.93h.22c.54 0 1.3-.24 1.3-.9 0-.67-.45-.96-1.76-.96z" fill="#231f20" fill-rule="evenodd"/></svg>