<svg width="110" height="30" fill="none" xmlns="http://www.w3.org/2000/svg">
    <path d="M48.275 5.461H29.44v19.09h18.835V5.462Z" fill="#fff"/>
    <path d="M57.692 15.029 48.275 5.46v19.113l9.417-9.545ZM38.857 15.029l9.418-9.568H29.44l9.417 9.568ZM20 15.029l9.44 9.545V5.461L20 15.029Z" fill="#DB0011"/>
    <path d="m38.857 15.029-9.417 9.545h18.835l-9.418-9.545Z" fill="#DB0011"/>
    <path d="M65.958 15.59h-3.413v3.414H60.84V11.01h1.706v3.279h3.413v-3.28h1.706v7.996h-1.706V15.59ZM71.785 19.162c-1.706 0-3.102-.697-3.124-2.606h1.706c.022.854.51 1.37 1.44 1.37.688 0 1.485-.36 1.485-1.145 0-.63-.532-.809-1.418-1.078l-.576-.157c-1.241-.36-2.482-.854-2.482-2.291 0-1.775 1.64-2.381 3.124-2.381 1.53 0 2.859.539 2.881 2.313h-1.706c-.067-.718-.488-1.145-1.285-1.145-.643 0-1.263.337-1.263 1.055 0 .584.531.764 1.64 1.123l.664.202c1.352.427 2.216.899 2.216 2.247-.022 1.796-1.75 2.492-3.302 2.492ZM76.04 11.031h2.748c.51-.022 1.041 0 1.55.09.954.224 1.685.853 1.685 1.931 0 1.034-.643 1.55-1.573 1.797 1.063.202 1.86.741 1.86 1.932 0 1.819-1.772 2.223-3.146 2.223h-3.102l-.022-7.973Zm2.748 3.324c.753 0 1.529-.157 1.529-1.078 0-.831-.71-1.056-1.419-1.056h-1.196v2.134h1.086Zm.155 3.459c.797 0 1.573-.18 1.573-1.168s-.665-1.168-1.485-1.168H77.68v2.336h1.263ZM86.743 19.162c-2.549 0-3.679-1.64-3.679-4.088 0-2.448 1.263-4.223 3.767-4.223 1.574 0 3.102.72 3.147 2.516h-1.773c-.088-.809-.62-1.213-1.374-1.213-1.55 0-2.016 1.684-2.016 2.965 0 1.28.465 2.762 1.95 2.762.775 0 1.352-.426 1.462-1.235H90c-.177 1.842-1.618 2.515-3.257 2.515Z" fill="#000"/>
</svg>
