<svg width="110" height="30" fill="none" xmlns="http://www.w3.org/2000/svg">
    <path fill-rule="evenodd" clip-rule="evenodd" d="M74.049 10.116a.57.57 0 0 1-.13.152.864.864 0 0 1-.142.141c-.054.043-.108.087-.162.12-.055.032-.12.065-.185.097-.315.13-.076.13.13.196 2.496.814 1.628 4.623-1.476 4.623h-5.318V6.22h5.069c2.214 0 3.603 2.279 2.214 3.896ZM56.976 6.22h.944c.109.01.206.021.304.043.098.022.195.054.293.098.087.043.174.087.26.152.087.054.163.119.228.195l4.711 6.143V6.22h1.53v9.225h-.977a.968.968 0 0 1-.455-.12.674.674 0 0 1-.196-.151.897.897 0 0 1-.163-.185l-4.981-6.403v6.848h-1.52l.022-9.214Zm-4.2.119a4.561 4.561 0 0 1 1.573 1.053 4.54 4.54 0 0 1 1.031 1.595c.228.597.337 1.227.304 1.867a5.08 5.08 0 0 1-.065.912 4.91 4.91 0 0 1-.25.89 4.822 4.822 0 0 1-.401.825c-.152.26-.337.51-.543.738l1.216 1.226c-.076.065-.152.12-.228.163a1.37 1.37 0 0 1-.25.13c-.086.033-.184.055-.271.076a2.523 2.523 0 0 1-.282.044l-.26-.033a1.636 1.636 0 0 1-.488-.195 3.44 3.44 0 0 1-.207-.163l-.348-.358a6.54 6.54 0 0 1-.564.26c-.195.076-.39.13-.597.185a3.755 3.755 0 0 1-.608.108 3.961 3.961 0 0 1-.618.044c-.64.01-1.27-.109-1.867-.348a4.622 4.622 0 0 1-1.563-1.052 4.595 4.595 0 0 1-1.031-1.585 4.761 4.761 0 0 1-.315-1.867c-.022-.64.076-1.27.304-1.867a4.863 4.863 0 0 1 1.03-1.595 4.56 4.56 0 0 1 1.575-1.053 4.56 4.56 0 0 1 1.867-.336c.629-.022 1.27.097 1.855.336Zm-1.726 5.676c.173-.065.369-.097.553-.086.185 0 .37.043.543.119.174.065.326.174.456.304l.76.76c.119-.163.217-.337.303-.521.077-.185.152-.37.207-.565.054-.195.097-.39.13-.597.022-.195.032-.401.032-.597 0-2.03-1.248-3.549-3.114-3.549-1.878 0-3.126 1.52-3.126 3.55 0 2.018 1.27 3.549 3.126 3.549.119 0 .238-.011.358-.022.108-.011.228-.033.347-.065a2.08 2.08 0 0 0 .347-.098c.109-.043.217-.087.326-.141l-1.715-1.747c.13-.13.293-.228.467-.294Zm19.667 6.827c.228-.021.445.033.64.13.195.098.358.261.478.446.108.195.162.412.162.64-.01.217-.087.434-.206.619-.022.032-.043.054-.076.087l-.076.075a.96.96 0 0 1-.087.055c-.032.021-.065.043-.097.054-.152.098-.033.098.054.098 1.183.38.781 2.203-.695 2.203h-2.398v-4.407h2.3Zm-18.766 0h.434c.065 0 .14 0 .206.011a.7.7 0 0 1 .206.044c.065.021.12.054.185.087l.163.13 1.834 2.822v-3.094h.76v4.407h-.467a.39.39 0 0 1-.12-.022c-.043 0-.075-.021-.108-.032a.236.236 0 0 1-.098-.076.332.332 0 0 1-.087-.087l-2.062-3.04v3.279h-.825l-.021-4.429Zm8.596 0h.434c.065 0 .14 0 .206.011a.7.7 0 0 1 .206.044c.065.021.13.054.185.087l.163.13 1.823 2.822v-3.094h.76v4.407h-.478c-.032 0-.076-.01-.12-.022-.032 0-.064-.021-.108-.032a.594.594 0 0 1-.173-.163l-2.063-3.04v3.279h-.814l-.021-4.429Zm16.215 0h.434c.065 0 .141 0 .206.011a.7.7 0 0 1 .207.044c.065.021.119.054.184.087l.163.13 1.813 2.822v-3.094h.77v4.407h-.456a.558.558 0 0 1-.12-.022c-.032 0-.075-.021-.108-.032-.032-.022-.065-.044-.097-.076a.623.623 0 0 1-.076-.087l-2.063-3.04v3.279h-.835l-.022-4.429Zm-30.25-1.335h4.842v.228a.488.488 0 0 1-.044.25.576.576 0 0 1-.14.217.644.644 0 0 1-.218.13.542.542 0 0 1-.26.033h-3.18v1.584h2.387v.858h-2.388v2.442h-.998v-5.742Zm4.842 1.335v4.407h-.13a.566.566 0 0 1-.228-.043.434.434 0 0 1-.196-.109.62.62 0 0 1-.163-.174.74.74 0 0 1-.076-.217v-3.864h.793Zm7.26 0 .641 1.618 1.064 2.81h-.565a.392.392 0 0 1-.119-.021.403.403 0 0 1-.12-.054c-.032-.022-.065-.055-.097-.087a.392.392 0 0 1-.076-.109l-.358-.933h-1.672l-.456 1.205h-.803l1.075-2.811.63-1.618h.857Zm-.455 1.02-.575 1.52h1.128l-.553-1.52Zm16.595-1.02.64 1.618 1.064 2.81h-.553c-.044 0-.087-.01-.13-.021-.044-.01-.077-.033-.12-.054a.33.33 0 0 1-.087-.087.392.392 0 0 1-.076-.109l-.358-.933h-1.671l-.456 1.205h-.782l1.064-2.811.64-1.618h.825Zm-.456 1.02-.575 1.52h1.14l-.565-1.52Zm-8.889 2.551c.098.055.195.109.293.152a1.658 1.658 0 0 0 .64.13s.89.033.89-.564-.965-.76-.965-.76c-1.02-.271-1.422-.65-1.422-1.367s.542-1.26 1.66-1.26c.402-.021 1.921.24 1.27 1.173a2.5 2.5 0 0 0-.26-.217 2.634 2.634 0 0 0-.304-.152 1.206 1.206 0 0 0-.326-.087 1.25 1.25 0 0 0-.347-.022s-.803-.043-.803.565c-.011.966 2.377.39 2.377 2.051 0 .716-.64 1.368-1.759 1.368-.152.01-.314 0-.466-.033a2.08 2.08 0 0 1-.445-.12 2.092 2.092 0 0 1-.413-.206 3.125 3.125 0 0 1-.369-.293l.5-.575c.076.076.162.152.25.217Zm15.727-3.549h.825v2.03l1.856-2.03h1.02l-1.52 1.65L85 23.27c-.076.043-.163.065-.25.087-.087.01-.173.021-.26.01a.748.748 0 0 1-.26-.054 1.158 1.158 0 0 1-.24-.108l-1.237-2.084-.77.868v1.259h-.869l.022-4.385Zm-11.939.63v3.125h1.639a.543.543 0 0 0 .228-.054.514.514 0 0 0 .206-.13.614.614 0 0 0 .13-.195.635.635 0 0 0 .055-.24v-.053c0-.326-.434-.565-.771-.565h-.76c-.304 0-.488-.26-.488-.651h1.248a.591.591 0 0 0 .239-.054.614.614 0 0 0 .38-.565v-.054c0-.076-.022-.141-.044-.217a.522.522 0 0 0-.13-.174.472.472 0 0 0-.184-.13.7.7 0 0 0-.207-.043h-1.541Zm-.857-11.95v6.534h3.798c.174 0 .337-.044.5-.109.152-.065.304-.152.423-.271a1.343 1.343 0 0 0 .369-.923v-.098c0-.694-.912-1.182-1.596-1.182h-1.92c-.641 0-1.032-.554-1.032-1.379h2.833c.174 0 .337-.032.489-.098a1.33 1.33 0 0 0 .412-.282c.12-.12.217-.26.282-.412.065-.163.098-.326.098-.489v-.108c0-.163-.033-.315-.098-.456a1.1 1.1 0 0 0-.25-.38 1.232 1.232 0 0 0-.39-.26 1.262 1.262 0 0 0-.456-.087H68.34Z" fill="#00193E"/>
    <path d="m34.938 9.678-.003.849.6-.6 2.557-2.557c.136.074.262.142.388.22l.009.005.009.005c.129.07.259.15.39.24l.005.003c.074.05.14.097.212.148.054.04.111.08.179.127.117.089.227.178.35.28l-4.756 4.768a.959.959 0 0 1-.166.135l-.01.005-.008.007a.74.74 0 0 1-.17.087l-.009.004-.01.004a1.073 1.073 0 0 1-.215.065.998.998 0 0 1-.218.024.835.835 0 0 1-.197-.022l-.023-.006-.023-.002a.82.82 0 0 1-.181-.05 2.654 2.654 0 0 1-.206-.11 1.437 1.437 0 0 1-.164-.141l-4.767-4.767c.119-.099.239-.19.366-.285.133-.099.25-.187.375-.264l.014-.008.013-.01c.113-.085.239-.163.368-.232l.01-.005.008-.005c.125-.077.252-.146.391-.216l2.553 2.553.598.597V6.421l.106-.015.114-.016c.08-.012.132-.018.179-.018h.022l.021-.003c.032-.004.063-.006.104-.009h.002c.03-.002.07-.005.112-.01H34.289c.043.005.084.008.115.01h.004c.044.003.071.005.094.008l.024.004h.025c.044 0 .089.005.17.015l.022.003.111.016.095.014-.01 3.258Z" fill="url(#a)" stroke="#868685" stroke-width=".7"/>
    <path d="m33.207 20.412.002-.849-.6.6-2.556 2.556a7.727 7.727 0 0 1-.388-.219l-.009-.005-.009-.005a4.097 4.097 0 0 1-.39-.24l-.005-.003a7.394 7.394 0 0 1-.212-.148c-.054-.04-.111-.08-.179-.127a8.876 8.876 0 0 1-.35-.28l4.756-4.768a.947.947 0 0 1 .166-.135l.01-.006.008-.006a.748.748 0 0 1 .17-.087l.009-.004.01-.004c.064-.029.123-.044.215-.065a.998.998 0 0 1 .218-.024c.073 0 .142.008.197.022l.023.006.023.002a.819.819 0 0 1 .181.05c.078.039.143.072.206.11.056.042.114.091.164.141l4.767 4.767c-.119.099-.239.189-.366.285-.133.099-.25.187-.375.264l-.014.008-.013.01a2.94 2.94 0 0 1-.368.232l-.01.005-.008.005a5.141 5.141 0 0 1-.391.216l-2.553-2.553-.598-.597v4.103l-.106.015-.114.016c-.08.012-.132.018-.179.018h-.022l-.021.003c-.032.004-.063.006-.104.009h-.002c-.03.002-.07.005-.112.01H33.856a2.13 2.13 0 0 0-.115-.01h-.004a1.346 1.346 0 0 1-.093-.008l-.025-.004h-.025c-.044 0-.089-.005-.17-.015l-.022-.003-.111-.016-.095-.014.01-3.258Z" fill="url(#b)" stroke="#868685" stroke-width=".7"/>
    <path d="m28.678 14.207.849.002-.6-.6-2.556-2.556a7.57 7.57 0 0 1 .219-.388l.005-.009.005-.009c.07-.129.15-.258.24-.39l.003-.005c.05-.074.097-.14.148-.212.04-.054.08-.111.127-.179.089-.117.178-.227.28-.35l4.768 4.756a.959.959 0 0 1 .135.166l.005.01.007.008a.74.74 0 0 1 .087.17l.004.009.004.01c.029.064.044.123.065.215a.998.998 0 0 1 .024.217.835.835 0 0 1-.022.198l-.006.023-.002.023a.82.82 0 0 1-.05.181 2.654 2.654 0 0 1-.11.206 1.437 1.437 0 0 1-.141.164l-4.767 4.767a9.402 9.402 0 0 1-.285-.366c-.099-.133-.187-.25-.264-.375l-.008-.014-.01-.013a2.947 2.947 0 0 1-.232-.368l-.005-.01-.005-.008a5.124 5.124 0 0 1-.216-.391l2.553-2.553.597-.598h-4.103l-.015-.106-.016-.114a1.308 1.308 0 0 1-.018-.179v-.022l-.003-.021c-.004-.032-.006-.063-.009-.104v-.002a2.08 2.08 0 0 0-.01-.112V14.856c.005-.043.008-.084.01-.115v-.004c.003-.044.005-.071.008-.093l.004-.025v-.025c0-.044.005-.089.015-.17l.003-.022.016-.111.014-.095 3.258.01Z" fill="url(#c)" stroke="#868685" stroke-width=".7"/>
    <path d="m39.412 15.938-.849-.003.6.6 2.556 2.557a7.65 7.65 0 0 1-.219.388l-.005.009-.005.009c-.07.128-.15.258-.24.39l-.003.005a7.4 7.4 0 0 1-.148.212c-.04.054-.08.111-.127.179a8.875 8.875 0 0 1-.28.35l-4.768-4.756a.954.954 0 0 1-.135-.166l-.006-.01-.006-.008a.745.745 0 0 1-.087-.17l-.004-.009-.004-.01a1.067 1.067 0 0 1-.065-.215.997.997 0 0 1-.024-.217c0-.074.008-.143.022-.198l.006-.023.002-.023a.813.813 0 0 1 .05-.181c.039-.078.072-.143.11-.206.042-.056.092-.114.141-.164l4.767-4.767c.099.119.19.239.285.366.099.133.187.25.264.375l.008.014.01.013c.085.113.163.239.232.368l.005.01.005.008c.077.125.146.252.216.391l-2.553 2.553-.597.598h4.103l.015.106.016.114c.012.08.018.132.018.179v.022l.003.021c.004.032.006.063.009.104v.002c.002.03.005.07.01.112V15.289c-.005.043-.008.084-.01.115v.004c-.003.044-.005.071-.008.094l-.004.024v.025c0 .044-.005.089-.016.17l-.002.022-.016.111-.014.095-3.258-.01Z" fill="url(#d)" stroke="#868685" stroke-width=".7"/>
    <defs>
        <linearGradient id="a" x1="28.895" y1="9.767" x2="39.185" y2="9.767" gradientUnits="userSpaceOnUse">
            <stop stop-color="#AA004C"/>
            <stop offset=".35" stop-color="#AA004C"/>
            <stop offset=".61" stop-color="#760030"/>
            <stop offset="1" stop-color="#1A1A18"/>
        </linearGradient>
        <linearGradient id="b" x1="-93.351" y1="-157.117" x2="-93.351" y2="-83.126" gradientUnits="userSpaceOnUse">
            <stop stop-color="#003A73"/>
            <stop offset=".35" stop-color="#003A73"/>
            <stop offset=".73" stop-color="#0062AE"/>
            <stop offset="1" stop-color="#0062AE"/>
        </linearGradient>
        <linearGradient id="c" x1="28.902" y1="21.158" x2="28.902" y2="9.458" gradientUnits="userSpaceOnUse">
            <stop stop-color="#003A73"/>
            <stop offset=".35" stop-color="#003A73"/>
            <stop offset=".73" stop-color="#0062AE"/>
            <stop offset="1" stop-color="#0062AE"/>
        </linearGradient>
        <linearGradient id="d" x1="39.097" y1="9.333" x2="39.097" y2="21.172" gradientUnits="userSpaceOnUse">
            <stop stop-color="#0062AE"/>
            <stop offset=".27" stop-color="#0062AE"/>
            <stop offset=".65" stop-color="#003A73"/>
            <stop offset="1" stop-color="#003A73"/>
        </linearGradient>
    </defs>
</svg>
