<svg width="110" height="30" fill="none" xmlns="http://www.w3.org/2000/svg">
    <path d="M22.38 14.426c.089-.106 1.476-1.788 1.053-3.44a2.172 2.172 0 0 0-.75-1.256c-.073-.077-2.99-2.347-2.99-2.347-.32-.247-.58-.197-.58.113V9.72c.052.403.262.767.58 1.01l1.517 1.187c1.61 1.264.977 2.274.918 2.358a1.595 1.595 0 0 1-.606.389l-2.275-1.706c-.108-.082-.182-.02-.165.139v.365a.677.677 0 0 0 .286.477l1.396 1.048c-.227.141-.43.318-.603.523-.093.109-1.477 1.79-1.055 3.441.119.561.403 1.072.815 1.463.082.075.169.153.268.222l.072.055 2.6 1.805c.319.247.58.197.58-.11v-2.184a1.514 1.514 0 0 0-.58-1.005l-1.527-1.191c-1.621-1.271-.967-2.283-.919-2.356.197-.193.436-.336.698-.418l2.054 1.546c.108.082.182.02.162-.138l-.046-.407a.818.818 0 0 0-.318-.502l-1.116-.835c.198-.13.377-.289.531-.47ZM27.7 14.512c.335-.342.535-.798.565-1.281.017-.113.102-5.525.102-5.525 0-.405-.187-.579-.434-.39l-1.607 1.307a1.656 1.656 0 0 0-.527 1.105l.033 3.5c-.048 1.58-.67 2.168-1.038 2.283h-.03V9.976c0-.14-.076-.164-.206-.05l-.29.222c-.116.117-.206.165-.206.384V22.74c0 .137.073.162.205.049l.29-.21c.113-.117.207-.164.207-.385V15.85c.37.114.942.393.996 1.973v.493l-.052 2.798c0 .404.165.576.414.388l1.638-1.277c.311-.257.507-.632.541-1.039l.014-.692c0-.19-.011-.306-.014-.324-.08-.645-.244-1.059-.535-1.362-.498-.611-1.33-.96-1.986-1.122a3.594 3.594 0 0 0 1.92-1.174Z" fill="#E52629"/>
    <path d="M39.397 10.347a.976.976 0 0 0-.966.985c0 .545.432.986.966.986a.976.976 0 0 0 .966-.986.978.978 0 0 0-.966-.985ZM37.99 11.569v-1.222h-5.44l-.342 1.306h3.943l-4.095 6.813v1.282h5.616l.42-1.315H33.98l4.01-6.864ZM44.753 13.13a1.72 1.72 0 0 0-2.028.834V12.86l-1.532.27v6.61h1.532v-4.56s.455-1.142 1.733-.647l.295-1.403ZM38.639 19.748h1.531v-6.89l-1.532.282v6.608ZM45.593 13.235l-.216 1.468.13-.084a3.594 3.594 0 0 1 1.703-.679c1.337 0 .953 1.632.953 1.632-2.916-.166-3.501.95-3.618 2.244V18.05c0 .056 0 .107.013.158.058.521.375 1.666 2.01 1.666a2.922 2.922 0 0 0 1.57-.442v.312h1.457v-5.225c-.212-2.716-4.002-1.284-4.002-1.284Zm2.462 4.862a1.314 1.314 0 0 1-1.116.663c-.75-.016-.832-.802-.815-1.034.018-.232.048-1.25 1.768-1.169l.163.017v1.523ZM51.145 13.235l-.228 1.468.128-.084a3.596 3.596 0 0 1 1.703-.679c1.337 0 .955 1.632.955 1.632-2.918-.166-3.503.95-3.618 2.244v.235c0 .055 0 .106.011.157.061.521.375 1.666 2.013 1.666a2.923 2.923 0 0 0 1.569-.442v.312h1.46v-5.225c-.206-2.716-3.993-1.284-3.993-1.284Zm2.459 4.862a1.31 1.31 0 0 1-1.116.663c-.75-.016-.83-.802-.815-1.034.015-.232.05-1.25 1.768-1.169l.163.017v1.523ZM57.841 18.108V13.96h1.155l.384-1.079h-1.534v-1.814l-1.532.281v1.534h-.72v1.078h.72v4.148s-.135 1.817 1.675 1.769c.482.003.96-.1 1.397-.305l-.245-.918s-1.403.515-1.3-.546ZM80.906 19.748h1.113v-6.89l-1.113.194v6.696ZM76.876 19.748h1.115v-6.89l-1.115.194v6.696ZM89.42 12.877c-.86.02-1.656.47-2.13 1.202 0 0-.314-1.202-1.375-1.202-.793 0-1.59.626-1.937.94v-.885l-1.114.197v6.63h1.114v-5.021a3.279 3.279 0 0 1 1.3-.831c.912-.32 1.103.712 1.103 1.021v4.831h1.025v-4.862a4.929 4.929 0 0 1 1.317-.986c.745-.355 1.252.264 1.22.904v4.944H91v-5.428s-.154-1.454-1.58-1.454ZM79.844 18.636V10.36l-1.118.195v8.082s-.04 1.186 1.01 1.186c.27.003.537-.074.766-.22l-.188-.589a.34.34 0 0 1-.448-.187.358.358 0 0 1-.022-.19ZM62.658 10.347H61.53v9.392h1.128v-9.392ZM67.555 10.347h-1.292l-3.538 4.418 3.51 4.979h1.337L64 14.718l3.556-4.371ZM75.814 13.863l.327-.849h-1.62v-1.83l-1.045.252v1.567h-.867v.809h.846v4.712s.026 1.083.866 1.244a3.085 3.085 0 0 0 1.762-.203l-.016-.084-.115-.584c-.23.083-.471.124-.714.122-.42 0-.757-.201-.757-.75v-4.406h1.333Z" fill="#010202"/>
    <path d="M70.512 12.864c-1.375 0-2.151.528-2.151.528l-.191 1.205a3.334 3.334 0 0 1 2.184-.78c1.267.05.955 1.79.955 1.79-3.007-.144-3.88 1.038-3.88 2.37 0 1.333.955 1.866 2.082 1.866a2.557 2.557 0 0 0 1.757-.663v.557h1.066s.028-4.946-.022-5.437c-.05-.49-.424-1.427-1.8-1.436Zm.72 5.222c-.57.99-2.472 1.578-2.6-.221-.128-1.8 2.6-1.5 2.6-1.5v1.721Z" fill="#010202"/>
</svg>
