<svg height="30" viewBox="0 0 110 30" width="110" xmlns="http://www.w3.org/2000/svg" xmlns:xlink="http://www.w3.org/1999/xlink"><linearGradient id="a"><stop offset=".13" stop-color="#73ab2b"/><stop offset=".71" stop-color="#007f43"/></linearGradient><linearGradient id="b" gradientUnits="userSpaceOnUse" x1="18.625" x2="16.191" xlink:href="#a" y1="12.014" y2="8.896"/><linearGradient id="c" gradientUnits="userSpaceOnUse" x1="130.521" x2="29.414" xlink:href="#a" y1="163.388" y2="79.813"/><linearGradient id="d" gradientUnits="userSpaceOnUse" x1="130.819" x2="22.621" xlink:href="#a" y1="215.633" y2="292.82"/><linearGradient id="e" gradientUnits="userSpaceOnUse" x1="113.322" x2="73.171" xlink:href="#a" y1="339.017" y2="437.343"/><linearGradient id="f" gradientUnits="userSpaceOnUse" x1="93.748" x2="107.451" xlink:href="#a" y1="131.92" y2="65.527"/><linearGradient id="g" gradientUnits="userSpaceOnUse" x1="108.592" x2="145.208" xlink:href="#a" y1="95.33" y2="95.33"/><linearGradient id="h" gradientUnits="userSpaceOnUse" x1="20.404" x2="22.823" y1="15.288" y2="18.816"><stop offset=".05" stop-color="#73ab2b"/><stop offset=".76" stop-color="#007f43"/></linearGradient><linearGradient id="i" gradientUnits="userSpaceOnUse" x1="19.893" x2="20.984" y1="16.539" y2="19.969"><stop offset="0" stop-color="#73ab2b"/><stop offset=".71" stop-color="#007f43"/></linearGradient><path d="m81.21 17.18c0 1.71-1.08 2.56-3.1 2.56h-4.06c-.02 0-.04 0-.05-.01-.02 0-.04-.02-.05-.03-.02-.01-.03-.03-.04-.05s-.01-.04-.01-.06v-8.27c0-.02 0-.04.01-.06s.02-.04.04-.05c.01-.01.03-.03.05-.03.01-.01.03-.02.05-.02h4.24c1.49 0 2.52.9 2.52 2.24 0 .79-.35 1.43-.94 1.74h.07c.79.3 1.27 1.05 1.27 2.04zm-5.79-4.78c-.02.01-.04.02-.06.04-.01.01-.03.03-.04.05s-.01.04-.01.06v1.93c0 .02 0 .04.01.06s.03.03.04.05c.02.01.04.02.06.03s.04.01.06.01h2.52c.93 0 1.39-.5 1.39-1.25s-.49-.99-1.39-.99h-2.52c-.02 0-.04.01-.06.01zm4.36 4.8c0-.97-.5-1.3-1.73-1.32h-2.57c-.02 0-.04.01-.06.02s-.04.02-.06.04c-.01.02-.03.03-.04.05s-.01.05-.01.07v2.28c0 .02 0 .04.01.06s.03.04.04.05c.02.01.04.03.06.03.02.01.04.01.06.01h2.55c1.23 0 1.75-.33 1.75-1.29z" fill="#004481" fill-rule="evenodd"/><path d="m88.89 11.23-2.83 5.38c-.01.03-.03.05-.06.07-.02.01-.05.02-.08.02-.04 0-.07-.01-.09-.02-.03-.02-.05-.04-.06-.07l-2.83-5.38c-.01-.01-.02-.03-.03-.04s-.02-.02-.03-.02c-.02-.01-.03-.02-.05-.02-.01-.01-.03-.01-.04-.01h-1.36c-.02 0-.05 0-.07.01s-.04.02-.05.04-.02.04-.02.07c.01.02.01.04.03.06l4.45 8.34c.01.03.03.05.06.07.02.01.05.02.09.02.03 0 .06-.01.08-.02.03-.02.05-.04.06-.07l4.45-8.34c.02-.02.02-.04.03-.06 0-.03-.01-.05-.02-.07s-.03-.03-.05-.04-.05-.01-.07-.01h-1.36c-.01 0-.03 0-.04.01-.02 0-.03 0-.05.01-.01.01-.02.02-.04.03-.01.01-.01.03-.02.04z" fill="#004481"/><path d="m72.3 17.18c0 1.71-1.08 2.56-3.1 2.56h-4.05c-.02 0-.04 0-.06-.01-.02 0-.04-.02-.05-.03-.02-.01-.03-.03-.04-.05 0-.02-.01-.04-.01-.06v-8.27c0-.02.01-.04.01-.06.01-.02.02-.04.04-.05.01-.01.03-.03.05-.03.02-.01.04-.02.06-.02h4.23c1.49 0 2.52.9 2.52 2.24 0 .79-.35 1.43-.94 1.74h.07c.79.3 1.27 1.05 1.27 2.04zm-5.73-4.79c-.02 0-.04.01-.06.02-.02 0-.03.01-.05.03-.01.01-.02.03-.03.05s-.01.04-.01.06v1.93c0 .02 0 .04.01.06s.02.03.03.05c.02.01.03.02.05.03s.04.01.06.01h2.53c.92 0 1.4-.5 1.4-1.25s-.51-.99-1.4-.99zm4.3 4.81c0-.97-.5-1.3-1.73-1.32h-2.57c-.02 0-.04.01-.06.02s-.04.02-.06.04c-.01.02-.03.03-.04.05s-.01.05-.01.07v2.28c0 .02.01.04.02.06s.02.04.03.05c.02.01.04.03.06.03.02.01.04.01.06.01h2.55c1.23 0 1.75-.33 1.75-1.29z" fill="#004481" fill-rule="evenodd"/><path d="m90.31 18.41 2.84-5.38c.01-.03.03-.05.05-.07.03-.02.06-.03.09-.03s.06.01.08.03c.03.02.05.04.06.07l2.83 5.38c.01.01.02.02.03.04.01.01.02.02.03.02.02.01.03.02.05.02.01 0 .03.01.05 0h1.36c.02.01.04.01.06 0s.04-.03.05-.05c.01-.01.02-.04.02-.06s-.01-.04-.02-.06l-4.46-8.34c-.01-.03-.04-.05-.06-.07-.03-.01-.06-.02-.09-.02s-.06.01-.09.02c-.03.02-.05.04-.07.07l-4.45 8.34c-.02.02-.02.04-.02.06-.01.02 0 .05.01.06.01.02.03.04.05.05s.05.01.07 0h1.38.05c.01-.01.03-.01.04-.02s.03-.02.04-.03.02-.02.02-.03z" fill="#004481"/><g fill="#121212"><path d="m61.31 11.98c0-.06 0-.11-.01-.17-.01-.05-.03-.11-.05-.16s-.04-.1-.08-.14c-.03-.05-.06-.09-.11-.13-.03-.04-.07-.07-.11-.1-.05-.03-.1-.06-.14-.08-.05-.02-.1-.04-.16-.05-.05-.01-.1-.01-.16-.01-.05 0-.11.01-.16.02s-.11.02-.16.04-.1.05-.14.08c-.05.03-.09.07-.13.1-.02.03-.05.05-.07.08s-.04.06-.06.09-.04.06-.05.09c-.02.03-.03.06-.04.1 0 .01-.01.03-.01.05s-.01.05-.01.07v.06.06c0 .05 0 .1.02.15.01.06.02.11.04.16s.05.09.08.14c.03.04.06.08.1.12s.08.08.12.11c.05.03.1.06.15.08s.1.03.16.04c.05.01.11.01.16.01.06 0 .11 0 .16-.01.06-.01.11-.03.16-.05.04-.02.09-.05.14-.08.04-.03.08-.06.11-.1.04-.04.08-.08.11-.12.03-.05.06-.09.08-.14s.03-.1.04-.15c.01-.06.02-.11.02-.16z"/><path d="m61.37 19.77c-.09-.2-.11-.84-.11-1.61v-3.42c0-.72.07-1.36-.61-1.36-.1.02-.2.04-.3.06-.1.03-.2.06-.29.09-.1.04-.19.08-.29.12-.09.05-.18.1-.26.15.26.17.35.52.35 1.27v3.09c0 .9 0 1.39-.11 1.61z"/><path d="m57.42 19.9c-.66 0-1.12-.2-1.4-.59-.29-.4-.31-.77-.31-1.47v-3.47h-.97v-.77l.97-.11.11-1.51 1.29-.11v1.62h1.58v.88h-1.58v3.51c0 .68.27 1.01.82 1.01.09 0 .18-.01.27-.02.08-.01.17-.03.26-.06.09-.02.17-.05.26-.09.08-.03.16-.07.24-.12l.13.84c-.13.07-.26.13-.39.19-.14.05-.28.1-.42.14s-.28.07-.42.09c-.15.02-.29.03-.44.04z"/><path d="m36.68 19.77-.11-.62c-.11.12-.24.23-.38.33-.14.09-.28.17-.44.24-.15.07-.31.12-.48.15-.16.03-.33.05-.49.05-1.06-.02-1.89-.64-1.91-1.76-.05-2.01 2.04-2.63 3.68-2.15 0-.9.07-1.82-1.14-1.82-.16 0-.33.01-.49.03-.16.01-.33.04-.49.07-.16.04-.32.08-.47.13-.16.06-.31.12-.46.19l.18-.88c.14-.06.28-.12.43-.17s.29-.09.45-.12c.15-.04.3-.06.45-.08.16-.02.31-.02.47-.02 1.69 0 2.48.55 2.48 2.3v2.68c-.01.12-.01.24 0 .36 0 .12.01.24.01.37.01.12.03.24.04.36.02.12.04.24.06.36zm-.13-3.08c-1.34-.35-2.26.64-2.26 1.3s.4.92 1.03.92c.12 0 .23-.01.34-.03s.21-.05.32-.09c.1-.04.2-.09.3-.15.1-.05.19-.12.27-.19z" fill-rule="evenodd"/><path d="m52.48 19.77c.02-.07.03-.13.05-.19.01-.07.01-.13.02-.19.01-.07.01-.13.01-.2 0-.06 0-.13-.01-.19v-3.4c0-.84-.26-1.23-.88-1.23-.61 0-1.03.35-1.49.74v3.1c0 .35.02.68.02.94 0 .27.05.48.07.62h-1.54c.02-.13.03-.25.04-.38.02-.13.02-.25.03-.38 0-.13.01-.25.01-.38 0-.12-.01-.25-.01-.38v-3.2c0-.79-.11-1.1-.35-1.25.54-.27.87-.42 1.12-.42.24 0 .57.42.57.92.54-.57 1.31-.98 2.01-.98.71 0 1.23.24 1.54.74.02.04.04.08.05.11.02.04.04.08.05.12.02.04.03.07.04.11s.03.08.04.12c.01.09.03.18.04.26.01.09.02.18.03.27.01.08.01.17.01.26.01.09.01.18 0 .27v2.61c0 1.03.05 1.47.09 1.58z"/><path d="m42.39 14.43h-.35c-.44 0-.9.25-1.32.75v3.12c0 .92.02 1.36.07 1.47h-1.54c.01-.03.02-.06.02-.09.01-.03.01-.06.01-.09.01-.03.01-.06.01-.09s.01-.05.01-.08c.02-.31.02-.68.02-1.1v-3.27c0-.7-.11-1.1-.35-1.25.44-.22.85-.42 1.12-.42.26 0 .57.44.57.92.44-.66.96-.98 1.58-.98l.35.04z"/><path d="m46.19 19.77c-.02-.05-.03-.1-.04-.16-.01-.05-.02-.1-.03-.15s-.02-.1-.02-.15c-.01-.05-.02-.11-.02-.16-.12.13-.25.24-.38.33-.14.1-.29.18-.44.25-.16.06-.32.11-.48.14-.17.04-.34.05-.5.05-1.06-.02-1.89-.61-1.91-1.76-.05-2.01 2.04-2.63 3.68-2.12 0-.93.07-1.85-1.14-1.85-.1 0-.2 0-.31.01-.1.01-.2.02-.31.03-.1.01-.2.03-.3.05s-.21.04-.31.07c-.06.01-.11.03-.17.05s-.12.04-.18.07c-.05.02-.11.04-.16.07-.06.03-.11.06-.17.09l.16-.9c.14-.06.29-.12.44-.17s.3-.09.46-.12c.15-.04.31-.06.47-.08.15-.02.31-.02.47-.02 1.67 0 2.46.55 2.46 2.3v2.68c-.01.12-.01.24 0 .36 0 .12 0 .24.01.37.01.12.02.24.04.36s.04.24.06.36zm-.14-3.08c-1.33-.35-2.26.64-2.26 1.3s.4.92 1.04.92c.11 0 .22-.01.33-.03s.22-.05.32-.09.21-.09.3-.15c.1-.05.19-.12.27-.19z" fill-rule="evenodd"/><path d="m31.48 12.11c-.17-.07-.35-.13-.53-.19-.18-.05-.36-.09-.54-.13-.19-.03-.37-.06-.56-.08-.19-.01-.37-.02-.56-.02-.22 0-.44.01-.65.06-.22.04-.43.1-.63.18-.2.09-.39.19-.57.32s-.35.27-.5.43c-.15.17-.29.36-.41.56s-.23.41-.31.63-.14.45-.17.68c-.04.23-.06.46-.05.7 0 1.12.28 2.02.85 2.67.57.66 1.32.99 2.33.99.11 0 .22 0 .33-.01.12 0 .23-.01.34-.03s.22-.04.32-.06c.11-.03.22-.06.33-.1v-2.63h-1.19c0-.09-.01-.18-.01-.27-.01-.08-.02-.17-.03-.26s-.02-.18-.04-.26c-.01-.09-.03-.18-.05-.26l2.87.11c-.11.33-.11.74-.11 1.47v1.14.4c0 .13.01.27.02.4.01.14.02.27.04.4.01.13.03.27.05.4-.23.1-.48.18-.72.26-.25.07-.5.14-.75.19s-.51.09-.76.12c-.26.03-.51.04-.77.04-1.49 0-2.64-.41-3.47-1.22-.83-.82-1.29-1.91-1.29-3.34-.01-.32.02-.64.07-.96.06-.32.15-.63.28-.92.12-.3.27-.58.45-.85s.39-.51.62-.74c.9-.9 2.11-1.34 3.58-1.34s1.73.16 2.41.4z"/></g><path d="m18.8 13.95s.37-1.82-.53-4.17c0 0-.68-1.8-2.06-1.78 0 0-.83-.15-1.29 1.28 0 0 2.72 1.71 3.88 4.67z" fill="url(#b)"/><path d="m14.46 9.78s2.67 1.27 4.01 4.72c0 0-.66.37-1.89.29-1.22-.09-3.44-1.21-3.57-2.86-.13-1.64 1.45-2.15 1.45-2.15z" fill="url(#c)"/><path d="m18.54 15.75s-1.32-.64-4 1.05c-2.67 1.69-1.03 3.69.03 4.04.44-.31.86-.66 1.26-1.04.4-.37.76-.78 1.1-1.21.33-.43.64-.88.91-1.36s.5-.97.7-1.48z" fill="url(#d)"/><path d="m15.03 21.43s2.37-1.55 3.81-5.13c.08.49.12.99.11 1.48 0 .5-.06 1-.15 1.48-.1.49-.23.97-.41 1.43-.18.47-.41.91-.66 1.34-.26.42-1.61 2.15-2.7-.6z" fill="url(#e)"/><path d="m19.59 14.46s-.39-4.46 1.32-5.16c0 0 .92-.11 1.03 1.32 0 0-.11 1.66-2.35 3.84z" fill="url(#f)"/><path d="m19.88 14.79s1.95-1.61 2.43-3.76c0 0 .86.81.07 2.15s-1.58 1.69-2.5 1.61z" fill="url(#g)"/><path d="m20.05 15.53s1.21-.04 2.31 1.3c0 0 .89 1.12-.11 2.48 0 0-.58-2.24-2.2-3.78z" fill="url(#h)"/><path d="m19.7 15.79s1.38 1.04 2.17 3.93c0 0-.06 1.01-.9.95-.83-.07-1.14-.73-1.29-2.48 0 0 0-.77.02-2.4z" fill="url(#i)"/></svg>