<svg height="30" viewBox="0 0 110 30" width="110" xmlns="http://www.w3.org/2000/svg"><g fill="#00684b"><path d="m12 14.95c0-4.02 2.43-7.65 6.15-9.19s8-.69 10.84 2.16c2.85 2.85 3.7 7.13 2.15 10.85-1.54 3.72-5.17 6.14-9.2 6.14-1.3 0-2.6-.26-3.8-.76-1.21-.5-2.31-1.24-3.23-2.16s-1.66-2.02-2.16-3.23c-.49-1.21-.75-2.5-.75-3.81"/><path d="m50.57 12.58v2.54c-.02.19-.01.38.02.56s.08.37.15.54c.06.17.15.34.25.5.1.15.22.3.36.43l.25.26.25-.26c.13-.13.25-.28.35-.44.1-.15.19-.32.25-.49.07-.18.11-.36.14-.54.03-.19.04-.37.03-.56v-2.54h1.67v2.54c0 .36-.03.71-.11 1.06s-.19.69-.35 1.01c-.15.32-.34.62-.56.9s-.48.53-.76.75h-1.85c-.28-.22-.53-.47-.75-.75-.23-.28-.42-.58-.57-.9s-.27-.66-.35-1.01c-.07-.35-.11-.7-.1-1.06v-2.54z"/><path d="m35.22 11.13h1.66v3.08h.46l1.78-3.08h1.93l-1.78 3.14c1.49.18 1.67.82 1.67 2.07v2.5h-1.69v-2.47c0-.71-.4-.72-1.09-.72h-1.28v3.19h-1.66z"/><path d="m72.35 14.03h-1.59v4.81h-1.68v-4.81h-1.59v-1.45h4.86z"/><path d="m45.94 12.58h1.66v6.26h-5.39v-6.26h1.67v4.89h2.06z"/><path d="m60.08 13.95h-2.84v1.06h2.67v1.37h-2.67v1.09h2.91v1.37h-4.58v-6.26h4.51z"/><path d="m64.85 14.19v-1.61h1.67v1.72c0 1.41-.56 1.96-1.86 2.09v2.45h-1.67v-2.45c-1.66-.16-1.86-.81-1.86-2.09v-1.72h1.67v1.68c0 .71.4.72 1.1.72.71 0 .95-.06.95-.79"/><path d="m82.58 16.64v-4.06h1.67v4.17c0 1.67-.79 2.14-2.66 2.14-2.5 0-2.77-.64-2.77-2.14v-4.17h1.67v4.14c0 .7.4.71 1.1.71s.95-.05.95-.79"/><path d="m82.58 16.64v-4.06h1.67v4.17c0 1.67-.79 2.14-2.66 2.14-2.5 0-2.77-.64-2.77-2.14v-4.17h1.67v4.14c0 .7.4.71 1.1.71s.95-.05.95-.79"/><path d="m92.21 12.58h1.66v2.35h.5l1.68-2.35h1.95l-1.78 2.42c1.46.18 1.64.83 1.64 2.07v1.77h-1.63v-1.77c0-.71-.4-.72-1.09-.72h-1.27v2.45h-1.66z"/><path d="m89.22 18.84-1.31-1.84h-.7v1.84h-1.67v-6.22h5.33v4.44h-1.02l1.32 1.84zm0-4.81h-2.01v1.52h2.04z" fill-rule="evenodd"/><path d="m78.44 12.58h-2v6.26h-1.67v-6.26h-2v-1.45h5.67z"/><path d="m81.71 11.14.87-.87.87.87-.87.87z"/><path d="m79.66 11.13.87-.87.88.87-.88.88z"/></g><path d="m20.89 24.84 3.23-1.91-.62 1.86c-.13.02-.25.03-.38.05-.12.01-.25.03-.37.03-.13.01-.26.02-.38.03-.13 0-.26 0-.38.01-.38 0-.74 0-1.1-.07zm.67-9.77-4.68-2.95c-.13-.09-.26-.17-.4-.24s-.28-.13-.43-.18c-.14-.05-.29-.09-.44-.12-.16-.03-.31-.04-.46-.05h-1.57l3.11-1.9c.17-.11.36-.18.56-.22.19-.03.39-.02.59.02.19.05.38.13.54.25s.3.27.4.44zm-9.03.46 1.01-1.24c.81-1.02 1.56-1.99 3.79-.83l4.02 2.07zm9.78-.44 2.77-4.97c.1-.18.24-.33.4-.45.17-.12.35-.21.55-.25.2-.05.41-.05.61-.02.2.04.39.12.56.23l3.11 1.87h-1.56c-.16.01-.32.02-.47.05-.16.03-.31.07-.46.12s-.3.11-.44.18-.28.15-.41.24zm9.02.44h-8.8l4.03-2.07c2.23-1.16 2.98-.19 3.8.83zm-11.33-6.32c-.05-.08-.09-.16-.11-.25s-.04-.18-.04-.27.02-.19.04-.27c.02-.09.06-.18.11-.26l1.95-2.51 1.91 2.51c.05.08.1.16.13.25s.04.18.05.27c0 .09 0 .18-.02.27s-.05.18-.09.26c-.32.97-1.98 5.77-1.98 5.77s-1.67-4.8-1.95-5.77zm2.49 12.88 1.65-1.01-.64 1.7zm-1.6-5.94h2.06l-.98.78zm.09 1.78 3.1-1.87-.53 1.6-1.51.89zm-1.16-.12 3.11 1.78-1.03.69-1.55-.88zm1.21 3.49 3.05-1.84-.49 1.47-1.59 1.08zm-1.21-.11 3.08 1.87-.89.61-1.6-.89zm2.67-2.39 1.64-1.02-.64 1.68zm-2.67-2.77 1.68 1.01-.99.71zm0 3.45 1.61.99-.95.65zm1.6 4.39-1 .63-.66-1.6z" fill="#c99c00" fill-rule="evenodd"/></svg>