<svg height="30" viewBox="0 0 110 30" width="110" xmlns="http://www.w3.org/2000/svg"><path d="m82.47 17.89-.07.05-.06.06-.05.06-.06.06c-.04.05-.07.1-.1.16-.03.05-.05.11-.07.17-.03.05-.04.11-.06.17-.01.06-.02.12-.03.18-.01.07-.01.14-.01.2v.21c.01.06.01.13.02.2.02.06.03.13.05.19.01.08.04.15.06.22s.05.14.08.21c.02.07.05.14.09.21.03.07.06.14.1.2.04.08.08.15.13.22.04.07.09.14.14.21s.1.13.15.2c.06.06.11.12.17.19l1.76 1.91 1.32-.99c.05-.04.1-.08.15-.13.04-.05.08-.09.11-.15.04-.05.07-.1.1-.16s.05-.12.07-.18c.02-.07.03-.14.05-.21.01-.07.02-.14.02-.21.01-.08.01-.15 0-.22 0-.07-.01-.15-.02-.22-.02-.08-.04-.17-.06-.25-.02-.09-.05-.17-.08-.25-.02-.09-.06-.17-.09-.25-.04-.08-.07-.15-.12-.23-.04-.09-.09-.18-.14-.26-.05-.09-.1-.17-.16-.25s-.12-.16-.18-.24c-.06-.07-.13-.15-.2-.22l-.1-.1-.1-.1c-.01-.01-.02-.02-.03-.02-.01-.01-.02-.02-.03-.03 0-.01-.01-.02-.02-.02-.01-.01-.02-.02-.03-.02l-.1-.09-1.07 1.12-1.5-1.59" fill="#00c4b3"/><path d="m81.26 6-1.12 2.84c-.03.09-.06.18-.09.27s-.05.19-.07.28c-.02.1-.03.19-.05.28-.01.1-.02.2-.02.29v.29c0 .1.01.19.02.29.01.09.02.19.04.29.02.09.04.18.06.28.02.09.05.18.08.28.03.09.06.18.09.27.04.09.07.18.11.27s.09.17.13.26c.05.08.1.17.15.25s.1.16.16.24.12.15.18.23c.06.07.13.14.19.21l.1.1.1.09.09.08.1.07.95-1.68 1.72 1.73.09-.08.08-.1c.01 0 .02-.01.03-.02 0-.01.01-.01.02-.02 0-.01.01-.02.01-.03.01 0 .01-.01.02-.02l.08-.1c.05-.09.1-.17.15-.26.04-.08.08-.17.11-.27.04-.09.07-.18.09-.27.03-.1.05-.19.06-.29.02-.11.03-.22.04-.33s.02-.22.02-.33-.01-.22-.02-.33-.02-.22-.04-.33c-.02-.12-.04-.23-.07-.35-.02-.12-.06-.23-.09-.35-.04-.11-.08-.23-.13-.34-.04-.11-.09-.22-.15-.32-.05-.11-.1-.21-.16-.31s-.12-.19-.19-.29c-.07-.09-.14-.18-.21-.27-.08-.08-.16-.17-.24-.25z" fill="#00c4b3"/><path d="m79.11 13.04c-.03 0-.05 0-.08 0-.03.01-.06.01-.08.01-.03.01-.06.01-.08.02-.03.01-.05.02-.08.03-.03 0-.05.01-.07.02-.03.01-.05.02-.07.03-.03.01-.05.02-.07.04-.02.01-.04.03-.06.04-.03.02-.05.03-.07.05s-.04.03-.06.05c-.01.02-.03.04-.05.06s-.03.04-.05.06-.03.05-.05.07c-.01.03-.03.05-.04.08-.02.02-.03.05-.04.07-.02.03-.03.05-.04.08l-.62 1.54 1.54 1.68c.02.03.05.06.08.09.02.03.05.06.08.08.03.03.06.06.09.08.03.03.06.06.09.08.02.03.05.05.08.07s.06.05.09.07.06.04.09.06.06.04.09.06.06.03.09.05.06.03.09.05c.03.01.06.03.09.04s.06.03.09.04.05.02.08.03l.09.03c.03 0 .06.01.09.02.03 0 .06.01.09.01.03.01.06.01.08.01h.08.08c.03 0 .06 0 .08-.01h.08c.02-.01.05-.01.08-.02.02 0 .05-.01.07-.01.02-.01.05-.02.07-.03.03-.01.05-.02.07-.03.03-.01.05-.02.07-.03.02-.02.05-.03.07-.04.02-.02.04-.03.06-.05.02-.01.04-.03.06-.05s.04-.04.06-.06.04-.04.05-.06c.02-.02.04-.04.06-.07l.04-.07.04-.08s0-.01.01-.02v-.01c0-.01 0-.02 0-.02-.01-.01-.01-.02-.01-.02 0-.01 0-.02.01-.02 0-.01 0-.02 0-.02 0-.01 0-.02 0-.02-.01-.01-.01-.02-.01-.02l-1.35-1.52.75-1.37-.07-.1c-.01-.01-.02-.02-.02-.03-.01-.01-.02-.02-.02-.03-.01 0-.02-.01-.03-.02 0-.01-.01-.01-.02-.02l-.06-.06-.08-.09c-.04-.03-.07-.07-.1-.1-.04-.03-.07-.06-.1-.09-.04-.03-.07-.06-.11-.09-.03-.03-.07-.05-.1-.08-.04-.03-.07-.05-.1-.07-.04-.03-.07-.05-.11-.07-.03-.02-.07-.04-.1-.06-.04-.02-.07-.04-.11-.06-.03-.01-.06-.03-.1-.04-.03-.01-.06-.03-.09-.04-.04-.01-.07-.02-.11-.03-.03-.01-.06-.02-.1-.03-.03-.01-.06-.01-.09-.02s-.06-.01-.09-.01c-.03-.01-.07-.01-.1-.01s-.06 0-.09 0" fill="#00c4b3"/><path d="m87.36 13.06c-.05 0-.1 0-.15.01-.05 0-.1.01-.15.01-.05.01-.1.02-.15.03-.05 0-.1.01-.14.03-.05.01-.1.02-.14.03-.05.01-.09.03-.14.04-.04.02-.08.03-.13.05-.04.02-.08.04-.13.06-.04.02-.08.04-.12.06s-.08.05-.12.07c-.04.03-.08.05-.11.08-.04.03-.08.05-.11.08-.04.03-.07.06-.11.09-.03.03-.06.06-.1.1-.03.03-.06.06-.09.1-.03.03-.06.07-.08.1l-.08.11c-.01 0-.01.01-.02.02 0 .01-.01.02-.02.03 0 .01-.01.02-.01.03-.01.01-.01.02-.02.02l-.06.11-.06.12 1.85 1.85-1.37 1.41.09.12c.01.01.02.02.03.03 0 .01.01.02.02.03s.02.02.02.03c.01.01.02.02.03.03l.09.11.11.11c.04.03.07.07.12.11.04.04.08.07.12.11s.08.07.12.11c.05.03.09.06.14.1.04.03.08.06.12.09.05.03.09.06.14.09.04.03.08.06.13.08.05.03.09.06.14.08.04.03.09.05.14.07.05.03.09.05.14.07s.1.04.15.06c.04.02.09.04.14.06.05.01.1.03.15.04.04.02.09.03.14.04.05.02.1.03.15.04s.1.02.15.03.09.01.14.02.09.01.14.02c.05 0 .1 0 .14.01h.15.14c.04 0 .09-.01.14-.01.04-.01.09-.01.14-.02.04-.01.09-.01.14-.02.04-.01.09-.02.13-.03.05-.01.1-.03.14-.04.05-.01.09-.03.13-.04.05-.02.09-.04.14-.06.04-.02.08-.04.12-.06.05-.02.09-.04.13-.07.04-.02.08-.05.12-.07.04-.03.08-.06.12-.08l2.66-1.96-2.96-2.74c-.05-.04-.1-.09-.15-.13-.06-.04-.11-.09-.16-.13-.06-.04-.11-.08-.17-.12-.05-.04-.11-.07-.17-.11-.05-.03-.1-.07-.16-.1-.05-.03-.11-.06-.17-.09s-.11-.06-.17-.08c-.06-.03-.12-.05-.18-.08-.05-.02-.11-.04-.17-.06-.05-.02-.11-.03-.17-.05-.05-.02-.11-.03-.17-.05-.06-.01-.11-.02-.17-.03s-.11-.02-.17-.03-.11-.01-.17-.02c-.06 0-.12-.01-.17-.01-.06 0-.12-.01-.17 0" fill="#00c4b3"/><g fill="#231f20"><path d="m22.84 13.7h-1.71l-.99 5.03h-1.46l.99-5.03h-1.67l.26-1.33h4.84z"/><path d="m22.04 17.51c0-.05 0-.1.01-.16 0-.05 0-.11.01-.16 0-.05.01-.11.01-.16.01-.05.02-.11.03-.16l.48-2.33h1.44l-.41 2.11c-.01.04-.02.07-.02.1-.01.03-.01.07-.02.1 0 .03 0 .07-.01.1v.1c-.01.08-.01.16.02.24.02.08.07.15.12.21.06.06.13.11.2.14.08.03.16.04.25.03.45 0 .84-.33.98-1.11l.4-2.04h1.4l-.83 4.19h-1.37l.13-.68c-.06.12-.15.23-.24.33-.1.1-.21.19-.33.26s-.25.13-.38.16c-.13.04-.27.06-.41.06-.19.03-.38.01-.56-.04-.18-.06-.35-.15-.48-.28-.14-.13-.25-.28-.32-.46-.08-.17-.11-.36-.1-.55zm1.57-5.04h1.15l-.25 1.22h-1.14zm1.74 0h1.14l-.24 1.22h-1.15z"/><path d="m27.84 14.54h1.37l-.18.84c.05-.15.13-.29.23-.41.1-.13.22-.24.35-.32.14-.09.29-.16.44-.2s.31-.05.47-.04c.02-.01.04-.01.05-.01h.05.05c.01 0 .03 0 .05.01l-.28 1.44h-.22c-.85 0-1.32.33-1.51 1.32l-.31 1.55h-1.37z"/><path d="m33.55 16.55 1.44 2.18h-1.73l-1.08-1.91-.38 1.91h-1.36l1.22-6.36h1.36l-.68 3.81 1.56-1.64h1.84z"/><path d="m35.94 14.54h1.36l-.83 4.19h-1.36zm1.59-.78h-1.5l.28-1.36h1.49z"/><path d="m42.64 14.54-3.87 6.01h-1.51l1.53-2.31-1.13-3.7h1.51l.55 2.29 1.42-2.29z"/><path d="m43.57 16.96c.07.49.35.75.95.75.12 0 .23-.01.35-.03.11-.01.22-.04.33-.07s.22-.07.33-.11c.1-.05.21-.1.3-.16l.43 1.07c-.14.08-.28.14-.43.2s-.3.1-.46.14c-.15.04-.31.07-.47.09-.15.02-.31.03-.47.03-1.37 0-2.22-.76-2.22-2.02-.01-.33.05-.66.17-.97s.31-.58.55-.82c.24-.23.52-.4.84-.52.31-.11.64-.16.97-.13 1.21 0 2.05.6 2.05 1.69 0 .07-.01.15-.02.22s-.02.14-.03.22c-.01.07-.03.14-.05.21s-.04.14-.06.21zm1.14-1.58c-.12 0-.23.02-.34.05-.12.04-.22.09-.31.16-.1.07-.18.16-.24.25-.07.1-.12.2-.15.31h1.73c0-.01 0-.02 0-.04 0-.01 0-.02 0-.04 0-.01 0-.03 0-.04s-.01-.03-.01-.04c0-.38-.28-.61-.68-.61z" fill-rule="evenodd"/><path d="m51.87 13.7-.26 1.29h2.33l-.25 1.25h-2.33l-.49 2.46h-1.46l1.26-6.36h4.13l-.25 1.33z"/><path d="m55.09 14.54h1.36l-.82 4.19h-1.37zm1.59-.78h-1.5l.28-1.36h1.46z"/><path d="m57.37 14.54h1.36l-.13.63c.08-.12.18-.23.29-.32.11-.1.22-.18.35-.25.13-.06.26-.12.4-.15s.29-.05.43-.05c.19-.02.37 0 .55.06s.33.16.47.29c.13.13.23.29.29.47.06.17.08.36.06.55 0 .06-.01.13-.01.2s-.01.14-.02.21c0 .06-.01.13-.02.2s-.02.14-.03.2l-.45 2.16h-1.36l.39-2.05c.01-.04.02-.08.03-.12s.02-.08.02-.12c.01-.04.01-.08.01-.13.01-.04.01-.08.01-.12 0-.46-.25-.65-.68-.65s-.82.24-.98 1.08l-.42 2.11h-1.36z"/><path d="m61.76 15.99c.1-.3.26-.58.47-.81.22-.24.48-.43.77-.56.29-.12.6-.19.92-.19.15-.01.3 0 .45.03.15.04.29.09.43.17.13.07.25.17.35.28.11.11.19.24.26.38l.15-.73h1.36l-.83 4.2h-1.37l.11-.56c-.24.3-.57.52-.94.62s-.76.07-1.12-.07-.66-.4-.86-.73-.29-.71-.25-1.09c-.03-.32 0-.64.1-.94zm3.36.55c0-.12-.02-.24-.07-.36-.05-.11-.12-.21-.21-.3-.09-.08-.2-.15-.32-.19s-.24-.05-.36-.04c-.15 0-.29.02-.42.08-.13.05-.25.13-.35.23s-.18.23-.23.36-.07.27-.06.41c-.01.13.02.25.07.37.05.11.12.21.22.29.09.09.2.15.32.19.11.03.24.04.36.03.14 0 .28-.03.41-.08s.24-.13.34-.23.18-.22.23-.35.07-.27.07-.41z" fill-rule="evenodd"/><path d="m67.66 14.54h1.36l-.13.63c.09-.12.18-.23.29-.32.11-.1.22-.18.35-.25s.27-.12.41-.15.28-.05.42-.05c.19-.02.37 0 .55.06.17.06.33.16.46.29.14.13.24.29.3.47.06.17.08.36.06.55 0 .06 0 .13-.01.2 0 .07-.01.14-.01.21-.01.06-.02.13-.03.2s-.02.14-.03.2l-.45 2.16h-1.36l.39-2.05c.01-.04.02-.08.03-.12s.02-.08.02-.12c.01-.04.01-.08.02-.13 0-.04 0-.08 0-.12 0-.46-.25-.65-.68-.65s-.83.24-.98 1.08l-.41 2.11h-1.37z"/><path d="m73.76 17.75c.2 0 .28-.07.28-.18s-.06-.15-.25-.26l-.59-.33c-.12-.05-.23-.12-.33-.2-.11-.08-.19-.18-.27-.29-.07-.11-.13-.23-.17-.35-.03-.13-.05-.26-.05-.39 0-.82.58-1.36 1.64-1.36.16 0 .32.01.48.03s.31.05.47.09.31.08.46.14c.15.05.3.12.44.19l-.51 1.03c-.1-.06-.2-.1-.3-.15-.1-.04-.21-.08-.31-.11-.11-.03-.22-.05-.33-.07s-.22-.03-.33-.04c-.22 0-.31.05-.31.16s.09.17.3.28l.6.3c.12.05.24.11.34.19s.19.17.27.28c.07.11.13.22.16.35.04.12.06.25.05.38 0 .94-.68 1.42-1.74 1.42-.18 0-.36-.01-.54-.04s-.36-.08-.54-.13c-.17-.06-.34-.13-.5-.22s-.32-.18-.47-.29l.69-1.01c.1.08.2.15.31.21.1.07.21.12.33.17.11.05.23.09.35.12.12.04.24.06.37.08z"/></g></svg>