<svg width="110" height="30" fill="none" xmlns="http://www.w3.org/2000/svg">
    <path d="M78.688 15.412h11.267c.03.278.045.555.045.832 0 3.648-2.907 6.604-6.496 6.604-.283 0-.556-.016-.818-.047v-3.248h-4.815a7.183 7.183 0 0 1-.667-1.662h7.102v3.232c2.045-.338 3.665-1.985 3.998-4.063H77.053a5.443 5.443 0 0 1-.06-.816c0-3.649 2.922-6.62 6.51-6.62.273 0 .54.021.803.062v3.248H89.137c.288.508.515 1.062.666 1.647h-7.117V11.35c-2.044.354-3.65 1.985-3.998 4.063Z" fill="#1E6936"/>
    <path fill-rule="evenodd" clip-rule="evenodd" d="M44.193 15.736c0 .267-.02.528-.06.785h-4.029c-.01 1.221.59 1.832 1.802 1.832.677 0 1.308-.139 1.893-.416l.151 1.308c-.706.288-1.483.431-2.332.431-2.14 0-3.21-1.123-3.21-3.37 0-1.037.273-1.879.818-2.525.535-.657 1.277-.985 2.226-.985.909 0 1.605.287 2.09.862.434.523.65 1.216.65 2.078Zm-1.666-.385c.01-.4-.086-.718-.288-.955-.202-.236-.48-.354-.832-.354-.354 0-.642.119-.864.354-.232.247-.368.565-.408.955h2.392ZM55.126 15.905c0 1.129-.308 2.037-.924 2.725-.636.698-1.499 1.046-2.59 1.046a8.71 8.71 0 0 1-2.422-.323V9.84h1.666v2.848c0 .482-.036.913-.106 1.293h.015c.363-.78 1.02-1.17 1.968-1.17.778 0 1.368.267 1.772.8.414.544.62 1.309.62 2.294Zm-1.757.17c0-1.242-.368-1.863-1.105-1.863-.424 0-.767.215-1.03.646-.252.41-.378.903-.378 1.478V18.2c.242.082.535.123.878.123 1.09 0 1.635-.75 1.635-2.248ZM61.032 19.538h-1.575c0-.452.02-.821.06-1.108l-.015-.016c-.151.38-.414.688-.787.924a2.49 2.49 0 0 1-1.287.338c-.586 0-1.045-.153-1.378-.461-.323-.308-.485-.734-.485-1.278 0-.77.348-1.375 1.045-1.816.676-.4 1.58-.6 2.71-.6v-.37c0-.698-.423-1.047-1.272-1.047a3.74 3.74 0 0 0-1.923.523l-.136-1.431a6.88 6.88 0 0 1 2.332-.4c.99 0 1.696.2 2.12.6.374.36.56.924.56 1.693v2.756c0 .585.01 1.149.03 1.693Zm-1.711-2.756v-.169c-1.434 0-2.15.354-2.15 1.062 0 .462.257.693.772.693.393 0 .726-.164.999-.493a1.71 1.71 0 0 0 .379-1.093Z" fill="#1E6936"/>
    <path d="m48.63 12.796-.091 1.662a2.755 2.755 0 0 0-.394-.03c-.939 0-1.408.805-1.408 2.416v2.694H45.07v-6.604h1.575c0 .42-.04.867-.121 1.34h.03c.404-1.068 1.095-1.56 2.075-1.478ZM67.952 19.538h-1.666V15.32c0-.739-.262-1.108-.787-1.108-.424 0-.782.215-1.075.646-.293.41-.44.909-.44 1.494v3.186h-1.68v-6.604h1.59c0 .462-.036.852-.106 1.17l.015.016c.444-.883 1.181-1.324 2.21-1.324 1.293 0 1.939.703 1.939 2.109v4.633ZM75.024 19.538h-2.09l-2.014-3.264v3.264h-1.666V9.84h1.666v5.85l1.893-2.756h2.044l-2.271 3.017 2.438 3.587Z" fill="#1E6936"/>
    <path fill-rule="evenodd" clip-rule="evenodd" d="M31.851 15.736c0 .267-.015.528-.045.785h-4.028c-.01 1.221.585 1.832 1.787 1.832.686 0 1.317-.139 1.893-.416l.166 1.308c-.706.288-1.484.431-2.332.431-2.14 0-3.21-1.123-3.21-3.37 0-1.037.267-1.879.802-2.525.546-.657 1.293-.985 2.242-.985.908 0 1.6.287 2.074.862.434.523.651 1.216.651 2.078Zm-1.65-.385c0-.4-.096-.718-.288-.955-.202-.236-.485-.354-.848-.354-.343 0-.63.119-.863.354-.222.237-.354.555-.394.955h2.393Z" fill="#1E6936"/>
    <path d="M23.553 20.215c.162.329.242.631.242.909 0 .708-.51 1.282-1.53 1.724l-.787-.647c.505-.349.758-.75.758-1.2 0-.247-.071-.509-.212-.786h1.529ZM25.537 16.767c0 .862-.308 1.56-.924 2.094-.646.554-1.504.83-2.574.83a6.952 6.952 0 0 1-1.802-.215l.106-1.6a5.811 5.811 0 0 0 1.847.307c1.02 0 1.53-.395 1.53-1.185 0-.451-.318-.821-.954-1.108-1.121-.503-1.717-.78-1.787-.832-.636-.451-.954-1.098-.954-1.94 0-.8.293-1.451.878-1.954.606-.493 1.434-.739 2.484-.739.454 0 .984.051 1.59.154l-.091 1.524a5.5 5.5 0 0 0-1.59-.246c-.475 0-.838.102-1.09.308a.941.941 0 0 0-.38.785c0 .42.324.78.97 1.077 1.09.513 1.68.8 1.772.862.646.452.969 1.078.969 1.878ZM38.514 19.538h-2.09l-2.014-3.264v3.264h-1.68V9.84h1.68v5.85l1.893-2.756h2.045l-2.287 3.017 2.453 3.587Z" fill="#1E6936"/>
</svg>
