<svg height="30" viewBox="0 0 110 30" width="110" xmlns="http://www.w3.org/2000/svg"><g fill-rule="evenodd"><path d="m71.19 10.47c.01-1.38.64-2.68 1.73-3.53 1.09-.84 2.51-1.14 3.85-.8 1.34.33 2.45 1.27 3 2.53.56 1.27.5 2.72-.15 3.93-.07.12-3.95 6.57-3.95 6.57l-.97-1.62 2.44-6.45c.16-.44.13-.92-.1-1.33s-.62-.7-1.08-.79c-.45-.09-.93.02-1.29.31-.37.28-.59.72-.61 1.18v6.06c-1.06-1.8-2.28-3.86-2.33-3.93-.09-.16-.16-.33-.23-.5-.06-.18-.12-.35-.16-.53s-.07-.36-.1-.54c-.02-.19-.03-.37-.02-.56" fill="#ea8640"/><path d="m86 20.28c0 1.38-.64 2.68-1.73 3.53s-2.51 1.15-3.85.81c-1.33-.34-2.44-1.27-3-2.54-.56-1.26-.5-2.71.16-3.93.06-.11 3.94-6.57 3.94-6.57l.97 1.61-2.43 6.44c-.02.05-.04.1-.06.16-.02.05-.03.1-.04.15-.01.06-.02.11-.02.16-.01.06-.01.11-.01.17 0 .42.17.82.46 1.12.3.3.71.47 1.13.47s.83-.17 1.13-.47.46-.7.46-1.12v-6.06c1.08 1.8 2.31 3.86 2.35 3.93.09.16.16.33.23.5.06.17.12.35.16.53s.08.36.1.54c.02.19.03.37.02.56" fill="#ec1c24"/><path d="m25.4 17.69c.19-.03.38-.05.58-.07.19-.02.38-.03.57-.04.2-.01.39-.01.58-.01.19.01.39.01.58.03 1.18.12 2.24.62 2.24 2.71v3.63c0 .06 0 .12.01.18s.01.12.03.18c.01.06.02.12.04.18s.04.12.06.17h-1.5l-.28-.57c-1.55 1.4-4.31.83-4.31-1.44 0-2.28 2.64-2.36 3.4-2.36h.76v-.23c0-.68-.47-1.13-1.47-1.15-.11 0-.22 0-.33.01-.11 0-.21.01-.32.02-.11.02-.22.03-.32.05-.11.02-.21.05-.32.08zm2.76 3.81h-1.11c-.67 0-1.34.26-1.28 1.1.06.85 1.54 1.2 2.39.37zm4.42-6.48v7.08c-.02.18.01.36.07.52s.16.31.28.43c.13.12.28.21.45.27.17.05.35.06.52.04v1.33c-2.01.11-3.11-.79-3.11-2.39v-7.28zm11.36 2.67c.19-.03.38-.05.57-.07s.39-.03.58-.04.39-.01.58-.01c.19.01.39.01.58.03 1.18.12 2.24.62 2.24 2.71v3.63c0 .06 0 .12.01.18s.01.12.03.18c.01.06.02.12.04.18s.04.12.06.17h-1.51l-.29-.57c-1.54 1.4-4.31.83-4.31-1.44 0-2.28 2.64-2.36 3.4-2.36h.76v-.23c0-.68-.46-1.13-1.47-1.15-.11 0-.22 0-.32.01-.11 0-.22.01-.33.02-.11.02-.21.03-.32.05s-.21.05-.32.08zm2.76 3.81h-1.12c-.66 0-1.33.26-1.27 1.1.06.85 1.54 1.2 2.39.37zm2.71 3.15v-4.72c0-1.6 1.26-2.71 3.64-2.23v1.36c-1.31-.43-1.82.26-1.82 1.07v4.52zm4.6-6.96c.19-.03.38-.05.57-.07s.38-.03.58-.04c.19-.01.38-.01.57-.01.2.01.39.01.58.03 1.18.12 2.24.62 2.24 2.71v3.63c0 .06.01.12.01.18.01.06.02.12.03.18s.03.12.04.18c.02.06.04.12.06.17h-1.49l-.29-.57c-1.54 1.4-4.31.83-4.31-1.44 0-2.28 2.64-2.36 3.4-2.36h.76v-.23c0-.68-.46-1.13-1.46-1.15-.11 0-.22 0-.33.01-.11 0-.22.01-.33.02-.1.02-.21.03-.32.05-.1.02-.21.05-.31.08zm2.75 3.81h-1.11c-.67 0-1.34.26-1.27 1.1.06.85 1.54 1.2 2.38.37zm-18.19-6.45c1.38 0 2.81.73 2.81 2.35.01.21 0 .43-.05.63-.05.21-.12.4-.23.59-.1.18-.24.34-.39.49-.16.14-.33.26-.52.35 2.96.81 2.29 5.25-1.46 5.25h-3.22v-9.68zm-1.27 4.02h1.08c.17 0 .33-.04.48-.1.15-.07.29-.16.4-.28.12-.11.21-.25.27-.4.07-.15.1-.32.1-.48.01-.17-.02-.33-.08-.49s-.15-.3-.27-.42c-.11-.12-.25-.21-.41-.28-.15-.06-.32-.1-.49-.09h-1.08zm0 4.14h1.35c.19.02.38 0 .56-.06.19-.05.36-.15.51-.27.14-.12.27-.27.36-.44.08-.17.14-.36.16-.55-.01-.19-.05-.37-.13-.54-.08-.18-.19-.33-.33-.46-.14-.12-.3-.22-.48-.28s-.37-.09-.56-.07h-1.44zm30.28-5.52c.19-.03.38-.05.57-.07.2-.02.39-.03.58-.04s.39-.01.58-.01c.19.01.39.01.58.03 1.18.12 2.24.62 2.24 2.71v3.63c0 .06.01.12.02.18 0 .06.01.12.03.18.01.06.03.12.05.18.01.06.04.12.06.17h-1.52l-.28-.57c-1.54 1.4-4.31.83-4.31-1.44 0-2.28 2.64-2.36 3.4-2.36h.76v-.23c0-.68-.47-1.13-1.47-1.15-.11 0-.22 0-.33.01-.11 0-.21.01-.32.02-.11.02-.22.03-.32.05-.11.02-.22.05-.32.08zm2.76 3.81h-1.12c-.66 0-1.33.26-1.27 1.1.06.85 1.54 1.2 2.39.37zm-6.39-3.95h2.05l-2.44 2.62 2.72 4.48h-1.98l-1.93-3.24-1.12 1.19v2.05h-1.64v-9.68h1.64v5.5z" fill="#929497"/></g></svg>